<svg xmlns="http://www.w3.org/2000/svg" width="54" height="54" viewBox="0 0 54 54" fill="none">
  <g clip-path="url(#clip0_11156_1220)">
    <path d="M11.25 15.75C11.25 18.1369 12.1982 20.4261 13.886 22.114C15.5739 23.8018 17.8631 24.75 20.25 24.75C22.6369 24.75 24.9261 23.8018 26.614 22.114C28.3018 20.4261 29.25 18.1369 29.25 15.75C29.25 13.3631 28.3018 11.0739 26.614 9.38604C24.9261 7.69821 22.6369 6.75 20.25 6.75C17.8631 6.75 15.5739 7.69821 13.886 9.38604C12.1982 11.0739 11.25 13.3631 11.25 15.75Z" stroke="#E5383B" stroke-width="3" stroke-linecap="round" stroke-linejoin="round"/>
    <path d="M6.75 47.25V42.75C6.75 40.3631 7.69821 38.0739 9.38604 36.386C11.0739 34.6982 13.3631 33.75 15.75 33.75H24.75C27.1369 33.75 29.4261 34.6982 31.114 36.386C32.8018 38.0739 33.75 40.3631 33.75 42.75V47.25" stroke="#E5383B" stroke-width="3" stroke-linecap="round" stroke-linejoin="round"/>
    <path d="M36 7.04248C37.9359 7.53816 39.6518 8.66406 40.8772 10.2427C42.1025 11.8213 42.7676 13.7628 42.7676 15.7612C42.7676 17.7596 42.1025 19.7012 40.8772 21.2798C39.6518 22.8584 37.9359 23.9843 36 24.48" stroke="#E5383B" stroke-width="3" stroke-linecap="round" stroke-linejoin="round"/>
    <path d="M47.25 47.2499V42.7499C47.2386 40.7635 46.5703 38.8367 45.3494 37.2698C44.1284 35.7029 42.4234 34.584 40.5 34.0874" stroke="#E5383B" stroke-width="3" stroke-linecap="round" stroke-linejoin="round"/>
  </g>
  <defs>
    <clipPath id="clip0_11156_1220">
      <rect width="54" height="54" fill="white"/>
    </clipPath>
  </defs>
</svg>