<svg width="279" height="56" viewBox="0 0 353 72" fill="none" xmlns="http://www.w3.org/2000/svg">
<g clip-path="url(#clip0_11483_2411)">
<path d="M62.63 37.5V56.82H42.98V34.24C42.98 34.24 26.77 34.24 18.97 34.24V56.7H0V1.88H18.79V21.21H42.61C43.14 18.27 42.95 11.58 42.95 11.58L62.63 37.5Z" fill="black"/>
<path d="M88.7475 56.81H69.8975V37.71L44.1875 2.85H66.5575L79.2475 23.09L92.7075 2.88H114.158L88.7075 37.71L88.7475 56.81Z" fill="black"/>
<path d="M149.62 12.41C148.53 10.89 147.12 9.66 145.41 8.74C143.7 7.81 141.63 7.35 139.2 7.35C137.96 7.35 136.7 7.54 135.42 7.92C134.14 8.3 132.97 8.88 131.92 9.67C130.87 10.46 130.03 11.44 129.39 12.63C128.75 13.82 128.43 15.22 128.43 16.84C128.43 18.46 128.74 19.79 129.35 20.84C129.97 21.89 130.78 22.78 131.8 23.51C132.82 24.25 133.98 24.85 135.29 25.33C136.59 25.81 137.96 26.28 139.38 26.76C141.13 27.33 142.9 27.95 144.68 28.62C146.46 29.29 148.06 30.15 149.48 31.22C150.9 32.29 152.07 33.65 152.97 35.29C153.87 36.93 154.32 39.01 154.32 41.53C154.32 44.05 153.84 46.23 152.88 48.06C151.92 49.89 150.67 51.4 149.13 52.59C147.59 53.78 145.84 54.66 143.87 55.23C141.9 55.8 139.91 56.09 137.91 56.09C136.39 56.09 134.87 55.93 133.34 55.63C131.82 55.32 130.37 54.86 128.99 54.24C127.61 53.62 126.33 52.84 125.14 51.89C123.95 50.94 122.9 49.85 122 48.61L126.42 45.33C127.51 47.14 129.05 48.65 131.02 49.86C132.99 51.07 135.31 51.68 137.98 51.68C139.26 51.68 140.57 51.48 141.9 51.07C143.23 50.67 144.43 50.05 145.5 49.22C146.57 48.39 147.45 47.36 148.14 46.15C148.83 44.94 149.17 43.52 149.17 41.9C149.17 40.14 148.82 38.68 148.14 37.51C147.45 36.34 146.53 35.37 145.39 34.58C144.25 33.8 142.94 33.14 141.47 32.62C140 32.1 138.45 31.57 136.83 31.05C135.16 30.53 133.52 29.93 131.91 29.27C130.29 28.6 128.84 27.74 127.56 26.67C126.28 25.6 125.24 24.28 124.46 22.71C123.67 21.14 123.28 19.21 123.28 16.93C123.28 14.5 123.77 12.41 124.74 10.65C125.71 8.89 126.99 7.44 128.56 6.3C130.13 5.16 131.87 4.33 133.77 3.8C135.67 3.28 137.55 3.01 139.41 3.01C142.83 3.01 145.76 3.62 148.19 4.83C150.62 6.04 152.45 7.48 153.68 9.15L149.61 12.43L149.62 12.41Z" fill="black"/>
<path d="M179.731 25.47H170.311V44.95C170.311 46.19 170.431 47.21 170.671 48.02C170.911 48.83 171.251 49.46 171.701 49.91C172.151 50.36 172.691 50.67 173.301 50.84C173.921 51.01 174.581 51.09 175.301 51.09C175.971 51.09 176.671 51 177.401 50.8C178.141 50.61 178.841 50.35 179.501 50.01L179.711 54.22C178.851 54.55 177.961 54.8 177.031 54.97C176.101 55.14 175.091 55.22 174.001 55.22C173.101 55.22 172.151 55.1 171.151 54.86C170.151 54.62 169.221 54.17 168.371 53.5C167.511 52.83 166.811 51.93 166.271 50.79C165.721 49.65 165.451 48.15 165.451 46.29V25.46H158.531V21.39H165.451V11.97H170.301V21.39H179.721V25.46L179.731 25.47Z" fill="black"/>
<path d="M208.342 33.18C208.342 30.3 207.583 28.15 206.062 26.73C204.542 25.31 202.332 24.61 199.432 24.61C197.432 24.61 195.583 24.97 193.863 25.68C192.153 26.39 190.702 27.35 189.512 28.53L186.803 25.32C188.183 23.94 190.002 22.8 192.262 21.9C194.522 21 197.082 20.54 199.932 20.54C201.742 20.54 203.433 20.79 205.003 21.29C206.573 21.79 207.953 22.54 209.143 23.54C210.333 24.54 211.263 25.8 211.923 27.32C212.593 28.84 212.923 30.63 212.923 32.67V47.3C212.923 48.58 212.972 49.92 213.062 51.3C213.153 52.68 213.303 53.84 213.493 54.8H209.143C209.003 53.99 208.883 53.11 208.783 52.16C208.683 51.21 208.643 50.28 208.643 49.38H208.503C206.983 51.62 205.253 53.22 203.333 54.2C201.403 55.17 199.082 55.66 196.372 55.66C195.092 55.66 193.773 55.48 192.413 55.12C191.053 54.76 189.822 54.18 188.702 53.37C187.582 52.56 186.653 51.51 185.923 50.22C185.183 48.93 184.812 47.36 184.812 45.5C184.812 42.92 185.463 40.88 186.773 39.38C188.083 37.88 189.832 36.76 192.012 36.02C194.202 35.28 196.712 34.8 199.542 34.59C202.372 34.38 205.313 34.27 208.353 34.27V33.21L208.342 33.18ZM206.913 38.1C204.913 38.1 202.903 38.18 200.883 38.35C198.863 38.52 197.033 38.85 195.393 39.35C193.753 39.85 192.403 40.58 191.363 41.53C190.313 42.48 189.792 43.74 189.792 45.31C189.792 46.5 190.023 47.5 190.473 48.31C190.923 49.12 191.532 49.77 192.292 50.27C193.052 50.77 193.903 51.13 194.823 51.34C195.753 51.55 196.693 51.66 197.643 51.66C199.353 51.66 200.873 51.36 202.213 50.77C203.543 50.18 204.663 49.37 205.562 48.34C206.462 47.32 207.153 46.14 207.633 44.81C208.103 43.48 208.342 42.08 208.342 40.6V38.1H206.913Z" fill="black"/>
<path d="M238.088 25.47H230.238V54.79H225.388V25.47H218.398V21.4H225.388V12.27C225.388 8.47 226.318 5.47 228.168 3.28C230.018 1.09 232.878 0 236.728 0C237.348 0 238.018 0.04 238.728 0.11C239.438 0.18 240.108 0.31 240.728 0.5L239.868 4.78C239.348 4.64 238.818 4.52 238.298 4.42C237.778 4.33 237.178 4.28 236.518 4.28C235.238 4.28 234.178 4.49 233.348 4.92C232.518 5.35 231.878 5.95 231.418 6.74C230.968 7.52 230.658 8.44 230.488 9.49C230.318 10.54 230.238 11.66 230.238 12.84V21.4H238.088V25.47Z" fill="black"/>
<path d="M257.846 25.47H249.996V54.79H245.146V25.47H238.156V21.4H245.146V12.27C245.146 8.47 246.076 5.47 247.926 3.28C249.776 1.09 252.636 0 256.486 0C257.106 0 257.776 0.04 258.486 0.11C259.196 0.18 259.866 0.31 260.486 0.5L259.626 4.78C259.106 4.64 258.576 4.52 258.056 4.42C257.536 4.33 256.936 4.28 256.276 4.28C254.996 4.28 253.936 4.49 253.106 4.92C252.276 5.35 251.636 5.95 251.176 6.74C250.726 7.52 250.416 8.44 250.246 9.49C250.076 10.54 249.996 11.66 249.996 12.84V21.4H257.846V25.47ZM270.616 8.56C270.616 9.56 270.256 10.38 269.546 11.02C268.836 11.66 268.046 11.98 267.196 11.98C266.346 11.98 265.556 11.66 264.846 11.02C264.136 10.38 263.776 9.56 263.776 8.56C263.776 7.56 264.136 6.74 264.846 6.1C265.556 5.46 266.346 5.14 267.196 5.14C268.046 5.14 268.836 5.46 269.546 6.1C270.256 6.74 270.616 7.56 270.616 8.56ZM269.546 54.79H264.696V21.4H269.546V54.79Z" fill="black"/>
<path d="M285.462 21.4C285.552 22.3 285.633 23.3 285.673 24.4C285.723 25.49 285.742 26.4 285.742 27.11H285.883C286.833 25.16 288.382 23.58 290.522 22.36C292.662 21.14 294.922 20.54 297.302 20.54C301.532 20.54 304.713 21.8 306.823 24.32C308.943 26.84 309.992 30.17 309.992 34.31V54.79H305.143V36.31C305.143 34.55 305.002 32.96 304.712 31.53C304.422 30.1 303.943 28.88 303.253 27.86C302.563 26.84 301.633 26.04 300.473 25.47C299.303 24.9 297.842 24.61 296.082 24.61C294.802 24.61 293.552 24.87 292.332 25.39C291.122 25.91 290.032 26.71 289.082 27.78C288.132 28.85 287.372 30.21 286.802 31.85C286.232 33.49 285.943 35.43 285.943 37.66V54.78H281.092V28.74C281.092 27.84 281.072 26.67 281.022 25.24C280.972 23.81 280.903 22.53 280.812 21.39H285.453L285.462 21.4Z" fill="black"/>
<path d="M321.493 61.5C322.823 63.21 324.643 64.66 326.953 65.85C329.263 67.04 331.693 67.63 334.263 67.63C336.643 67.63 338.663 67.28 340.323 66.6C341.983 65.91 343.333 64.97 344.353 63.78C345.373 62.59 346.123 61.2 346.603 59.61C347.073 58.02 347.313 56.32 347.313 54.51V48.23H347.173C345.893 50.32 344.073 51.94 341.713 53.08C339.363 54.22 336.973 54.79 334.543 54.79C331.923 54.79 329.563 54.36 327.443 53.51C325.323 52.65 323.523 51.48 322.023 49.98C320.523 48.48 319.353 46.69 318.523 44.59C317.693 42.5 317.273 40.24 317.273 37.81C317.273 35.38 317.693 33.2 318.523 31.1C319.353 29.01 320.523 27.18 322.023 25.61C323.523 24.04 325.323 22.8 327.443 21.9C329.563 21 331.923 20.54 334.543 20.54C336.973 20.54 339.343 21.11 341.673 22.25C344.003 23.39 345.833 25.03 347.163 27.17H347.303V21.39H352.153V54.49C352.153 56.3 351.903 58.22 351.403 60.27C350.903 62.31 349.973 64.19 348.623 65.91C347.273 67.63 345.423 69.05 343.093 70.19C340.763 71.33 337.743 71.9 334.033 71.9C330.943 71.9 327.993 71.3 325.183 70.12C322.373 68.93 319.973 67.29 317.973 65.2L321.473 61.49L321.493 61.5ZM322.423 37.67C322.423 39.43 322.713 41.09 323.283 42.66C323.853 44.23 324.673 45.61 325.743 46.8C326.813 47.99 328.133 48.93 329.703 49.62C331.273 50.31 333.053 50.66 335.053 50.66C336.903 50.66 338.623 50.35 340.193 49.73C341.763 49.11 343.113 48.23 344.263 47.09C345.413 45.95 346.293 44.58 346.943 42.99C347.583 41.4 347.903 39.63 347.903 37.67C347.903 35.91 347.583 34.25 346.943 32.68C346.303 31.11 345.413 29.73 344.263 28.54C343.123 27.35 341.763 26.4 340.193 25.69C338.623 24.98 336.913 24.62 335.053 24.62C333.053 24.62 331.273 24.98 329.703 25.69C328.133 26.4 326.813 27.36 325.743 28.54C324.673 29.73 323.853 31.11 323.283 32.68C322.713 34.25 322.423 35.92 322.423 37.67Z" fill="black"/>
</g>
<defs>
<clipPath id="clip0_11483_2411">
<rect width="352.17" height="71.92" fill="white"/>
</clipPath>
</defs>
</svg>
