<svg xmlns="http://www.w3.org/2000/svg" width="54" height="54" viewBox="0 0 54 54" fill="none">
  <g clip-path="url(#clip0_11156_1228)">
    <path d="M20.25 11.25H15.75C14.5565 11.25 13.4119 11.7241 12.568 12.568C11.7241 13.4119 11.25 14.5565 11.25 15.75V42.75C11.25 43.9435 11.7241 45.0881 12.568 45.932C13.4119 46.7759 14.5565 47.25 15.75 47.25H38.25C39.4435 47.25 40.5881 46.7759 41.432 45.932C42.2759 45.0881 42.75 43.9435 42.75 42.75V15.75C42.75 14.5565 42.2759 13.4119 41.432 12.568C40.5881 11.7241 39.4435 11.25 38.25 11.25H33.75" stroke="#E5383B" stroke-width="3" stroke-linecap="round" stroke-linejoin="round"/>
    <path d="M20.25 11.25C20.25 10.0565 20.7241 8.91193 21.568 8.06802C22.4119 7.22411 23.5565 6.75 24.75 6.75H29.25C30.4435 6.75 31.5881 7.22411 32.432 8.06802C33.2759 8.91193 33.75 10.0565 33.75 11.25C33.75 12.4435 33.2759 13.5881 32.432 14.432C31.5881 15.2759 30.4435 15.75 29.25 15.75H24.75C23.5565 15.75 22.4119 15.2759 21.568 14.432C20.7241 13.5881 20.25 12.4435 20.25 11.25Z" stroke="#E5383B" stroke-width="3" stroke-linecap="round" stroke-linejoin="round"/>
    <path d="M20.25 38.25V27" stroke="#E5383B" stroke-width="3" stroke-linecap="round" stroke-linejoin="round"/>
    <path d="M27 38.25V36" stroke="#E5383B" stroke-width="3" stroke-linecap="round" stroke-linejoin="round"/>
    <path d="M33.75 38.25V31.5" stroke="#E5383B" stroke-width="3" stroke-linecap="round" stroke-linejoin="round"/>
  </g>
  <defs>
    <clipPath id="clip0_11156_1228">
      <rect width="54" height="54" fill="white"/>
    </clipPath>
  </defs>
</svg>