 <svg xmlns="http://www.w3.org/2000/svg" width="64" height="64" viewBox="0 0 64 64"
                                fill="none">
                                <g clip-path="url(#clip0_4279_1677)">
                                    <path
                                        d="M13.4175 46.5039V56.4148C19.0626 56.6638 17.4337 57.6613 27.2556 62.0774C28.5066 62.5695 31.3942 63.3755 34.4869 61.9544L34.493 61.9519L53.7886 55.0432C54.4165 54.7543 57.5837 53.0334 56.3345 49.8285C54.874 46.4109 51.1156 47.8365 50.8006 47.939L40.727 50.7242"
                                        fill="#EAC092" />
                                    <path
                                        d="M24.8145 50.6506L36.0331 54.2057C37.991 54.7624 40.0294 53.6266 40.5861 51.6687C41.1429 49.7108 40.007 47.6724 37.7636 46.8399L27.8114 43.4622C27.811 43.4614 25.6865 39.9922 20.6274 39.9922C17.4329 39.9922 14.6789 42.5742 13.4175 44.8343V49.3473"
                                        fill="#FEDBAB" />
                                    <path
                                        d="M20.3438 50.4839C20.2625 50.4839 20.18 50.4751 20.1 50.4589C20.0195 50.4431 19.9407 50.4193 19.865 50.3876C19.79 50.3564 19.7175 50.3176 19.65 50.2725C19.5812 50.2275 19.5175 50.175 19.46 50.1175C19.4025 50.06 19.35 49.9963 19.305 49.9275C19.2588 49.86 19.2213 49.7875 19.19 49.7112C19.1588 49.6362 19.1337 49.5575 19.1187 49.4775C19.1025 49.3975 19.0938 49.315 19.0938 49.2337C19.0938 49.1525 19.1025 49.07 19.1187 48.99C19.1337 48.91 19.1588 48.8313 19.19 48.755C19.2213 48.68 19.2588 48.6075 19.305 48.54C19.35 48.4713 19.4025 48.4075 19.46 48.35C19.5175 48.2925 19.5812 48.24 19.65 48.195C19.7175 48.15 19.79 48.1113 19.865 48.08C19.9407 48.0484 20.0195 48.0245 20.1 48.0087C20.26 47.9763 20.4262 47.9763 20.5875 48.0087C20.6675 48.0237 20.7463 48.0488 20.8213 48.08C20.8975 48.1113 20.97 48.15 21.0375 48.195C21.1063 48.24 21.17 48.2925 21.2275 48.35C21.285 48.4075 21.3375 48.4713 21.3825 48.54C21.4275 48.6075 21.4662 48.68 21.4975 48.755C21.5287 48.8313 21.5525 48.91 21.5688 48.99C21.585 49.07 21.5938 49.1525 21.5938 49.2337C21.593 49.3977 21.5603 49.5598 21.4975 49.7112C21.4664 49.787 21.4279 49.8594 21.3825 49.9275C21.3375 49.9963 21.285 50.06 21.2275 50.1175C21.17 50.175 21.1063 50.2275 21.0375 50.2725C20.97 50.3175 20.8975 50.3564 20.8213 50.3876C20.7463 50.4189 20.6675 50.4439 20.5875 50.4589C20.5075 50.4751 20.425 50.4839 20.3438 50.4839Z"
                                        fill="black" />
                                    <path d="M8.68262 44.6719H13.418V58.1019H8.68262V44.6719Z" fill="#EAECF0" />
                                    <path d="M1.25 44.6719H8.6825V60.4319H1.25V44.6719Z" fill="#3688C8" />
                                    <path
                                        d="M57.4991 49.3747C57.4943 49.3622 57.4892 49.3499 57.484 49.3376C56.3335 46.6454 53.6353 45.6504 50.442 46.7411L41.7335 49.1493C41.23 47.6246 39.9741 46.3271 38.1984 45.6681C38.1874 45.664 38.1763 45.6601 38.1652 45.6563L28.5926 42.4073C27.7959 41.3774 25.3001 38.7422 20.6273 38.7422C17.3616 38.7422 14.4727 40.9824 12.82 43.4243H1.25C0.559625 43.4243 0 43.9839 0 44.6743V60.4339C0 61.1243 0.559625 61.6839 1.25 61.6839H8.68213C9.3725 61.6839 9.93213 61.1243 9.93213 60.4339V59.3547H13.4175C14.1079 59.3547 14.6675 58.7951 14.6675 58.1047V57.7449C16.6992 57.9222 17.3675 58.3076 19.2335 59.3836C20.6685 60.2111 22.8374 61.4617 26.7431 63.2178C26.7613 63.2259 26.7796 63.2337 26.798 63.2409C27.5476 63.5358 29.013 63.9991 30.8196 63.9991C32.0771 63.9991 33.5002 63.7744 34.961 63.1123L54.2099 56.2203C54.2441 56.2081 54.2779 56.1943 54.3109 56.1791C56.1505 55.3327 58.8919 52.9473 57.4991 49.3747ZM7.43213 59.1838H2.5V45.9242H7.43213V59.1838ZM12.1675 56.8546H9.93213V45.9242H12.1675V56.8546ZM53.312 53.8862L34.0718 60.7751C34.0356 60.7882 34 60.8027 33.965 60.8186C31.2854 62.0501 28.7383 61.3128 27.74 60.9247C23.9673 59.2271 21.9536 58.0659 20.4824 57.2176C18.4369 56.0381 17.4513 55.4696 14.6675 55.2397V45.1719C15.8524 43.2299 18.1501 41.2421 20.6274 41.2421C24.8756 41.2421 26.6758 44.0052 26.7465 44.1167C26.8991 44.3649 27.1337 44.552 27.4096 44.6457L37.344 48.0174C38.9306 48.6129 39.7691 49.9717 39.3838 51.3267C39.2971 51.6347 39.1502 51.9224 38.9516 52.1733C38.753 52.4241 38.5066 52.6331 38.2266 52.7881C37.668 53.1012 37.008 53.1802 36.3913 53.0078L25.1921 49.4588C24.5336 49.2502 23.8314 49.6147 23.6229 50.2728C23.4142 50.9309 23.7787 51.6334 24.4369 51.8421L35.6555 55.3972C35.6674 55.4009 35.6792 55.4046 35.6912 55.4079C36.1326 55.5339 36.5894 55.598 37.0484 55.5983C37.8781 55.5983 38.6987 55.3869 39.4435 54.9719C40.5951 54.3303 41.4279 53.2786 41.7884 52.0104C41.8171 51.9092 41.8426 51.8079 41.8647 51.7067L51.2501 49.1067C52.6056 48.6437 54.385 48.4768 55.1772 50.3014C55.9972 52.4436 53.866 53.6219 53.312 53.8862Z"
                                        fill="black" />
                                    <path
                                        d="M29.9881 12.3562L18.8858 1.25391L4.96631 15.1735L28.7522 38.9594L41.8874 25.8242"
                                        fill="#26CFAD" />
                                    <path
                                        d="M23.4139 14.2536L23.416 14.2461C22.0494 14.3395 20.709 14.9083 19.6642 15.9531C17.3697 18.2476 17.3697 21.9676 19.6642 24.2621C21.9587 26.5566 25.6787 26.5566 27.9732 24.2621C29.083 23.1523 29.6559 21.7092 29.6922 20.2552"
                                        fill="#FFD36C" />
                                    <path
                                        d="M50.5827 19.4188V9.50788C44.9375 9.25888 46.5664 8.26138 36.7445 3.84525C35.4935 3.35313 32.6059 2.54713 29.5133 3.96825C29.5113 3.96916 29.5092 3.96999 29.5072 3.97075L23.6855 6.05513L29.6923 12.0619"
                                        fill="#EAC092" />
                                    <path
                                        d="M4.96631 15.1735L9.68531 10.4545C12.2877 13.0569 12.2877 17.2902 9.68531 19.8925L4.96631 15.1735ZM24.0332 34.2404C26.6356 31.638 30.8688 31.638 33.4712 34.2404L28.7522 38.9594L24.0332 34.2404ZM14.1668 5.97291L18.8858 1.25391L23.6048 5.97291C21.0026 8.57528 16.7692 8.57528 14.1668 5.97291ZM36.4009 22.757C35.5454 25.1182 36.0627 27.8687 37.9528 29.7588L41.8874 25.8242"
                                        fill="#00B192" />
                                    <path
                                        d="M39.1855 15.2708L27.9669 11.7157C26.009 11.159 23.9706 12.2948 23.414 14.2527C22.8572 16.2106 23.9931 18.249 26.2365 19.0815L36.1929 22.4606L36.1887 22.4592C36.1887 22.4592 38.313 25.9292 43.3727 25.9292C46.5672 25.9292 49.3212 23.3472 50.5826 21.0871V16.5741"
                                        fill="#FEDBAB" />
                                    <path
                                        d="M43.6562 17.9369C43.4923 17.9361 43.3302 17.9034 43.1787 17.8406C43.103 17.8096 43.0306 17.771 42.9625 17.7256C42.8938 17.6806 42.83 17.6281 42.7725 17.5706C42.715 17.5131 42.6625 17.4494 42.6175 17.3806C42.5721 17.3125 42.5336 17.2401 42.5025 17.1644C42.4712 17.0894 42.4463 17.0106 42.4313 16.9306C42.415 16.8506 42.4062 16.7681 42.4062 16.6869C42.4062 16.6056 42.415 16.5231 42.4313 16.4431C42.4463 16.3631 42.4712 16.2844 42.5025 16.2081C42.5337 16.1331 42.5725 16.0606 42.6175 15.9931C42.6625 15.9244 42.715 15.8606 42.7725 15.8031C42.83 15.7456 42.8938 15.6931 42.9625 15.6481C43.0306 15.6027 43.103 15.5642 43.1787 15.5331C43.2537 15.5019 43.3325 15.4769 43.4125 15.4619C43.5737 15.4294 43.74 15.4294 43.9012 15.4619C43.98 15.4769 44.0587 15.5019 44.135 15.5331C44.21 15.5644 44.2825 15.6031 44.35 15.6481C44.4187 15.6931 44.4825 15.7456 44.54 15.8031C44.5975 15.8606 44.65 15.9244 44.695 15.9931C44.7412 16.0606 44.7788 16.1331 44.81 16.2081C44.8742 16.3596 44.9069 16.5224 44.9062 16.6869C44.9062 16.7681 44.8987 16.8506 44.8825 16.9306C44.8662 17.0106 44.8425 17.0894 44.81 17.1644C44.7788 17.2406 44.7412 17.3131 44.695 17.3806C44.65 17.4494 44.5975 17.5131 44.54 17.5706C44.4825 17.6281 44.4187 17.6806 44.35 17.7256C44.2825 17.7706 44.21 17.8094 44.135 17.8406C44.0587 17.8719 43.98 17.8956 43.9012 17.9119C43.82 17.9281 43.7375 17.9369 43.6562 17.9369Z"
                                        fill="black" />
                                    <path d="M50.5825 7.81641H55.3179V21.2464H50.5825V7.81641Z" fill="#EAECF0" />
                                    <path d="M55.3174 5.48828H62.7499V21.2483H55.3174V5.48828Z" fill="#3688C8" />
                                    <path
                                        d="M62.7501 4.23737H55.318C54.6276 4.23737 54.068 4.797 54.068 5.48737V6.56663H50.5826C49.8922 6.56663 49.3326 7.12625 49.3326 7.81663V8.17638C47.3008 7.999 46.6326 7.61375 44.7667 6.53775C43.3317 5.71025 41.1628 4.45963 37.257 2.7035C37.2388 2.69528 37.2205 2.68757 37.202 2.68037C35.9306 2.18012 32.5985 1.19587 29.0396 2.80875L24.0096 4.60975L19.7697 0.37C19.2816 -0.118125 18.4901 -0.118125 18.002 0.37L4.08221 14.2896C3.63196 14.74 3.54558 15.5209 4.08221 16.0575L27.8681 39.8434C28.2487 40.2241 29.14 40.3393 29.636 39.8434L42.3441 27.1354C42.6745 27.1639 43.0173 27.1792 43.3727 27.1792C46.6385 27.1792 49.5272 24.939 51.1798 22.4972H62.7501C63.4405 22.4972 64.0001 21.9376 64.0001 21.2472V5.48737C64.0001 4.797 63.4405 4.23737 62.7501 4.23737ZM22.0562 15.8301C22.287 17.7504 23.6696 19.462 25.8017 20.2533C25.8127 20.2572 25.8237 20.2612 25.8348 20.265L28.3343 21.1134C28.1456 21.9653 27.7185 22.7485 27.0897 23.3774C25.2862 25.1806 22.3517 25.1809 20.5485 23.3774C18.745 21.574 18.745 18.6396 20.5485 16.8361C20.9797 16.4046 21.4922 16.0627 22.0562 15.8301ZM24.5566 10.9493C23.6606 11.4485 22.9576 12.1961 22.5198 13.1006C21.1031 13.3632 19.7992 14.0493 18.7805 15.0683C16.0023 17.8465 16.0023 22.3669 18.7806 25.1451C20.1696 26.5341 21.9942 27.2288 23.819 27.2288C25.6436 27.2288 27.4683 26.5343 28.8575 25.1451C29.7612 24.2414 30.3943 23.1306 30.7115 21.9201L34.932 23.3525C34.4568 25.5535 34.9435 27.869 36.2561 29.6877L33.4015 32.5424C30.6392 30.5386 26.865 30.5386 24.1027 32.5424L11.3838 19.8234C12.36 18.4809 12.887 16.8682 12.887 15.1735C12.887 13.4786 12.3601 11.8661 11.3838 10.5236L14.236 7.67163C15.5785 8.64775 17.191 9.17475 18.8858 9.17475C20.5807 9.17475 22.1932 8.64775 23.5357 7.67163L26.2393 10.3753C25.6483 10.4631 25.0781 10.6576 24.5566 10.9493ZM38.0572 27.8865C37.5763 27.1011 37.3016 26.2069 37.2586 25.287C37.9388 25.7784 38.6798 26.1796 39.4631 26.4806L38.0572 27.8865ZM18.8857 3.02163L21.7347 5.87063C20.8878 6.39437 19.9087 6.67462 18.8857 6.67462C17.8626 6.67462 16.8836 6.3945 16.0367 5.87063L18.8857 3.02163ZM9.58296 12.3245C10.1067 13.1714 10.387 14.1505 10.387 15.1735C10.387 16.1965 10.1068 17.1756 9.58296 18.0226L6.73396 15.1735L9.58296 12.3245ZM28.7521 37.1916L25.9036 34.3431C27.6427 33.2699 29.8612 33.2699 31.6005 34.3431L28.7521 37.1916ZM43.3727 24.679C42.9092 24.679 42.4748 24.646 42.0687 24.5872L42.0638 24.5865C39.3643 24.1944 37.9122 22.6601 37.4336 22.0526C37.4081 22.0151 37.2995 21.873 37.2833 21.8494C37.1327 21.5796 36.8872 21.3754 36.5945 21.2765L26.656 17.9034C25.07 17.3081 24.2316 15.95 24.6158 14.5955L24.6166 14.5929L24.6175 14.5898C24.7045 14.2826 24.8514 13.9958 25.0498 13.7457C25.2482 13.4957 25.4941 13.2874 25.7733 13.1328C26.3319 12.8194 26.992 12.7405 27.6087 12.9131L38.8078 16.462C39.4661 16.6709 40.1686 16.3061 40.3771 15.648C40.5856 14.9899 40.2212 14.2874 39.5631 14.0788L30.6562 11.2563L30.5785 11.1785L30.5761 11.1761L25.9648 6.56488L29.9283 5.14563C29.9417 5.14075 29.9582 5.13462 29.9715 5.12925L29.9846 5.124C30.0015 5.11714 30.0183 5.10988 30.035 5.10225C32.7145 3.87075 35.2615 4.60787 36.2598 4.99612C40.0327 6.69375 42.0465 7.85488 43.5177 8.70325C45.5632 9.88288 46.5488 10.4513 49.3325 10.6811V20.7489C48.1477 22.6911 45.85 24.679 43.3727 24.679ZM51.8326 9.06663H54.068V19.997H51.8326V9.06663ZM61.5001 19.997H56.568V6.73737H61.5001V19.997Z"
                                        fill="black" />
                                </g>
                                <defs>
                                    <clipPath id="clip0_4279_1677">
                                        <rect width="64" height="64" fill="white" />
                                    </clipPath>
                                </defs>
                            </svg>