  <svg xmlns="http://www.w3.org/2000/svg" width="64" height="64" viewBox="0 0 64 64"
                                fill="none">
                                <g clip-path="url(#clip0_4279_1847)">
                                    <path
                                        d="M34.934 51.4034L35.6977 52.1672C36.6741 53.1436 38.2572 53.1436 39.2336 52.1672C40.2101 51.1907 40.2101 49.6077 39.2336 48.6312L40.504 49.9016C41.4804 50.878 43.0635 50.878 44.0399 49.9016C45.0163 48.9251 45.0163 47.342 44.0399 46.3656L45.1508 47.4765C46.1486 48.4743 47.78 48.4524 48.75 47.4109C49.674 46.4187 49.603 44.8569 48.6443 43.8982L36.634 31.8879C37.6318 32.8857 39.2631 32.8638 40.2332 31.8223C41.1572 30.8301 41.0861 29.2683 40.1275 28.3096L34.6273 22.8095C33.8527 22.0348 32.8794 21.489 31.8144 21.232C30.7495 20.9751 29.6344 21.017 28.5917 21.3531L26.2461 22.1092C25.8695 22.2306 25.4667 22.2457 25.0821 22.1529C24.6974 22.0601 24.3458 21.8629 24.066 21.5831L20.0727 17.5898L13.3243 20.6198L9.37598 28.2867L12.7901 31.7008C13.2643 32.1751 13.6326 32.7446 13.8705 33.3717C14.1084 33.9988 14.2105 34.6692 14.1701 35.3387C14.1277 36.0424 14.235 36.747 14.4851 37.4061C14.7351 38.0652 15.1221 38.6637 15.6206 39.1622L31.3557 54.897C32.3144 55.8557 33.8762 55.9266 34.8684 55.0027C35.91 54.0327 35.9319 52.4012 34.934 51.4034Z"
                                        fill="#FED2A4" />
                                    <path
                                        d="M48.7498 47.4105C48.4924 47.6873 48.1886 47.8932 47.8617 48.0244C48.2311 47.1041 47.7641 46.2608 47.0228 45.5207L30.9576 29.4146L34.447 25.8724L34.2012 25.6265C33.4266 24.8519 32.4533 24.306 31.3884 24.0492C30.3235 23.7923 29.2083 23.8344 28.1658 24.1707L25.8193 24.9264C25.4429 25.0481 25.0403 25.0634 24.6557 24.9708C24.2712 24.8781 23.9197 24.681 23.6402 24.4012L18.4517 19.2127L20.0732 17.5898L24.066 21.5839C24.3459 21.8637 24.6976 22.0608 25.0823 22.1535C25.4671 22.2461 25.8699 22.2308 26.2465 22.1091L28.5917 21.3536C30.7181 20.6688 33.0479 21.23 34.6272 22.8093L40.1285 28.3093C41.0861 29.2683 41.157 30.8309 40.234 31.8233C39.2635 32.8646 37.6327 32.8864 36.6339 31.8889L48.6443 43.8981C49.6031 44.8568 49.674 46.4194 48.7498 47.4105ZM45.1509 47.4771L44.0401 46.3662C44.5292 46.8541 44.7725 47.4937 44.7725 48.1335C44.7725 48.5905 44.6477 49.0487 44.3966 49.4503L37.3945 42.4469C37.0174 42.0711 37.0174 41.4597 37.3945 41.0825C37.7716 40.7054 38.3831 40.7054 38.7602 41.0825L45.2436 47.566C45.2121 47.537 45.1811 47.5074 45.1509 47.4771ZM39.9663 50.399C39.9663 50.8572 39.8414 51.3167 39.5878 51.7197L31.7207 43.8526C31.6306 43.763 31.5591 43.6565 31.5102 43.5393C31.4614 43.422 31.4361 43.2962 31.4359 43.1692C31.4358 43.0422 31.4606 42.9163 31.5092 42.7989C31.5577 42.6815 31.6289 42.5749 31.7188 42.485C31.8086 42.3952 31.9153 42.324 32.0327 42.2754C32.1501 42.2269 32.2759 42.202 32.403 42.2022C32.53 42.2024 32.6557 42.2276 32.773 42.2765C32.8903 42.3253 32.9968 42.3968 33.0863 42.4869L39.293 48.6936C39.3032 48.7038 39.3136 48.7142 39.3226 48.7244C39.7526 49.1994 39.9663 49.7992 39.9663 50.399ZM35.698 52.1675L34.9333 51.4029C35.7662 52.2358 35.8896 53.5075 35.3015 54.4703C35.2464 54.4338 35.1951 54.392 35.1483 54.3454L30.8685 50.0656C30.4913 49.6885 30.4913 49.0771 30.8685 48.7C31.2456 48.3228 31.8558 48.3228 32.2329 48.7L35.7597 52.2268C35.7392 52.2074 35.7186 52.1882 35.698 52.1675Z"
                                        fill="#FFBD86" />
                                    <path
                                        d="M17.3303 47.7495L20.3828 44.697C21.3022 43.7776 21.3022 42.2871 20.3828 41.3677L20.2828 41.2676C19.3634 40.3483 17.8729 40.3483 16.9535 41.2676L13.9009 44.3202C12.9816 45.2395 12.9816 46.73 13.9009 47.6495L14.001 47.7495C14.9204 48.6689 16.4109 48.6689 17.3303 47.7495Z"
                                        fill="#EB9C8D" />
                                    <path
                                        d="M20.3333 44.7472L17.3806 47.6999C17.1557 47.9255 16.8885 48.1043 16.5943 48.2263C16.3001 48.3482 15.9847 48.4108 15.6662 48.4104C15.0458 48.4104 14.4253 48.1736 13.9516 47.6999C13.6509 47.4001 13.4346 47.0263 13.3247 46.6162C13.5306 46.6715 13.7431 46.6999 13.9555 46.6999C14.5772 46.6999 15.1976 46.4631 15.6699 45.9894L18.6227 43.0379C19.2586 42.402 19.467 41.501 19.2495 40.6914C19.6596 40.8013 20.0334 41.0176 20.3332 41.3182C21.2795 42.2642 21.2795 43.7999 20.3333 44.7472Z"
                                        fill="#D78878" />
                                    <path
                                        d="M21.5173 50.3941L24.5699 47.3415C25.4892 46.4222 25.4892 44.9317 24.5699 44.0122L24.4698 43.9121C23.5505 42.9928 22.06 42.9928 21.1405 43.9121L18.0879 46.9647C17.1686 47.8841 17.1686 49.3745 18.0879 50.294L18.188 50.3941C19.1073 51.3134 20.598 51.3134 21.5173 50.3941Z"
                                        fill="#EB9C8D" />
                                    <path
                                        d="M24.5191 47.3904L21.5676 50.3432C21.3423 50.5684 21.0748 50.747 20.7804 50.8687C20.4859 50.9905 20.1704 51.0529 19.8518 51.0525C19.2314 51.0525 18.611 50.8157 18.1373 50.3432C17.8365 50.0437 17.6206 49.6697 17.5117 49.2594C17.9232 49.3715 18.3571 49.3727 18.7692 49.2628C19.1813 49.1529 19.557 48.936 19.8582 48.6339L22.8109 45.6811C23.4468 45.0466 23.6553 44.1455 23.4378 43.3359C23.8343 43.4415 24.2076 43.6513 24.5191 43.9615C25.4665 44.9075 25.4665 46.4431 24.5191 47.3904Z"
                                        fill="#D78878" />
                                    <path
                                        d="M26.1066 52.6324L29.1592 49.5798C30.0785 48.6605 30.0785 47.17 29.1592 46.2505L29.0591 46.1504C28.1398 45.2311 26.6493 45.2311 25.7299 46.1504L22.6773 49.203C21.758 50.1223 21.758 51.6128 22.6773 52.5323L22.7774 52.6324C23.6968 53.5517 25.1873 53.5517 26.1066 52.6324Z"
                                        fill="#EB9C8D" />
                                    <path
                                        d="M29.1089 49.6326L26.1562 52.5854C25.6825 53.0591 25.0621 53.2959 24.4416 53.2959C23.8212 53.2959 23.2008 53.0591 22.7271 52.5854C22.4263 52.2859 22.2104 51.9119 22.1016 51.5016C22.5131 51.6136 22.9469 51.6147 23.359 51.5048C23.7711 51.395 24.1468 51.178 24.448 50.8761L27.4008 47.9233C27.7023 47.6222 27.9189 47.2466 28.0286 46.8348C28.1382 46.4229 28.137 45.9894 28.0251 45.5781C28.4353 45.687 28.8093 45.9029 29.1088 46.2037C30.0562 47.1497 30.0563 48.6852 29.1089 49.6326Z"
                                        fill="#D78878" />
                                    <path
                                        d="M30.5744 54.9956L33.627 51.943C34.5463 51.0237 34.5463 49.5332 33.627 48.6138L33.5269 48.5137C32.6076 47.5944 31.1171 47.5944 30.1976 48.5137L27.1451 51.5663C26.2257 52.4856 26.2257 53.9761 27.1451 54.8955L27.2451 54.9956C28.1646 55.915 29.6551 55.915 30.5744 54.9956Z"
                                        fill="#EB9C8D" />
                                    <path
                                        d="M33.5771 51.9958L30.6243 54.9485C30.1506 55.4222 29.5302 55.6578 28.9098 55.6578C28.2894 55.6578 27.6689 55.4222 27.1952 54.9485C26.881 54.6349 26.6592 54.2408 26.5542 53.8094C26.7429 53.8557 26.9366 53.879 27.1309 53.8789C27.7513 53.8789 28.3717 53.6421 28.8454 53.1684L31.7982 50.2169C32.4198 49.5952 32.6335 48.7211 32.4392 47.9258C32.8699 48.0309 33.2634 48.2521 33.5771 48.5654C34.5244 49.5129 34.5244 51.0485 33.5771 51.9958Z"
                                        fill="#D78878" />
                                    <path
                                        d="M54.7409 28.2475L50.8839 20.6196L44.0441 17.5508L40.0119 21.583C39.7321 21.8628 39.3805 22.06 38.9958 22.1528C38.6111 22.2456 38.2083 22.2305 37.8317 22.1091L35.4861 21.353L35.4513 21.3419C33.815 20.8254 32.0261 21.2632 30.7721 22.4345L24.6009 28.1833C23.5522 29.1602 23.5229 30.8122 24.5363 31.8257C25.4981 32.7875 27.0481 32.8174 28.0463 31.8932L30.8993 29.2517C30.8993 29.2517 32.9481 30.6501 34.7085 29.9617L46.1829 41.4365L48.4571 39.1621C48.9556 38.6636 49.3426 38.0651 49.5926 37.406C49.8427 36.7469 49.95 36.0423 49.9076 35.3386C49.8673 34.6691 49.9694 33.9987 50.2073 33.3716C50.4452 32.7444 50.8134 32.1749 51.2877 31.7006L54.7409 28.2475Z"
                                        fill="#EB9C8D" />
                                    <path
                                        d="M51.2881 31.701C50.8136 32.175 50.4451 32.7444 50.207 33.3715C49.9689 33.9985 49.8667 34.669 49.9069 35.3385C49.9496 36.0422 49.8425 36.7469 49.5927 37.4061C49.3428 38.0654 48.9559 38.6641 48.4575 39.1627L46.1832 41.437L44.4263 39.6801L46.2372 37.9426C47.2527 36.9271 47.5165 36.2925 47.4301 34.8599C47.3478 33.4955 47.768 31.3191 48.7347 30.3524L52.7718 26.3164L54.74 28.2475L51.2881 31.701Z"
                                        fill="#D78878" />
                                    <path
                                        d="M63.746 21.7154L56.5392 28.9222C56.4586 29.0028 56.363 29.0667 56.2578 29.1103C56.1525 29.1539 56.0397 29.1763 55.9258 29.1763C55.8119 29.1763 55.6991 29.1539 55.5939 29.1103C55.4886 29.0667 55.393 29.0028 55.3125 28.9222L43.3942 17.004C43.3137 16.9235 43.2498 16.8279 43.2062 16.7226C43.1626 16.6174 43.1401 16.5046 43.1401 16.3907C43.1401 16.2768 43.1626 16.164 43.2062 16.0587C43.2498 15.9535 43.3137 15.8579 43.3942 15.7773L50.601 8.5705C50.6816 8.48994 50.7772 8.42604 50.8825 8.38244C50.9877 8.33885 51.1005 8.31641 51.2144 8.31641C51.3283 8.31641 51.4411 8.33885 51.5464 8.38244C51.6516 8.42604 51.7472 8.48994 51.8278 8.5705L63.746 20.4887C63.8265 20.5693 63.8904 20.6649 63.934 20.7701C63.9776 20.8754 64.0001 20.9882 64.0001 21.1021C64.0001 21.216 63.9776 21.3288 63.934 21.434C63.8904 21.5393 63.8265 21.6349 63.746 21.7154Z"
                                        fill="#7ACAA6" />
                                    <path
                                        d="M63.7272 21.7345L56.5577 28.9052C56.39 29.0727 56.1627 29.1668 55.9257 29.1668C55.6887 29.1668 55.4614 29.0727 55.2938 28.9052L53.2412 26.8514C53.3241 26.9343 53.4225 27.0001 53.5308 27.045C53.6392 27.0899 53.7553 27.1131 53.8726 27.1131C53.9898 27.1131 54.1059 27.0899 54.2143 27.045C54.3226 27.0001 54.421 26.9343 54.5039 26.8514L61.6746 19.6819C61.8421 19.5142 61.9362 19.2869 61.9362 19.0499C61.9362 18.8129 61.8421 18.5856 61.6746 18.418L63.7272 20.4704C64.0761 20.8207 64.0761 21.3856 63.7272 21.7345Z"
                                        fill="#57BE92" />
                                    <path
                                        d="M0.254095 21.7154L7.46091 28.9222C7.54145 29.0028 7.63707 29.0667 7.74231 29.1103C7.84755 29.1539 7.96035 29.1763 8.07427 29.1763C8.18818 29.1763 8.30098 29.1539 8.40622 29.1103C8.51146 29.0667 8.60708 29.0028 8.68762 28.9222L20.6058 17.004C20.6864 16.9235 20.7503 16.8279 20.7939 16.7226C20.8375 16.6174 20.8599 16.5046 20.8599 16.3907C20.8599 16.2768 20.8375 16.164 20.7939 16.0587C20.7503 15.9535 20.6864 15.8579 20.6058 15.7773L13.399 8.5705C13.3185 8.48994 13.2229 8.42604 13.1176 8.38244C13.0124 8.33885 12.8996 8.31641 12.7857 8.31641C12.6718 8.31641 12.559 8.33885 12.4537 8.38244C12.3485 8.42604 12.2529 8.48994 12.1723 8.5705L0.254095 20.4887C0.173538 20.5693 0.109636 20.6649 0.0660377 20.7701C0.0224397 20.8754 0 20.9882 0 21.1021C0 21.216 0.0224397 21.3288 0.0660377 21.434C0.109636 21.5393 0.173538 21.6349 0.254095 21.7154Z"
                                        fill="#528FD8" />
                                    <path
                                        d="M20.5868 17.0232L18.7411 18.8688C19.0899 18.5199 19.0899 17.9549 18.7411 17.6049L11.5716 10.4354C11.4039 10.2679 11.1766 10.1738 10.9396 10.1738C10.7026 10.1738 10.4753 10.2679 10.3076 10.4354L12.1532 8.58979C12.5034 8.2409 13.0684 8.2409 13.4172 8.58979L20.5866 15.7592C20.6699 15.8421 20.7359 15.9406 20.781 16.049C20.8261 16.1575 20.8493 16.2737 20.8493 16.3912C20.8493 16.5086 20.8262 16.6249 20.7811 16.7334C20.736 16.8418 20.67 16.9403 20.5868 17.0232Z"
                                        fill="#0573CE" />
                                </g>
                                <defs>
                                    <clipPath id="clip0_4279_1847">
                                        <rect width="64" height="64" fill="white" />
                                    </clipPath>
                                </defs>
                            </svg>