 <svg xmlns="http://www.w3.org/2000/svg" width="64" height="64" viewBox="0 0 64 64"
                                fill="none">
                                <path
                                    d="M59.8408 34.1318L21.0605 55.4749C20.0395 56.0366 18.8371 56.1697 17.7179 55.8449C16.5987 55.5201 15.6544 54.7641 15.0925 53.7431L3.27419 32.2711C2.7128 31.2501 2.57987 30.048 2.90461 28.929C3.22936 27.8101 3.98521 26.8659 5.00596 26.3041L43.7853 4.95818C44.8063 4.39649 46.0087 4.26339 47.1279 4.58816C48.2471 4.91292 49.1914 5.66895 49.7533 6.68995L61.5716 28.1629C62.133 29.1839 62.2659 30.386 61.9412 31.505C61.6164 32.6239 60.8606 33.5681 59.8398 34.1299L59.8408 34.1318Z"
                                    fill="#FEBC1F" />
                                <path
                                    d="M58.9948 32.5928L20.2136 53.9358C19.1926 54.4975 17.9902 54.6306 16.871 54.3059C15.7518 53.9811 14.8074 53.2251 14.2456 52.2041L2.42727 30.7321C1.86588 29.7111 1.73294 28.5089 2.05769 27.39C2.38244 26.271 3.13829 25.3268 4.15903 24.765L42.9393 3.41912C43.9603 2.85743 45.1627 2.72433 46.2819 3.04909C47.4011 3.37386 48.3455 4.12989 48.9073 5.15089L60.7256 26.6238C61.287 27.6448 61.4199 28.8469 61.0952 29.9659C60.7704 31.0849 60.0146 32.0291 58.9939 32.5909L58.9948 32.5928Z"
                                    fill="#FFD475" />
                                <path
                                    d="M42.9392 3.42184L4.15894 24.7649C3.13794 25.3267 2.38191 26.2711 2.05715 27.3903C1.73239 28.5095 1.86549 29.7118 2.42718 30.7329L14.2455 52.2068C14.2455 52.2068 3.23376 31.147 46.8601 3.26937C46.2397 2.98831 45.5623 2.85575 44.8816 2.88222C44.201 2.90868 43.5359 3.09345 42.9392 3.42184Z"
                                    fill="#FEBC1F" />
                                <path
                                    d="M5.90111 33.363L7.38535 36.0594C7.56505 36.3857 7.86695 36.6273 8.22468 36.731C8.58241 36.8348 8.96671 36.7923 9.29311 36.6129L50.2042 14.0971C50.5304 13.9174 50.772 13.6155 50.8758 13.2578C50.9795 12.9 50.937 12.5157 50.7576 12.1893L49.2733 9.49285C49.0936 9.16659 48.7917 8.92503 48.434 8.82126C48.0763 8.71749 47.692 8.76 47.3656 8.93944L6.45452 31.4552C6.12826 31.6349 5.8867 31.9368 5.78293 32.2945C5.67916 32.6523 5.72167 33.0366 5.90111 33.363Z"
                                    fill="#1D2943" />
                                <path
                                    d="M5.4897 32.6169L6.97393 35.3133C7.15364 35.6396 7.45554 35.8812 7.81327 35.9849C8.171 36.0887 8.55529 36.0462 8.8817 35.8668L49.7928 13.351C50.119 13.1713 50.3606 12.8694 50.4643 12.5117C50.5681 12.1539 50.5256 11.7696 50.3462 11.4432L48.8619 8.74676C48.6822 8.4205 48.3803 8.17894 48.0226 8.07517C47.6649 7.9714 47.2806 8.0139 46.9542 8.19335L6.04217 30.7101C5.71591 30.8898 5.47435 31.1917 5.37058 31.5494C5.26681 31.9071 5.30931 32.2914 5.48876 32.6178L5.4897 32.6169Z"
                                    fill="#4C5C75" />
                                <path
                                    d="M52.829 61.126H8.56452C7.39923 61.126 6.28165 60.6632 5.45757 59.8393C4.6335 59.0154 4.17042 57.8979 4.17017 56.7326V32.2215C4.17042 31.0562 4.6335 29.9388 5.45757 29.1149C6.28165 28.291 7.39923 27.8281 8.56452 27.8281H52.828C53.9933 27.8281 55.1109 28.291 55.935 29.1149C56.7591 29.9388 57.2222 31.0562 57.2224 32.2215V56.7326C57.2222 57.8979 56.7591 59.0154 55.935 59.8393C55.1109 60.6632 53.9943 61.126 52.829 61.126Z"
                                    fill="#5094FF" />
                                <path
                                    d="M8.56358 59.3691H52.828C53.4052 59.3693 53.9767 59.2557 54.51 59.0349C55.0432 58.8141 55.5278 58.4905 55.9359 58.0824C56.3441 57.6743 56.6679 57.1899 56.8888 56.6566C57.1096 56.1234 57.2233 55.5519 57.2233 54.9748V30.4647C57.2233 29.2992 56.7604 28.1815 55.9363 27.3574C55.1122 26.5333 53.9944 26.0703 52.829 26.0703H8.56452C7.98744 26.0703 7.41602 26.184 6.88287 26.4048C6.34973 26.6257 5.8653 26.9493 5.45724 27.3574C5.04919 27.7654 4.7255 28.2499 4.50467 28.783C4.28383 29.3162 4.17017 29.8876 4.17017 30.4647V54.9748C4.17004 55.5519 4.28361 56.1235 4.5044 56.6567C4.72518 57.19 5.04884 57.6745 5.45691 58.0827C5.86497 58.4908 6.34945 58.8146 6.88266 59.0355C7.41586 59.2564 7.98737 59.3701 8.56452 59.3701L8.56358 59.3691Z"
                                    fill="#57B3FE" />
                                <path
                                    d="M8.5636 26.0713H52.8281C53.9934 26.0713 55.1109 26.5341 55.935 27.358C56.7591 28.1819 57.2222 29.2994 57.2224 30.4647V54.9748C57.2224 54.9748 56.717 31.2157 5.05396 27.8275C5.46199 27.282 5.99156 26.8392 6.60063 26.5342C7.20969 26.2292 7.88148 26.0703 8.56266 26.0703L8.5636 26.0713Z"
                                    fill="#5094FF" />
                                <path
                                    d="M53.7806 51.4834V52.1648H53.7712C53.7891 53.0872 53.0202 53.8618 52.0922 53.8618H47.6338C46.7237 53.8618 45.9369 53.1013 45.9557 52.1648H45.9463V51.4834H46.0555C46.319 50.8208 47.0352 50.3672 47.7882 50.3672H51.9388C52.6917 50.3672 53.4079 50.8208 53.6715 51.4834H53.7806Z"
                                    fill="#E3E7F0" />
                                <path
                                    d="M52.0873 53.1829H47.7777C46.9099 53.1829 46.0892 52.5938 45.9668 51.7335C45.9316 51.4923 45.9487 51.2464 46.0169 51.0123C46.0851 50.7783 46.2029 50.5617 46.3623 50.3772C46.5217 50.1928 46.7189 50.0448 46.9405 49.9433C47.1622 49.8418 47.4031 49.7892 47.6468 49.7891H51.9395C52.86 49.7891 53.7184 50.4573 53.7739 51.3759C53.7898 51.6071 53.7579 51.8392 53.6803 52.0576C53.6028 52.276 53.4811 52.4762 53.323 52.6457C53.1648 52.8151 52.9735 52.9502 52.761 53.0427C52.5484 53.1351 52.3191 53.1828 52.0873 53.1829Z"
                                    fill="white" />
                                <path
                                    d="M41.0023 51.4834V52.1648H40.9929C41.0117 53.0872 40.2418 53.8618 39.3148 53.8618H34.8564C33.9454 53.8618 33.1595 53.1013 33.1774 52.1648H33.168V51.4834H33.2771C33.5407 50.8208 34.2579 50.3672 35.0108 50.3672H39.1604C39.9134 50.3672 40.6306 50.8208 40.8941 51.4834H41.0023Z"
                                    fill="#E3E7F0" />
                                <path
                                    d="M39.31 53.1829H34.9994C34.1316 53.1829 33.3109 52.5938 33.1895 51.7335C33.1542 51.4924 33.1713 51.2465 33.2395 51.0126C33.3077 50.7786 33.4254 50.562 33.5847 50.3776C33.7439 50.1932 33.941 50.0451 34.1625 49.9436C34.3841 49.842 34.6249 49.7893 34.8685 49.7891H39.1613C40.0827 49.7891 40.9401 50.4573 40.9965 51.3759C41.0124 51.6071 40.9806 51.8392 40.903 52.0576C40.8254 52.276 40.7038 52.4762 40.5456 52.6457C40.3875 52.8151 40.1962 52.9502 39.9836 53.0427C39.771 53.1351 39.5417 53.1828 39.31 53.1829Z"
                                    fill="white" />
                                <path
                                    d="M28.2249 51.4834V52.1648H28.2155C28.2334 53.0872 27.4645 53.8618 26.5365 53.8618H22.0781C21.1671 53.8618 20.3812 53.1013 20.3991 52.1648H20.3896V51.4834H20.4998C20.7633 50.8208 21.4795 50.3672 22.2325 50.3672H26.3831C27.136 50.3672 27.8522 50.8208 28.1158 51.4834H28.2249Z"
                                    fill="#E3E7F0" />
                                <path
                                    d="M26.5316 53.1829H22.222C21.3542 53.1829 20.5335 52.5938 20.4112 51.7335C20.3759 51.4923 20.393 51.2464 20.4612 51.0123C20.5295 50.7783 20.6473 50.5617 20.8066 50.3772C20.966 50.1928 21.1632 50.0448 21.3849 49.9433C21.6065 49.8418 21.8474 49.7892 22.0912 49.7891H26.3829C27.3053 49.7891 28.1618 50.4573 28.2182 51.3759C28.2341 51.6071 28.2023 51.8392 28.1247 52.0576C28.0471 52.276 27.9255 52.4762 27.7673 52.6457C27.6092 52.8151 27.4179 52.9502 27.2053 53.0427C26.9927 53.1351 26.7634 53.1828 26.5316 53.1829Z"
                                    fill="white" />
                                <path
                                    d="M15.4464 51.4834V52.1648H15.437C15.4558 53.0872 14.6859 53.8618 13.7589 53.8618H9.30053C8.38947 53.8618 7.60359 53.1013 7.62147 52.1648H7.61206V51.4834H7.72124C7.98477 50.8208 8.701 50.3672 9.45488 50.3672H13.6045C14.3575 50.3672 15.0746 50.8208 15.3372 51.4834H15.4464Z"
                                    fill="#E3E7F0" />
                                <path
                                    d="M13.7543 53.1829H9.4437C8.57594 53.1829 7.75523 52.5938 7.63382 51.7335C7.59858 51.4924 7.61564 51.2465 7.68382 51.0126C7.75201 50.7786 7.86973 50.562 8.029 50.3776C8.18827 50.1932 8.38535 50.0451 8.60688 49.9436C8.82841 49.842 9.06919 49.7893 9.31288 49.7891H13.6056C14.527 49.7891 15.3844 50.4573 15.4409 51.3759C15.4567 51.6071 15.4249 51.8392 15.3473 52.0576C15.2698 52.276 15.1481 52.4762 14.99 52.6457C14.8318 52.8151 14.6405 52.9502 14.428 53.0427C14.2154 53.1351 13.9861 53.1828 13.7543 53.1829Z"
                                    fill="white" />
                                <path
                                    d="M7.61597 33.8134V37.9132C7.61597 38.9466 8.45361 39.7842 9.48703 39.7842H17.1651C18.1986 39.7842 19.0362 38.9466 19.0362 37.9132V33.8134C19.0362 32.78 18.1986 31.9414 17.1651 31.9414H9.48703C8.45361 31.9414 7.61597 32.7791 7.61597 33.8134Z"
                                    fill="#FEBC1F" />
                                <path
                                    d="M7.61597 33.1728V37.2725C7.61597 38.306 8.45361 39.1445 9.48703 39.1445H17.1651C18.1986 39.1445 19.0362 38.3069 19.0362 37.2725V33.1728C19.0362 32.1394 18.1986 31.3008 17.1651 31.3008H9.48703C8.45361 31.3008 7.61597 32.1384 7.61597 33.1728Z"
                                    fill="#FFD475" />
                                <path
                                    d="M13.1275 34.7803V31.3008H12.2381V34.7803H7.61694V35.6688H10.1449V39.1445H11.0334V35.6688H15.0362V39.1445H15.9247V35.6688H19.0362V34.7803H13.1275Z"
                                    fill="#FEBC1F" />
                                <path
                                    d="M52.9693 37.8497H47.9641C47.5472 37.8497 47.1538 37.5674 47.0945 37.1542C47.0775 37.0383 47.0856 36.9201 47.1183 36.8077C47.151 36.6952 47.2076 36.5911 47.2841 36.5025C47.3606 36.4138 47.4553 36.3426 47.5618 36.2938C47.6682 36.245 47.784 36.2197 47.9011 36.2196H52.8987C53.3401 36.2196 53.7514 36.5406 53.7787 36.982C53.7863 37.093 53.771 37.2044 53.7338 37.3092C53.6966 37.4141 53.6382 37.5102 53.5624 37.5915C53.4865 37.6729 53.3947 37.7378 53.2926 37.7822C53.1906 37.8266 53.0806 37.8496 52.9693 37.8497ZM52.9693 34.3608H44.1825C43.7655 34.3608 43.3721 34.0784 43.3128 33.6643C43.296 33.5485 43.3042 33.4304 43.337 33.3181C43.3698 33.2058 43.4263 33.1018 43.5028 33.0132C43.5793 32.9247 43.674 32.8536 43.7804 32.8048C43.8868 32.7561 44.0024 32.7308 44.1194 32.7307H52.8978C53.3401 32.7307 53.7514 33.0507 53.7787 33.493C53.7863 33.604 53.771 33.7154 53.7338 33.8203C53.6966 33.9251 53.6382 34.0212 53.5624 34.1026C53.4865 34.1839 53.3947 34.2488 53.2926 34.2933C53.1906 34.3377 53.0806 34.3607 52.9693 34.3608ZM51.6328 15.3594C53.7203 18.0322 55.4398 20.9729 56.7453 24.1029C54.6581 21.4301 52.938 18.4894 51.6328 15.3594ZM12.6531 24.1001C15.6911 21.7717 18.9949 19.8122 22.495 18.2629C19.4569 20.5913 16.1532 22.5507 12.6531 24.1001ZM37.8277 57.1617C41.6282 56.709 45.469 56.709 49.2695 57.1617C45.4578 57.6163 41.6394 57.6135 37.8277 57.1617Z"
                                    fill="white" />
                            </svg>