 <svg xmlns="http://www.w3.org/2000/svg" width="64" height="64" viewBox="0 0 64 64"
                                    fill="none">
                                    <path fill-rule="evenodd" clip-rule="evenodd"
                                        d="M7.09459 44.8592L18.8146 38.069C21.0142 36.7947 23.2508 35.8912 25.6685 36.6754C28.364 37.5495 32.7655 39.4265 37.2543 40.2362C38.9205 40.7764 39.9592 42.4447 39.506 44.1363C39.0526 45.8282 37.623 46.7004 35.6058 46.3884L37.175 46.6395C38.9731 46.9272 40.6243 46.681 42.1982 45.7645L53.4663 39.2014C62.2253 34.1002 63.512 41.9482 60.5997 43.7412L40.1505 56.3328C38.2697 57.4907 36.2118 57.7608 34.0783 57.1889L19.2461 53.2148L13.7532 56.3862C12.6971 56.9959 11.3383 56.6318 10.7286 55.5758L6.28684 47.8823C5.67772 46.827 6.04034 45.4699 7.09459 44.8592Z"
                                        fill="#F6DCCD" />
                                    <path fill-rule="evenodd" clip-rule="evenodd"
                                        d="M7.09456 44.8592L18.8146 38.069C21.0142 36.7947 23.2508 35.8912 25.6684 36.6754C27.1104 37.143 29.0411 37.8977 31.2119 38.6225L8.50856 51.7303L6.28693 47.8822C5.67768 46.827 6.04031 45.4699 7.09456 44.8592Z"
                                        fill="#F1CBBC" />
                                    <path fill-rule="evenodd" clip-rule="evenodd"
                                        d="M8.26317 41.161L17.558 57.5844C18.0074 58.3785 17.7254 59.3959 16.9313 59.8454L13.7697 61.6346C12.9755 62.0841 11.958 61.802 11.5087 61.008L2.21392 44.5845C1.76455 43.7904 2.04655 42.773 2.84067 42.3235L6.00217 40.5342C6.7963 40.0849 7.8138 40.3669 8.26317 41.161Z"
                                        fill="#D1D1D6" />
                                    <path fill-rule="evenodd" clip-rule="evenodd"
                                        d="M13.1517 52.4447L14.7968 55.3516L16.4237 58.2261C16.8722 59.0186 16.5923 60.0334 15.8018 60.4843L16.9312 59.8452C17.7253 59.3958 18.0073 58.3783 17.5578 57.5842L15.9254 54.6999L12.6477 48.9086L9.36632 43.1106L8.26282 41.1608C7.87357 40.4729 7.05782 40.1694 6.33057 40.3927L8.24107 43.7684L11.5188 49.5599L13.1512 52.4442L13.1517 52.4447Z"
                                        fill="#B1B1B5" />
                                    <path fill-rule="evenodd" clip-rule="evenodd"
                                        d="M59.4067 24.3658C60.8327 24.3657 61.9996 23.199 61.9996 21.7729V19.8693C61.9996 18.4432 60.8327 17.2764 59.4067 17.2764C60.8329 17.2764 61.9996 16.1097 61.9996 14.6835V12.7799C61.9996 11.3538 60.8327 10.187 59.4067 10.187C60.8329 10.187 61.9996 9.02028 61.9996 7.59416V5.69053C61.9996 4.26441 60.8327 3.09766 59.4067 3.09766H43.1095C41.6835 3.09766 40.5166 4.26441 40.5166 5.69053V7.59416C40.5166 9.02028 41.6835 10.187 43.1095 10.187C41.6835 10.187 40.5166 11.3538 40.5166 12.7799V14.6835C40.5166 16.1097 41.6835 17.2764 43.1095 17.2764C41.6835 17.2764 40.5166 18.4432 40.5166 19.8693V21.7729C40.5166 23.199 41.6835 24.3657 43.1096 24.3658C41.6835 24.3658 40.5166 25.5325 40.5166 26.9587V28.8623C40.5166 30.2885 41.6835 31.4552 43.1096 31.4552H59.4067C60.8327 31.4552 61.9996 30.2884 61.9996 28.8623V26.9587C61.9996 25.5325 60.8327 24.3658 59.4067 24.3658Z"
                                        fill="#FFE177" />
                                    <path fill-rule="evenodd" clip-rule="evenodd"
                                        d="M56.9873 3.09766H59.4068C60.8328 3.09766 61.9997 4.26441 61.9997 5.69053V7.59416C61.9997 9.02028 60.8328 10.187 59.4068 10.187C60.8328 10.187 61.9997 11.3538 61.9997 12.7799V14.6835C61.9997 16.1097 60.8328 17.2764 59.4068 17.2764C60.8328 17.2764 61.9997 18.4432 61.9997 19.8693V21.7729C61.9997 23.199 60.8328 24.3657 59.4068 24.3658C60.8329 24.3658 61.9997 25.5325 61.9997 26.9587V28.8623C61.9997 30.2885 60.8328 31.4552 59.4068 31.4552H56.9873C58.4134 31.4552 59.5802 30.2884 59.5802 28.8623V26.9587C59.5802 25.5325 58.4133 24.3658 56.9873 24.3658C58.4134 24.3657 59.5802 23.199 59.5802 21.7729V19.8693C59.5802 18.4432 58.4133 17.2764 56.9873 17.2764C58.4134 17.2764 59.5802 16.1097 59.5802 14.6835V12.7799C59.5802 11.3538 58.4133 10.187 56.9873 10.187C58.4134 10.187 59.5802 9.02028 59.5802 7.59416V5.69053C59.5802 4.26441 58.4133 3.09766 56.9873 3.09766Z"
                                        fill="#FFD064" />
                                    <path fill-rule="evenodd" clip-rule="evenodd"
                                        d="M43.1095 24.3628H59.4066C60.8327 24.3628 61.9995 23.1961 61.9995 21.7699V19.8663C61.9995 18.4402 60.8326 17.2734 59.4066 17.2734H43.1095C41.6833 17.2734 40.5166 18.4402 40.5166 19.8663V21.7699C40.5166 23.1961 41.6833 24.3628 43.1095 24.3628Z"
                                        fill="#FFD064" />
                                    <path fill-rule="evenodd" clip-rule="evenodd"
                                        d="M59.4068 24.3627H56.9873C58.4134 24.3627 59.5802 23.1959 59.5802 21.7699V19.8663C59.5802 18.4402 58.4133 17.2734 56.9873 17.2734H59.4068C60.8328 17.2734 61.9997 18.4402 61.9997 19.8663V21.7699C61.9997 23.1959 60.8328 24.3627 59.4068 24.3627Z"
                                        fill="#FFC338" />
                                    <path fill-rule="evenodd" clip-rule="evenodd"
                                        d="M43.1095 10.187H59.4066C60.8327 10.187 61.9995 9.02028 61.9995 7.59416V5.69053C61.9995 4.26441 60.8326 3.09766 59.4066 3.09766H43.1095C41.6833 3.09766 40.5166 4.26441 40.5166 5.69053V7.59416C40.5166 9.02028 41.6833 10.187 43.1095 10.187Z"
                                        fill="#FFD064" />
                                    <path fill-rule="evenodd" clip-rule="evenodd"
                                        d="M59.4068 10.187H56.9873C58.4134 10.187 59.5802 9.02028 59.5802 7.59416V5.69053C59.5802 4.26441 58.4133 3.09766 56.9873 3.09766H59.4068C60.8328 3.09766 61.9997 4.26441 61.9997 5.69053V7.59416C61.9997 9.02028 60.8328 10.187 59.4068 10.187Z"
                                        fill="#FFC338" />
                                    <path
                                        d="M49.718 34.1555C53.9115 29.962 53.9115 23.163 49.718 18.9695C45.5245 14.776 38.7255 14.776 34.532 18.9695C30.3385 23.163 30.3385 29.962 34.532 34.1555C38.7255 38.349 45.5245 38.349 49.718 34.1555Z"
                                        fill="#FFC338" />
                                    <path fill-rule="evenodd" clip-rule="evenodd"
                                        d="M42.1321 15.8242C48.0626 15.8242 52.8703 20.6318 52.8703 26.5623C52.8703 32.4928 48.0626 37.3005 42.1321 37.3005C41.8253 37.3003 41.5186 37.287 41.2129 37.2608C46.7129 36.7943 51.0316 32.1831 51.0316 26.5623C51.0316 20.9416 46.7129 16.3302 41.2129 15.8638C41.5186 15.8376 41.8253 15.8244 42.1321 15.8242Z"
                                        fill="#F5B829" />
                                    <path fill-rule="evenodd" clip-rule="evenodd"
                                        d="M28.0301 9.72172V22.3393C28.0301 22.5458 27.8616 22.7143 27.6551 22.7143H24.356C24.1495 22.7143 23.981 22.5458 23.981 22.3393V9.72172C23.981 9.51522 23.8125 9.34672 23.606 9.34672H21.7519C21.684 9.34763 21.6172 9.32967 21.5588 9.29485C21.5005 9.26002 21.453 9.20969 21.4216 9.14947C21.3887 9.0901 21.3728 9.02275 21.3759 8.9549C21.3789 8.88706 21.4007 8.82139 21.4389 8.76522L25.6926 2.32072C25.7641 2.21234 25.8758 2.15234 26.0056 2.15234C26.1355 2.15234 26.2471 2.21234 26.3185 2.32072L30.5723 8.76522C30.6503 8.88347 30.6566 9.02484 30.5895 9.14947C30.5581 9.2097 30.5106 9.26004 30.4523 9.29487C30.394 9.32969 30.3272 9.34764 30.2593 9.34672H28.4051C28.1985 9.34672 28.0301 9.51522 28.0301 9.72172Z"
                                        fill="#8AC9FE" />
                                    <path fill-rule="evenodd" clip-rule="evenodd"
                                        d="M28.0298 9.72184V22.3395C28.0298 22.546 27.8613 22.7145 27.6548 22.7145H26.8133C27.0198 22.7145 27.1883 22.546 27.1883 22.3395V9.72184C27.1883 9.51534 27.3568 9.34684 27.5633 9.34684H28.4048C28.1982 9.34684 28.0298 9.51534 28.0298 9.72184ZM25.5845 2.48409L29.7305 8.76522C29.8085 8.88347 29.8148 9.02484 29.7477 9.14947C29.7163 9.2097 29.6688 9.26004 29.6105 9.29487C29.5522 9.32969 29.4854 9.34764 29.4175 9.34672H30.259C30.3269 9.34763 30.3937 9.32967 30.452 9.29485C30.5103 9.26002 30.5578 9.20969 30.5892 9.14947C30.6222 9.0901 30.6381 9.02275 30.635 8.9549C30.632 8.88706 30.6101 8.82139 30.572 8.76522L26.3182 2.32072C26.2467 2.21234 26.1351 2.15234 26.0053 2.15234C25.8756 2.15234 25.7638 2.21234 25.6923 2.32072L25.5845 2.48409Z"
                                        fill="#60B7FF" />
                                    <path fill-rule="evenodd" clip-rule="evenodd"
                                        d="M26.0084 3.81525L29.0973 8.49975H28.0324C27.9011 8.49968 27.771 8.52551 27.6496 8.57576C27.5282 8.626 27.4179 8.69968 27.325 8.79257C27.2321 8.88547 27.1584 8.99576 27.1082 9.11714C27.058 9.23853 27.0321 9.36863 27.0322 9.5V21.8679H24.9788V9.5C24.9789 9.36863 24.9531 9.23853 24.9028 9.11714C24.8526 8.99576 24.7789 8.88547 24.686 8.79257C24.5931 8.69968 24.4828 8.626 24.3614 8.57576C24.24 8.52551 24.1099 8.49968 23.9786 8.49975H22.9137L26.0084 3.81525ZM21.0544 10.5002H22.9843V22.8675C22.9843 23.42 23.4314 23.8678 23.9787 23.8678H28.0326C28.1639 23.8678 28.294 23.842 28.4154 23.7917C28.5368 23.7415 28.6471 23.6678 28.74 23.5749C28.8329 23.482 28.9065 23.3717 28.9568 23.2503C29.007 23.129 29.0329 22.9989 29.0328 22.8675V10.5002H30.9567C31.3214 10.5002 31.6627 10.2979 31.8392 9.97425C31.9231 9.81463 31.9629 9.63555 31.9547 9.45542C31.9464 9.27529 31.8903 9.10062 31.7921 8.94938L26.8381 1.44888C26.6557 1.16888 26.3438 1 26.0084 1C25.6731 1 25.3553 1.16888 25.1729 1.44888L20.2189 8.94938C20.1203 9.10061 20.0644 9.27571 20.0571 9.45613C20.0499 9.63655 20.0915 9.81557 20.1777 9.97425C20.3484 10.2979 20.6897 10.5002 21.0544 10.5002ZM46.5541 29.1095C46.6658 30.0268 46.4187 30.8651 45.8363 31.5354C45.2244 32.2414 44.2478 32.7326 43.1298 32.9156V33.5127C43.1298 34.0653 42.6827 34.5124 42.1354 34.5124C42.0041 34.5125 41.874 34.4867 41.7527 34.4366C41.6313 34.3864 41.521 34.3128 41.4281 34.2199C41.3352 34.1271 41.2615 34.0168 41.2112 33.8955C41.161 33.7742 41.1351 33.6441 41.1352 33.5127V32.8996C39.4231 32.5736 38.1111 31.437 37.7168 29.8466C37.5814 29.3106 37.9109 28.7681 38.4463 28.6346C38.9817 28.5011 39.5231 28.827 39.6583 29.363C39.9643 30.6045 41.2469 31.0151 42.2471 30.9934C43.1237 30.9728 43.9416 30.6715 44.3239 30.2268C44.5357 29.9855 44.6122 29.7066 44.5652 29.3501C44.4946 28.7506 44.1357 28.0169 41.9823 27.6632C38.8404 27.1479 38.1051 25.5158 38.0462 24.2373C37.9579 22.4686 39.1876 20.9889 41.0998 20.5553C41.1116 20.5529 41.1233 20.55 41.1351 20.5476V19.9181C41.135 19.7868 41.1608 19.6567 41.2111 19.5353C41.2613 19.4139 41.335 19.3036 41.4279 19.2107C41.5208 19.1178 41.6311 19.0441 41.7525 18.9939C41.8739 18.9436 42.0039 18.9178 42.1353 18.9179C42.6826 18.9179 43.1297 19.3656 43.1297 19.9181V20.5389C44.3888 20.7984 45.5949 21.5803 46.2186 23.0654C46.4303 23.5743 46.1892 24.1609 45.6831 24.3745C45.4381 24.4771 45.1625 24.4785 44.9165 24.3782C44.6706 24.2779 44.4744 24.0843 44.3711 23.8396C43.8474 22.5929 42.5707 22.2716 41.5411 22.5059C40.7879 22.6771 39.9996 23.196 40.0467 24.1404C40.0584 24.4651 40.0997 25.3283 42.3059 25.6901C44.9007 26.1159 46.3304 27.2661 46.5541 29.1095ZM43.1121 9.33937C42.2296 9.33937 41.5176 8.62512 41.5176 7.74662V5.84275C41.5176 4.96437 42.2294 4.25013 43.1121 4.25013H59.4097C60.2863 4.25013 60.9983 4.96437 60.9983 5.84275V7.74662C60.9983 8.625 60.2864 9.33937 59.4097 9.33937H43.1121ZM60.9983 12.9325V14.8359C60.9983 15.7142 60.2864 16.4291 59.4097 16.4291H47.7896C46.1127 15.5019 44.1829 14.9735 42.1354 14.9735C41.9296 14.9735 41.7294 14.9789 41.5294 14.9894C41.5236 14.9381 41.5177 14.8876 41.5177 14.8357V12.9324C41.5177 12.054 42.2296 11.3391 43.1122 11.3391H59.4098C60.2863 11.3392 60.9983 12.0541 60.9983 12.9325ZM60.9983 20.0216V21.9255C60.9983 22.8034 60.2864 23.5181 59.4097 23.5181H53.4319C52.8851 21.5949 51.8564 19.8431 50.4431 18.4288H59.4097C60.2863 18.429 60.9983 19.1433 60.9983 20.0216ZM60.9983 27.1108V29.0148C60.9983 29.8931 60.2864 30.6075 59.4097 30.6075H53.2084C53.6492 29.3573 53.8741 28.0412 53.8733 26.7155C53.8733 26.3113 53.8557 25.9118 53.8144 25.5181H59.4097C60.2863 25.5181 60.9983 26.233 60.9983 27.1108ZM42.1354 36.4569C47.5013 36.4569 51.8728 32.0871 51.8728 26.7154C51.8728 21.3436 47.5013 16.9733 42.1354 16.9733C36.7637 16.9733 32.3922 21.3436 32.3922 26.7154C32.3922 32.0871 36.7637 36.4569 42.1354 36.4569ZM62.9987 7.74662C62.9987 8.76512 62.5751 9.68525 61.8926 10.3395C62.5751 10.9937 62.9987 11.9139 62.9987 12.9324V14.8357C62.9987 15.8542 62.5751 16.7744 61.8926 17.4286C62.5751 18.0835 62.9987 19.0031 62.9987 20.0215V21.9254C62.9987 22.9439 62.5751 23.8634 61.8926 24.5178C62.5751 25.1726 62.9987 26.0928 62.9987 27.1106V29.0146C62.9987 30.9956 61.3866 32.6078 59.4097 32.6078H52.2847C50.2489 36.1026 46.4599 38.4572 42.1354 38.4572C35.6576 38.4572 30.3918 33.1896 30.3918 26.7154C30.3918 21.1306 34.3103 16.4444 39.5467 15.2618C39.5281 15.1205 39.5183 14.9782 39.5173 14.8357V12.9324C39.5173 11.9139 39.9468 10.9937 40.6293 10.3395C39.9468 9.68525 39.5173 8.765 39.5173 7.74662V5.84275C39.5173 3.86175 41.1294 2.24962 43.1122 2.24962H59.4098C61.3867 2.24962 62.9988 3.86175 62.9988 5.84275V7.74662H62.9987ZM7.41045 44.7262C7.50457 45.3423 7.07507 45.9159 6.45732 46.0059C5.84545 46.0959 5.26882 45.6681 5.18057 45.0521C5.08645 44.4349 5.51594 43.8625 6.1337 43.7724C6.28022 43.7507 6.42957 43.7583 6.57316 43.7946C6.71676 43.8309 6.85177 43.8952 6.97042 43.9838C7.08907 44.0725 7.18903 44.1837 7.26454 44.3111C7.34006 44.4385 7.38964 44.5796 7.41045 44.7262ZM60.0746 43.0459C61.0042 42.4734 61.2983 40.7884 60.6512 39.7087C59.7098 38.1396 57.2152 38.3326 53.9674 40.2224L42.7003 46.7861C40.9706 47.7923 39.1113 48.12 37.0167 47.7834L35.6164 47.5562C35.6047 47.5551 35.5988 47.5534 35.5929 47.5521L35.5753 47.5486C33.8219 47.1909 32.1981 46.7272 30.4801 46.236C29.6976 46.0124 28.8856 45.7812 28.0619 45.56C27.5266 45.4164 27.2088 44.8686 27.3559 44.335C27.4972 43.8014 28.0443 43.4847 28.5797 43.6271C29.4211 43.8536 30.2388 44.0872 31.0273 44.312C32.6983 44.7897 34.2751 45.2399 35.9342 45.5811C36.9108 45.6935 38.1406 45.5099 38.5407 44.0349C38.8407 42.9123 38.1818 41.775 37.0051 41.3638C33.6219 40.746 30.3683 39.5686 27.7443 38.6209C26.8323 38.2896 26.0439 38.0049 25.3556 37.7825C23.2257 37.0911 21.1899 38.0025 19.3131 39.091L10.9112 43.955L16.4888 53.8089L18.7422 52.5062C18.9721 52.374 19.2449 52.3381 19.5012 52.4062L34.3337 56.3812C36.2223 56.8872 38.0051 56.6371 39.6231 55.6399L60.0746 43.0459ZM16.7477 58.7275C16.8007 58.5575 16.7771 58.3797 16.6888 58.2274L7.39282 41.8021C7.31045 41.6509 7.1692 41.5409 6.9987 41.4939C6.93921 41.4778 6.87793 41.4693 6.81632 41.4686C6.70289 41.4687 6.59142 41.4982 6.4927 41.554L3.3332 43.3426C3.1802 43.4285 3.07432 43.5704 3.02732 43.7415C2.9802 43.9127 2.99782 44.0897 3.08607 44.241L12.3822 60.6662C12.5587 60.9775 12.9706 61.091 13.2766 60.9162L16.4419 59.1265C16.5947 59.0399 16.7007 58.8987 16.7477 58.7275ZM52.9613 38.4937C59.3568 34.7712 61.7749 37.6959 62.3633 38.6796C63.5812 40.7082 62.9869 43.6025 61.1219 44.7497L40.6704 57.3425C39.2702 58.2074 37.7757 58.641 36.2166 58.641C35.4341 58.641 34.6339 58.531 33.8161 58.3139L19.3836 54.446L17.4714 55.5486L18.4304 57.2425C18.7776 57.8585 18.8658 58.5764 18.6776 59.2624C18.4893 59.9473 18.0422 60.5174 17.4243 60.8662L14.2648 62.656C13.8665 62.8818 13.4165 63.0005 12.9587 63.0007C12.7233 63.0007 12.4821 62.9684 12.2468 62.9025C11.5584 62.7124 10.9877 62.2687 10.6406 61.651L1.34445 45.2264C0.99732 44.6097 0.90907 43.8925 1.09732 43.2071C1.28557 42.5211 1.7327 41.951 2.35057 41.6027L5.51007 39.8124C5.81351 39.64 6.14811 39.5296 6.49451 39.4874C6.84092 39.4452 7.19225 39.4721 7.5282 39.5665C8.21657 39.7566 8.78732 40.2014 9.13444 40.8174L9.92282 42.2141L18.3069 37.3601C20.4779 36.1034 23.0903 34.9444 25.9733 35.8804C26.6911 36.1128 27.5324 36.4175 28.4268 36.74C30.9921 37.669 34.1927 38.8251 37.4287 39.4087C37.4757 39.4164 37.5169 39.4276 37.5581 39.4411C39.7703 40.1577 41.0471 42.4024 40.4704 44.5527C40.3528 44.9987 40.1762 45.4012 39.9527 45.7577C40.5528 45.6189 41.1294 45.3859 41.6943 45.0576L52.9613 38.4937Z"
                                        fill="#242222" />
                                </svg>