 <svg xmlns="http://www.w3.org/2000/svg" width="64" height="64" viewBox="0 0 64 64"
                                    fill="none">
                                    <g clip-path="url(#clip0_4277_1383)">
                                        <path
                                            d="M45.9635 50.3593L56.4195 45.4202C58.7246 44.2564 61.5377 45.1095 62.8079 47.3581L41.5543 61.1061C38.7048 62.421 35.5075 62.7829 32.4361 62.1383L17.7782 58.0242C16.4291 57.6458 14.9859 57.8037 13.7507 58.4651L10.6851 60.1047L11.0982 45.1553L11.2198 45.1583C15.6003 42.0461 21.3528 41.6435 26.1239 44.1157L27.0012 44.5695C28.373 45.2804 29.8879 45.6717 31.4323 45.7139L40.0486 45.9519C42.7529 46.0258 45.1198 47.7893 45.9633 50.3593H45.9635Z"
                                            fill="#F7CAA5" />
                                        <path
                                            d="M58.2497 17.8766C58.8919 18.8074 59.2359 19.9116 59.2359 21.0425C59.2359 22.1734 58.8919 23.2776 58.2497 24.2084C57.6067 25.1415 57.2623 26.248 57.2624 27.3812C57.2624 27.4836 57.2653 27.5877 57.2717 27.6907L57.2747 27.7327C57.4037 30.0128 56.1186 32.1516 54.0007 33.1826L53.9779 33.1931C52.849 33.7361 51.9237 34.6266 51.3377 35.7338L51.3273 35.7548C50.256 37.7936 48.0323 39.0299 45.6609 38.9036L45.6195 38.9019C44.3445 38.8322 43.0795 39.1612 42.0001 39.8433C41.0146 40.4642 39.8737 40.7937 38.7089 40.7937C37.5442 40.7937 36.4032 40.4642 35.4178 39.8433C34.4356 39.2223 33.2972 38.8928 32.1352 38.8931C32.0234 38.8931 31.9099 38.8961 31.7982 38.9019L31.757 38.9037C29.3854 39.0299 27.1617 37.7936 26.091 35.7548L26.0806 35.734C25.4943 34.6267 24.5688 33.7362 23.4398 33.1929L23.4171 33.1825C21.2976 32.1516 20.014 30.0129 20.1433 27.7325L20.1467 27.6908C20.215 26.4537 19.8708 25.2289 19.1681 24.2084C18.5251 23.2779 18.1807 22.1736 18.1807 21.0425C18.1807 19.9114 18.5251 18.8071 19.1681 17.8766C19.8712 16.8563 20.2154 15.6313 20.1467 14.3942L20.1431 14.3541C20.0884 13.2237 20.3702 12.1025 20.953 11.1323C21.5358 10.1622 22.3933 9.38671 23.417 8.90414L23.4398 8.89371C24.5684 8.34977 25.4937 7.45934 26.0806 6.35238L26.091 6.33197C27.1617 4.29274 29.3854 3.05633 31.757 3.18144L31.7982 3.18442C33.0732 3.25322 34.338 2.92423 35.4178 2.24293C36.4033 1.62229 37.5442 1.29297 38.7089 1.29297C39.8735 1.29297 41.0144 1.62229 41.9999 2.24293C43.0798 2.9241 44.3446 3.25304 45.6195 3.18427L45.6609 3.18129C48.0323 3.05618 50.256 4.29274 51.3273 6.33197L51.3377 6.35238C51.9242 7.45942 52.8493 8.34991 53.9779 8.89371L54.0007 8.90414C56.0934 9.89106 57.3857 12.0424 57.2746 14.3541L57.2716 14.3943C57.2028 15.6314 57.5469 16.8562 58.2497 17.8766ZM49.203 26.985C49.203 24.3289 47.3802 22.1768 45.1326 22.1768C42.885 22.1768 41.0615 24.3291 41.0615 26.985C41.0615 29.6404 42.8832 31.7945 45.1326 31.7945C47.3812 31.7945 49.203 29.6422 49.203 26.985ZM36.3563 15.1C36.3563 12.4446 34.5335 10.2925 32.2859 10.2925C30.0383 10.2925 28.2149 12.4446 28.2149 15.1C28.2149 17.7561 30.0383 19.91 32.2859 19.91C34.5335 19.91 36.3563 17.7572 36.3563 15.1Z"
                                            fill="#00EFD1" />
                                        <path
                                            d="M45.1325 22.1773C47.3802 22.1773 49.203 24.3296 49.203 26.9855C49.203 29.6409 47.3802 31.795 45.1325 31.795C42.8849 31.795 41.0615 29.6427 41.0615 26.9855C41.0615 24.3282 42.8831 22.1773 45.1325 22.1773ZM32.2859 10.293C34.5335 10.293 36.3563 12.4451 36.3563 15.1005C36.3563 17.7566 34.5335 19.9105 32.2859 19.9105C30.0383 19.9105 28.2148 17.7577 28.2148 15.1005C28.2148 12.4433 30.0383 10.293 32.2859 10.293Z"
                                            fill="#00EFD1" />
                                        <path
                                            d="M10.685 60.1037L10.6391 61.7887L1.19141 61.528L1.76158 40.793L11.2111 41.0518L11.0982 45.1543L10.685 60.1037Z"
                                            fill="#00ACEA" />
                                        <path
                                            d="M18.9572 27.6163L18.955 27.6491C18.955 27.6541 18.955 27.6595 18.9538 27.664C18.7966 30.4255 20.3443 33.0122 22.8962 34.2532L22.9125 34.2607L22.9223 34.2655C23.8198 34.6948 24.5557 35.4011 25.0216 36.2803L25.0262 36.2896C25.0298 36.2955 25.0326 36.3019 25.0356 36.3075C26.3208 38.7547 28.9791 40.2379 31.8091 40.093L31.8401 40.0918C31.8475 40.0918 31.8545 40.0918 31.8621 40.0912C32.891 40.0348 33.9119 40.3002 34.783 40.8506C35.9588 41.5912 37.3201 41.9842 38.7097 41.9841C40.0994 41.984 41.4607 41.5908 42.6363 40.85C43.5057 40.298 44.5261 40.0322 45.5542 40.09L45.5774 40.0912L45.6083 40.0924C48.4401 40.2384 51.0967 38.7543 52.3819 36.3071L52.3912 36.289L52.3958 36.2797C52.8588 35.4041 53.5903 34.7 54.4828 34.2707L54.5049 34.2602L54.5219 34.252C57.0732 33.0104 58.6209 30.4241 58.4643 27.6629L58.4626 27.6436L58.4602 27.6117C58.4072 26.6425 58.678 25.6831 59.2299 24.8846C60.8265 22.5715 60.8265 19.5127 59.2311 17.1988C58.6816 16.3985 58.4106 15.4396 58.4602 14.4701L58.4626 14.4427C58.4626 14.4352 58.4637 14.4281 58.4643 14.4201C58.6033 11.6283 57.047 9.02772 54.5213 7.83138C54.515 7.82807 54.5086 7.82499 54.5021 7.82215L54.4875 7.81574C53.5938 7.38577 52.8609 6.68144 52.3958 5.80555L52.3819 5.77755C51.0955 3.32812 48.4365 1.84088 45.5979 1.99162L45.5757 1.99281L45.5454 1.99519C44.5202 2.04969 43.5034 1.78413 42.6357 1.23526C41.46 0.494591 40.0988 0.101562 38.7093 0.101562C37.3197 0.101563 35.9585 0.494591 34.7828 1.23526C33.9151 1.78447 32.898 2.05006 31.8725 1.99519L31.8423 1.99281C31.8348 1.99281 31.8273 1.99162 31.8203 1.99162C28.9827 1.84148 26.3226 3.32812 25.0362 5.77755L25.0222 5.80555C24.5572 6.68174 23.8243 7.38631 22.9305 7.81634L22.9155 7.82274C22.9091 7.82572 22.9032 7.82855 22.8968 7.83198C21.6586 8.41815 20.6226 9.35935 19.9206 10.5359C19.2187 11.7124 18.8826 13.0712 18.955 14.4393L18.9572 14.4711C19.0102 15.4406 18.7394 16.4001 18.1874 17.1988C17.4069 18.3283 16.9888 19.6687 16.9888 21.0417C16.9888 22.4147 17.4069 23.7551 18.1874 24.8846C18.7368 25.6861 19.0072 26.646 18.9572 27.6163ZM20.1488 18.5527C21.0045 17.315 21.4223 15.8269 21.3359 14.3246C21.3359 14.3194 21.3359 14.3136 21.3345 14.3077L21.3329 14.278C21.2936 13.3854 21.5191 12.5012 21.9811 11.7364C22.443 10.9717 23.1207 10.3607 23.929 9.98009L23.9411 9.97428L23.9563 9.96728C25.3161 9.31607 26.43 8.2442 27.133 6.91044C27.1365 6.90285 27.1412 6.89465 27.1447 6.88706L27.1499 6.87663C27.5894 6.07147 28.2491 5.40816 29.0519 4.96437C29.8547 4.52058 30.7673 4.31467 31.6829 4.37075L31.7132 4.37313L31.734 4.37417C33.2557 4.45911 34.766 4.0663 36.0535 3.25067C36.8485 2.75003 37.7689 2.48438 38.7084 2.48438C39.6479 2.48438 40.5683 2.75003 41.3633 3.25067C42.6509 4.06591 44.1611 4.45855 45.6828 4.37373L45.7043 4.37253L45.734 4.37015C46.6495 4.31421 47.562 4.52018 48.3646 4.96397C49.1673 5.40775 49.827 6.07098 50.2664 6.87604L50.2717 6.88646C50.2757 6.89465 50.2797 6.90225 50.2839 6.91029C50.9871 8.24382 52.1009 9.31549 53.4606 9.96669L53.4751 9.97369L53.4879 9.97965C54.2957 10.3603 54.973 10.971 55.435 11.7352C55.897 12.4994 56.123 13.383 56.0846 14.2751L56.0822 14.3036C56.0822 14.3118 56.0812 14.32 56.0812 14.328C56.0005 15.8288 56.4179 17.3143 57.2686 18.5533C57.7733 19.2853 58.0436 20.1533 58.0436 21.0424C58.0436 21.9315 57.7733 22.7995 57.2686 23.5314C56.4127 24.769 55.9949 26.2572 56.0816 27.7595C56.0816 27.7654 56.0816 27.7717 56.0822 27.7775L56.0852 27.8089C56.1233 28.7018 55.8969 29.5862 55.4343 30.3509C54.9718 31.1156 54.2936 31.7267 53.485 32.1075L53.4606 32.1185C52.1006 32.7698 50.9867 33.8419 50.2839 35.176C50.2797 35.183 50.2763 35.1906 50.2727 35.1976L50.2669 35.2086C49.4104 36.8324 47.6267 37.814 45.724 37.7133L45.7026 37.7122L45.6723 37.711C44.1545 37.6272 42.6485 38.02 41.3651 38.8346C40.5701 39.3355 39.6497 39.6014 38.71 39.6017C37.7704 39.6019 36.8499 39.3363 36.0547 38.8357C34.882 38.0937 33.5227 37.7002 32.135 37.7011C32.0058 37.7011 31.8749 37.7046 31.7462 37.711L31.7155 37.7122C31.7079 37.7122 31.7004 37.7122 31.6928 37.7133C30.7756 37.7717 29.8609 37.567 29.0561 37.1233C28.2514 36.6796 27.59 36.0153 27.1499 35.2086L27.1447 35.1976L27.1336 35.176C26.428 33.8383 25.3096 32.764 23.9447 32.1127L23.9307 32.1063C23.1221 31.7255 22.444 31.1142 21.9818 30.3492C21.5196 29.5842 21.2938 28.6996 21.3329 27.8067L21.3351 27.7735C21.3351 27.7675 21.3351 27.7618 21.3357 27.756C21.4166 26.255 20.9989 24.7693 20.1477 23.5302C19.6422 22.7987 19.3715 21.9305 19.3717 21.0413C19.3719 20.1521 19.643 19.2841 20.1488 18.5527Z"
                                            fill="#083863" />
                                        <path
                                            d="M31.0205 33.361C31.1532 33.4439 31.3009 33.4998 31.4552 33.5256C31.6096 33.5514 31.7675 33.5465 31.9199 33.5112C32.0723 33.4759 32.2163 33.4109 32.3436 33.32C32.4709 33.229 32.5791 33.1138 32.6619 32.9811L46.7774 10.3679C46.8908 10.1905 46.9552 9.98621 46.9639 9.77583C46.9725 9.56546 46.9253 9.35654 46.8269 9.17039C46.7285 8.98428 46.5827 8.82751 46.4041 8.71604C46.2256 8.60457 46.0207 8.54235 45.8103 8.53573C45.5999 8.52922 45.3915 8.57855 45.2063 8.67869C45.0211 8.77884 44.8658 8.92624 44.7561 9.1059L30.6403 31.719C30.5574 31.8518 30.5015 31.9996 30.4758 32.154C30.45 32.3083 30.4549 32.4663 30.4902 32.6188C30.5255 32.7713 30.5905 32.9153 30.6815 33.0427C30.7725 33.17 30.8877 33.2782 31.0205 33.361ZM32.2859 21.1013C35.1874 21.1013 37.5479 18.4093 37.5479 15.0998C37.5479 11.791 35.1874 9.10068 32.2859 9.10068C29.3837 9.10068 27.0233 11.7916 27.0233 15.0998C27.0233 18.4081 29.3837 21.1013 32.2859 21.1013ZM32.2859 11.4838C33.8731 11.4838 35.1648 13.1059 35.1648 15.0998C35.1648 17.0942 33.8731 18.7182 32.2859 18.7182C30.6981 18.7182 29.4065 17.0944 29.4065 15.0998C29.4065 13.1053 30.6981 11.4838 32.2859 11.4838ZM39.87 26.9848C39.87 30.2936 42.2304 32.9858 45.1326 32.9858C48.0341 32.9858 50.3946 30.2936 50.3946 26.9848C50.3946 23.6753 48.0341 20.985 45.1326 20.985C42.2304 20.985 39.87 23.6765 39.87 26.9848ZM48.0114 26.9848C48.0114 28.9792 46.7198 30.6027 45.1326 30.6027C43.5448 30.6027 42.2531 28.9787 42.2531 26.9848C42.2531 24.9904 43.5448 23.3682 45.1326 23.3682C46.7198 23.3682 48.0114 24.9902 48.0114 26.9848ZM63.8452 46.7727C62.2679 43.9729 58.7687 42.9058 55.8974 44.3499L46.5656 48.7578C45.9305 47.5814 44.997 46.5929 43.8589 45.8915C42.7208 45.1901 41.4181 44.8005 40.0818 44.7619L31.4643 44.5233C30.0998 44.4841 28.7616 44.1388 27.5487 43.5127L26.6718 43.0584C24.46 41.9053 22.002 41.3044 19.5077 41.307C17.0134 41.3096 14.5567 41.9156 12.3473 43.0733L12.4021 41.0863C12.4064 40.9299 12.3799 40.7741 12.3241 40.6279C12.2682 40.4817 12.1841 40.3479 12.0765 40.2342C11.9689 40.1205 11.8399 40.0292 11.697 39.9654C11.5541 39.9015 11.4 39.8665 11.2436 39.8623L1.79482 39.6034H1.76101C1.45086 39.6036 1.15301 39.7247 0.930732 39.941C0.708455 40.1573 0.57927 40.4517 0.570625 40.7618L0.000455969 61.4968C-0.0175666 62.1549 0.500918 62.703 1.15822 62.721L10.6065 62.9817H10.6391C10.9496 62.9818 11.2478 62.8607 11.4704 62.6443C11.6929 62.4278 11.8222 62.133 11.8307 61.8227L11.858 60.8301L14.314 59.5157C15.2772 58.9979 16.4039 58.8746 17.4563 59.1719L32.1148 63.2858C32.1404 63.293 32.166 63.2992 32.1916 63.3046C33.2518 63.5266 34.3322 63.6381 35.4154 63.6373C37.7072 63.639 39.9722 63.1446 42.0547 62.1881C42.1058 62.1648 42.1553 62.138 42.2025 62.1076L63.4559 48.3598C63.7108 48.1947 63.8931 47.9385 63.9655 47.6435C64.0378 47.3485 63.9948 47.037 63.8452 46.7727ZM9.49345 60.0732L9.48004 60.5665L2.41504 60.3715L2.91997 42.0186L9.98691 42.2122L9.49345 60.0732ZM40.9794 60.0592C38.3914 61.2279 35.5007 61.5504 32.7188 60.9807L18.0999 56.8777C16.4551 56.4127 14.6939 56.6055 13.1887 57.4154L11.933 58.0868L12.27 45.8842C16.2443 43.2404 21.3429 42.9681 25.5757 45.1743L26.4529 45.6287C27.985 46.42 29.6754 46.8564 31.3991 46.9058L40.0158 47.1438C41.0902 47.1745 42.129 47.5356 42.9908 48.1779C43.8525 48.8203 44.4953 49.7127 44.8316 50.7336C44.8938 50.9222 44.9445 51.1136 44.9847 51.3079L32.1484 50.9548C31.8326 50.9462 31.5262 51.0634 31.2968 51.2806C31.0673 51.4978 30.9335 51.7973 30.9248 52.1132C30.9205 52.2696 30.947 52.4254 31.0029 52.5716C31.0587 52.7178 31.1429 52.8515 31.2504 52.9652C31.358 53.0789 31.4869 53.1703 31.6298 53.2341C31.7727 53.298 31.9267 53.333 32.0832 53.3373L46.246 53.7261H46.2792C46.5896 53.726 46.8878 53.6049 47.1103 53.3884C47.3328 53.172 47.4621 52.8773 47.4708 52.567C47.4846 52.0491 47.4459 51.5311 47.355 51.0211L56.9283 46.498L56.9563 46.4846C57.6193 46.1488 58.3692 46.024 59.1052 46.1271C59.8412 46.2302 60.528 46.5561 61.0732 47.0612L40.9794 60.0592Z"
                                            fill="#083863" />
                                    </g>
                                    <defs>
                                        <clipPath id="clip0_4277_1383">
                                            <rect width="64" height="64" fill="white" />
                                        </clipPath>
                                    </defs>
                                </svg>