<svg xmlns="http://www.w3.org/2000/svg" width="64" height="64" viewBox="0 0 64 64"
                                    fill="none">
                                    <path
                                        d="M55 19H61V57H55V19ZM45 27H51V57H45V27ZM35 34H41V57H35V34ZM25 42H31V57H25V42ZM15 46H21V57H15V46ZM5 51H11V57H5V51Z"
                                        fill="#2D85CC" />
                                    <path
                                        d="M27 31C32.5228 31 37 26.5228 37 21C37 15.4772 32.5228 11 27 11C21.4772 11 17 15.4772 17 21C17 26.5228 21.4772 31 27 31Z"
                                        fill="#FFD33A" />
                                    <path
                                        d="M61 18H55C54.7348 18 54.4804 18.1054 54.2929 18.2929C54.1054 18.4804 54 18.7348 54 19V57C54 57.2652 54.1054 57.5196 54.2929 57.7071C54.4804 57.8946 54.7348 58 55 58H61C61.2652 58 61.5196 57.8946 61.7071 57.7071C61.8946 57.5196 62 57.2652 62 57V19C62 18.7348 61.8946 18.4804 61.7071 18.2929C61.5196 18.1054 61.2652 18 61 18ZM60 56H56V20H60V56ZM51 58C51.2652 58 51.5196 57.8946 51.7071 57.7071C51.8946 57.5196 52 57.2652 52 57V27C52 26.7348 51.8946 26.4804 51.7071 26.2929C51.5196 26.1054 51.2652 26 51 26H45C44.7348 26 44.4804 26.1054 44.2929 26.2929C44.1054 26.4804 44 26.7348 44 27V57C44 57.2652 44.1054 57.5196 44.2929 57.7071C44.4804 57.8946 44.7348 58 45 58H51ZM46 28H50V56H46V28ZM41 58C41.2652 58 41.5196 57.8946 41.7071 57.7071C41.8946 57.5196 42 57.2652 42 57V34C42 33.7348 41.8946 33.4804 41.7071 33.2929C41.5196 33.1054 41.2652 33 41 33H35C34.7348 33 34.4804 33.1054 34.2929 33.2929C34.1054 33.4804 34 33.7348 34 34V57C34 57.2652 34.1054 57.5196 34.2929 57.7071C34.4804 57.8946 34.7348 58 35 58H41ZM36 35H40V56H36V35ZM31 58C31.2652 58 31.5196 57.8946 31.7071 57.7071C31.8946 57.5196 32 57.2652 32 57V42C32 41.7348 31.8946 41.4804 31.7071 41.2929C31.5196 41.1054 31.2652 41 31 41H25C24.7348 41 24.4804 41.1054 24.2929 41.2929C24.1054 41.4804 24 41.7348 24 42V57C24 57.2652 24.1054 57.5196 24.2929 57.7071C24.4804 57.8946 24.7348 58 25 58H31ZM26 43H30V56H26V43ZM21 58C21.2652 58 21.5196 57.8946 21.7071 57.7071C21.8946 57.5196 22 57.2652 22 57V46C22 45.7348 21.8946 45.4804 21.7071 45.2929C21.5196 45.1054 21.2652 45 21 45H15C14.7348 45 14.4804 45.1054 14.2929 45.2929C14.1054 45.4804 14 45.7348 14 46V57C14 57.2652 14.1054 57.5196 14.2929 57.7071C14.4804 57.8946 14.7348 58 15 58H21ZM16 47H20V56H16V47ZM11 58C11.2652 58 11.5196 57.8946 11.7071 57.7071C11.8946 57.5196 12 57.2652 12 57V51C12 50.7348 11.8946 50.4804 11.7071 50.2929C11.5196 50.1054 11.2652 50 11 50H5C4.73478 50 4.48043 50.1054 4.29289 50.2929C4.10536 50.4804 4 50.7348 4 51V57C4 57.2652 4.10536 57.5196 4.29289 57.7071C4.48043 57.8946 4.73478 58 5 58H11ZM6 52H10V56H6V52ZM27 18H29C29.2652 18 29.5196 17.8946 29.7071 17.7071C29.8946 17.5196 30 17.2652 30 17C30 16.7348 29.8946 16.4804 29.7071 16.2929C29.5196 16.1054 29.2652 16 29 16H28V15C28 14.7348 27.8946 14.4804 27.7071 14.2929C27.5196 14.1054 27.2652 14 27 14C26.7348 14 26.4804 14.1054 26.2929 14.2929C26.1054 14.4804 26 14.7348 26 15V16.172C25.3331 16.4081 24.7711 16.8723 24.4132 17.4826C24.0554 18.0929 23.9248 18.8101 24.0444 19.5073C24.1641 20.2046 24.5263 20.8372 25.0671 21.2933C25.6079 21.7494 26.2925 21.9997 27 22C27.2652 22 27.5196 22.1054 27.7071 22.2929C27.8946 22.4804 28 22.7348 28 23C28 23.2652 27.8946 23.5196 27.7071 23.7071C27.5196 23.8946 27.2652 24 27 24H25C24.7348 24 24.4804 24.1054 24.2929 24.2929C24.1054 24.4804 24 24.7348 24 25C24 25.2652 24.1054 25.5196 24.2929 25.7071C24.4804 25.8946 24.7348 26 25 26H26V27C26 27.2652 26.1054 27.5196 26.2929 27.7071C26.4804 27.8946 26.7348 28 27 28C27.2652 28 27.5196 27.8946 27.7071 27.7071C27.8946 27.5196 28 27.2652 28 27V25.828C28.6669 25.5919 29.2289 25.1277 29.5868 24.5174C29.9446 23.9071 30.0752 23.1899 29.9556 22.4927C29.8359 21.7954 29.4737 21.1628 28.9329 20.7067C28.3921 20.2506 27.7075 20.0003 27 20C26.7348 20 26.4804 19.8946 26.2929 19.7071C26.1054 19.5196 26 19.2652 26 19C26 18.7348 26.1054 18.4804 26.2929 18.2929C26.4804 18.1054 26.7348 18 27 18Z"
                                        fill="black" />
                                    <path
                                        d="M61 6H55C54.7348 6 54.4805 6.10536 54.2929 6.29289C54.1054 6.48043 54 6.73478 54 7C54 7.26522 54.1054 7.51957 54.2929 7.70711C54.4805 7.89464 54.7348 8 55 8H58.5858L44.5858 22H38.958C38.9858 21.6674 38.9998 21.3338 39 21C38.9999 18.7212 38.351 16.4895 37.1291 14.566C35.9072 12.6425 34.1629 11.1067 32.1001 10.1382C30.0374 9.16965 27.7415 8.80851 25.481 9.09697C23.2205 9.38543 21.0889 10.3116 19.3355 11.7671C17.5821 13.2226 16.2793 15.1472 15.5797 17.316C14.88 19.4847 14.8123 21.8078 15.3845 24.0136C15.9567 26.2194 17.1451 28.2167 18.8108 29.7718C20.4765 31.3269 22.5506 32.3756 24.7904 32.7952L20.5859 37H13C12.8687 37 12.7387 37.0259 12.6173 37.0761C12.496 37.1264 12.3858 37.2 12.2929 37.2929L2.2929 47.2929C2.10536 47.4804 2 47.7348 2 48C2 48.2652 2.10536 48.5196 2.2929 48.7071C2.48044 48.8947 2.7348 49 3.00003 49C3.26525 49 3.51961 48.8947 3.70715 48.7071L13.4142 39H21C21.1313 39 21.2614 38.9741 21.3827 38.9239C21.504 38.8736 21.6143 38.8 21.7071 38.7071L27.4225 32.9917C30.008 32.8972 32.494 31.9712 34.5114 30.3513C36.5287 28.7314 37.9697 26.5041 38.6204 24H45C45.1313 24 45.2614 23.9741 45.3827 23.9239C45.504 23.8736 45.6143 23.8 45.7071 23.7071L60 9.41425V13C60 13.2652 60.1054 13.5196 60.2929 13.7071C60.4805 13.8946 60.7348 14 61 14C61.2652 14 61.5196 13.8946 61.7071 13.7071C61.8947 13.5196 62 13.2652 62 13V7C62 6.73478 61.8947 6.48043 61.7071 6.29289C61.5196 6.10536 61.2652 6 61 6ZM27 31C25.0222 31 23.0888 30.4135 21.4443 29.3147C19.7998 28.2159 18.5181 26.6541 17.7612 24.8268C17.0044 22.9996 16.8063 20.9889 17.1922 19.0491C17.578 17.1093 18.5304 15.3275 19.929 13.9289C21.3275 12.5304 23.1093 11.578 25.0491 11.1921C26.9889 10.8063 28.9996 11.0043 30.8269 11.7612C32.6541 12.5181 34.2159 13.7998 35.3147 15.4443C36.4135 17.0888 37 19.0222 37 21C36.997 23.6512 35.9425 26.193 34.0678 28.0677C32.1931 29.9425 29.6513 30.997 27 31Z"
                                        fill="black" />
                                </svg>