 <svg xmlns="http://www.w3.org/2000/svg"
                                        width="25" height="25"
                                        viewBox="0 0 25 25"
                                        fill="none">
                                        <g clip-path="url(#clip0_4279_2192)">
                                            <path
                                                d="M21.9795 3.65234H2.19824C1.03279 3.65234 0.0888672 4.60213 0.0888672 5.76172V18.418C0.0888672 19.5845 1.03973 20.5273 2.19824 20.5273H21.9795C23.1352 20.5273 24.0889 19.5884 24.0889 18.418V5.76172C24.0889 4.60419 23.1487 3.65234 21.9795 3.65234ZM21.6841 5.05859L13.5804 13.1195C13.182 13.518 12.6523 13.7374 12.0889 13.7374C11.5254 13.7374 10.9957 13.5179 10.596 13.1182L2.49365 5.05859H21.6841ZM1.49512 18.1318V6.04883L7.5719 12.0936L1.49512 18.1318ZM2.49454 19.1211L8.56893 13.0853L9.60295 14.1139C10.267 14.7779 11.1498 15.1436 12.0889 15.1436C13.0279 15.1436 13.9108 14.7779 14.5735 14.1152L15.6088 13.0853L21.6832 19.1211H2.49454ZM22.6826 18.1318L16.6058 12.0936L22.6826 6.04883V18.1318Z"
                                                fill="#00668D" />
                                        </g>
                                        <defs>
                                            <clippath id="clip0_4279_2192">
                                                <rect width="24" height="24"
                                                    fill="white"
                                                    transform="translate(0.0908203 0.0898438)" />
                                            </clippath>
                                        </defs>
                                    </svg>