<svg xmlns="http://www.w3.org/2000/svg"
                                        width="24" height="24"
                                        viewBox="0 0 24 24"
                                        fill="none">
                                        <g clip-path="url(#clip0_4279_2181)">
                                            <path
                                                d="M18.9696 14.8671C18.4783 14.3555 17.8857 14.082 17.2575 14.082C16.6345 14.082 16.0368 14.3505 15.5252 14.8621L13.9245 16.4577C13.7928 16.3868 13.6611 16.3209 13.5345 16.2551C13.3522 16.1639 13.1799 16.0778 13.033 15.9866C11.5337 15.0343 10.1711 13.7933 8.86424 12.1876C8.23107 11.3872 7.80558 10.7135 7.49659 10.0297C7.91195 9.64982 8.29692 9.25472 8.67176 8.87481C8.81359 8.73298 8.95542 8.58609 9.09725 8.44426C10.161 7.38053 10.161 6.00275 9.09725 4.93903L7.7144 3.55618C7.55737 3.39915 7.39528 3.23706 7.24332 3.07497C6.9394 2.76092 6.62028 2.43674 6.29103 2.13281C5.79969 1.64654 5.21211 1.3882 4.59414 1.3882C3.97616 1.3882 3.37845 1.64654 2.87191 2.13281L2.86178 2.14294L1.13956 3.88036C0.491192 4.52873 0.12142 5.31893 0.0403745 6.23576C-0.0811943 7.71485 0.354427 9.09262 0.688741 9.99426C1.50933 12.2078 2.73515 14.2593 4.56375 16.4577C6.78237 19.1069 9.45182 21.1988 12.5012 22.6729C13.6662 23.225 15.2213 23.8784 16.9587 23.9899C17.0651 23.9949 17.1765 24 17.2778 24C18.4479 24 19.4306 23.5796 20.2005 22.7438C20.2056 22.7337 20.2157 22.7286 20.2208 22.7185C20.4842 22.3993 20.7881 22.1106 21.1072 21.8016C21.325 21.5939 21.5479 21.3761 21.7657 21.1482C22.2672 20.6265 22.5306 20.0186 22.5306 19.3956C22.5306 18.7675 22.2621 18.1647 21.7505 17.6582L18.9696 14.8671ZM20.783 20.201C20.778 20.201 20.778 20.206 20.783 20.201C20.5855 20.4137 20.3829 20.6062 20.1651 20.8189C19.8358 21.133 19.5015 21.4622 19.1875 21.832C18.6758 22.3791 18.0731 22.6374 17.2829 22.6374C17.2069 22.6374 17.1258 22.6374 17.0499 22.6323C15.5455 22.5361 14.1474 21.9485 13.0989 21.4471C10.2319 20.0591 7.7144 18.0887 5.62241 15.5915C3.89512 13.5096 2.74021 11.5848 1.97534 9.51812C1.50426 8.25684 1.33204 7.27416 1.40802 6.3472C1.45868 5.75455 1.68662 5.26321 2.10704 4.84278L3.83433 3.11549C4.08254 2.88249 4.34593 2.75585 4.60427 2.75585C4.92339 2.75585 5.18172 2.94834 5.34381 3.11043L5.35901 3.12563C5.66799 3.41435 5.96179 3.71321 6.27077 4.03233C6.4278 4.19442 6.58989 4.35651 6.75198 4.52367L8.13483 5.90651C8.67175 6.44344 8.67175 6.93985 8.13483 7.47677C7.98793 7.62367 7.8461 7.77056 7.69921 7.9124C7.27372 8.34802 6.86849 8.75325 6.4278 9.14834C6.41767 9.15847 6.40754 9.16354 6.40247 9.17367C5.96685 9.60929 6.0479 10.0348 6.13907 10.3235L6.15427 10.3691C6.51391 11.2403 7.02045 12.0609 7.79038 13.0385L7.79545 13.0436C9.19349 14.7658 10.6675 16.1082 12.2935 17.1364C12.5012 17.2681 12.7139 17.3745 12.9165 17.4758C13.0989 17.567 13.2711 17.6531 13.418 17.7443C13.4383 17.7544 13.4585 17.7696 13.4788 17.7797C13.651 17.8658 13.8131 17.9064 13.9803 17.9064C14.4007 17.9064 14.6641 17.643 14.7502 17.5569L16.4825 15.8245C16.6548 15.6523 16.9283 15.4446 17.2474 15.4446C17.5615 15.4446 17.8198 15.6421 17.9768 15.8144L17.987 15.8245L20.778 18.6155C21.2997 19.1322 21.2997 19.664 20.783 20.201ZM12.9722 5.70896C14.2994 5.93184 15.5049 6.55994 16.4674 7.52236C17.4298 8.48478 18.0528 9.69034 18.2808 11.0175C18.3365 11.3518 18.6252 11.5848 18.9544 11.5848C18.995 11.5848 19.0304 11.5797 19.0709 11.5747C19.4458 11.5139 19.694 11.1593 19.6332 10.7845C19.3597 9.17874 18.5999 7.71485 17.4399 6.55488C16.2799 5.39491 14.816 4.6351 13.2103 4.36157C12.8355 4.30079 12.486 4.54899 12.4201 4.91876C12.3543 5.28854 12.5974 5.64818 12.9722 5.70896ZM23.9742 10.5869C23.5234 7.94279 22.2773 5.53674 20.3626 3.62203C18.4479 1.70732 16.0419 0.461243 13.3977 0.0104253C13.028 -0.0554245 12.6785 0.197844 12.6126 0.567616C12.5518 0.942453 12.8 1.29196 13.1749 1.35781C15.5353 1.75798 17.6881 2.87742 19.4002 4.58445C21.1123 6.29654 22.2267 8.44932 22.6268 10.8098C22.6826 11.1441 22.9713 11.3771 23.3005 11.3771C23.3411 11.3771 23.3765 11.372 23.417 11.367C23.7868 11.3113 24.0401 10.9567 23.9742 10.5869Z"
                                                fill="#00668D" />
                                        </g>
                                        <defs>
                                            <clippath id="clip0_4279_2181">
                                                <rect width="24" height="24"
                                                    fill="white" />
                                            </clippath>
                                        </defs>
                                    </svg>