<svg xmlns="http://www.w3.org/2000/svg" width="64" height="65" viewBox="0 0 64 65"
                                fill="none">
                                <g clip-path="url(#clip0_4199_4177)">
                                    <path
                                        d="M62.3996 42.3522C62.3933 42.3559 53.9545 48.5159 49.827 51.4809C48.842 52.1884 47.9333 52.7747 47.0845 53.2622C44.6358 54.6709 41.8533 55.3934 39.0283 55.3934H19.9021L13.0396 43.6397L17.5896 41.8684C19.5508 37.8709 23.6621 35.1172 28.4158 35.1172C31.0896 35.1172 33.5596 35.9884 35.5583 37.4622C36.1396 37.8909 36.682 38.3709 37.177 38.8947H44.4883C45.8308 38.8947 46.9758 39.9347 47.0308 41.2759C47.0896 42.6897 45.9595 43.8647 44.5483 43.8647H34.9433C33.9095 43.8647 33.0683 44.7022 33.0683 45.7397C33.0683 46.7759 33.9083 47.6147 34.9433 47.6147H43.9246C45.2308 47.6147 46.482 47.2522 47.5608 46.5734C47.8381 46.4003 48.1021 46.2068 48.3508 45.9947C48.8958 45.6009 55.7558 40.6584 59.3283 38.0847C60.5058 37.2359 62.1483 37.5022 62.997 38.6809C63.847 39.8597 63.5796 41.5047 62.3996 42.3522Z"
                                        fill="#D58678" />
                                    <path
                                        d="M44.5481 43.8673H35.5581V37.4648C36.1394 37.8936 36.6819 38.3736 37.1769 38.8973H44.5481C45.9194 38.8973 47.0331 40.0111 47.0331 41.3823C47.0331 42.7502 45.9241 43.8673 44.5481 43.8673Z"
                                        fill="#B95D4C" />
                                    <path
                                        d="M62.3996 42.3537C62.3933 42.3574 53.9546 48.5174 49.8271 51.4824C48.8421 52.1899 47.9333 52.7762 47.0846 53.2637C44.6358 54.6724 41.8533 55.3949 39.0283 55.3949H35.5583V47.6162H43.9246C45.2308 47.6162 46.4821 47.2537 47.5608 46.5749C47.8381 46.4018 48.1022 46.2083 48.3508 45.9962C48.8958 45.6024 55.7558 40.6599 59.3284 38.0862C60.5058 37.2374 62.1483 37.5037 62.9971 38.6824C63.8471 39.8612 63.5796 41.5062 62.3996 42.3537Z"
                                        fill="#B95D4C" />
                                    <path
                                        d="M53.1823 16.3325C53.1823 25.0625 46.0811 32.165 37.3511 32.165C28.6211 32.165 21.5186 25.0625 21.5186 16.3325C21.5186 7.6025 28.6211 0.5 37.3511 0.5C46.0811 0.5 53.1823 7.6025 53.1823 16.3325Z"
                                        fill="#FABE2C" />
                                    <path
                                        d="M53.1823 16.3325C53.1823 25.0625 46.0811 32.165 37.3511 32.165V0.5C46.0811 0.5 53.1823 7.6025 53.1823 16.3325Z"
                                        fill="#FF9100" />
                                    <path
                                        d="M43.1459 20.7377V20.7552C43.1547 22.0777 42.6484 23.3252 41.7184 24.2664C41.0284 24.9652 40.1659 25.4339 39.2259 25.6314V26.0702C39.2259 27.1064 38.3859 27.9452 37.3509 27.9452C36.3147 27.9452 35.4759 27.1064 35.4759 26.0702V25.6377C34.5609 25.4427 33.7197 24.9927 33.0397 24.3202C32.0984 23.3914 31.5759 22.1514 31.5684 20.8289C31.5622 19.7939 32.3959 18.9489 33.4309 18.9427H33.4434C34.4734 18.9427 35.3122 19.7752 35.3184 20.8064C35.3186 20.9641 35.3502 21.1201 35.4114 21.2654C35.4725 21.4107 35.562 21.5424 35.6747 21.6527C35.7855 21.7629 35.9169 21.8502 36.0615 21.9096C36.206 21.969 36.3609 21.9993 36.5172 21.9989H36.5247L37.3509 21.9939L38.2034 21.9889C38.3613 21.9882 38.5175 21.9563 38.663 21.8949C38.8084 21.8336 38.9403 21.744 39.0509 21.6314C39.1619 21.5194 39.2496 21.3865 39.3088 21.2404C39.368 21.0942 39.3976 20.9378 39.3959 20.7802V20.7627C39.3934 20.3877 39.2122 20.0302 38.9097 19.8064L37.3509 18.6527L33.5597 15.8477C32.3047 14.9177 31.5547 13.4302 31.5547 11.8689C31.5547 9.49141 33.2384 7.50266 35.4759 7.02766V6.59766C35.4759 5.56141 36.3147 4.72266 37.3509 4.72266C38.3859 4.72266 39.2259 5.56141 39.2259 6.59766V7.03016C41.4572 7.50891 43.1359 9.49641 43.1359 11.8689C43.1359 12.9039 42.2959 13.7439 41.2609 13.7439C40.2247 13.7439 39.3859 12.9039 39.3859 11.8689C39.3859 11.2077 38.8472 10.6689 38.1859 10.6689H36.5047C35.8434 10.6689 35.3047 11.2077 35.3047 11.8689C35.3049 12.0563 35.349 12.2411 35.4335 12.4085C35.5179 12.5758 35.6403 12.7211 35.7909 12.8327L37.3509 13.9877L41.1409 16.7927C42.3859 17.7139 43.1359 19.1877 43.1459 20.7377Z"
                                        fill="#F0F7FF" />
                                    <path
                                        d="M38.1861 10.6689H37.3511V4.72266C38.3861 4.72266 39.2261 5.56141 39.2261 6.59766V7.03016C41.4573 7.50891 43.1361 9.49641 43.1361 11.8689C43.1361 12.9039 42.2961 13.7439 41.2611 13.7439C40.2248 13.7439 39.3861 12.9039 39.3861 11.8689C39.3861 11.2077 38.8473 10.6689 38.1861 10.6689ZM43.1461 20.7377V20.7552C43.1548 22.0777 42.6486 23.3252 41.7186 24.2664C41.0286 24.9652 40.1661 25.4339 39.2261 25.6314V26.0702C39.2261 27.1064 38.3861 27.9452 37.3511 27.9452V21.9939L38.2036 21.9889C38.3614 21.9882 38.5176 21.9563 38.6631 21.8949C38.8086 21.8336 38.9404 21.744 39.0511 21.6314C39.162 21.5194 39.2497 21.3865 39.3089 21.2404C39.3681 21.0942 39.3978 20.9378 39.3961 20.7802V20.7627C39.3936 20.3877 39.2123 20.0302 38.9098 19.8064L37.3511 18.6527V13.9877L41.1411 16.7927C42.3861 17.7139 43.1361 19.1877 43.1461 20.7377Z"
                                        fill="#DFE7F4" />
                                    <path
                                        d="M20.9609 59.1739L12.1411 64.2664C11.8763 64.4196 11.5758 64.5003 11.2699 64.5005C10.6654 64.5005 10.0783 64.1871 9.75451 63.6269L0.740261 48.014C0.258011 47.1777 0.544636 46.1096 1.37976 45.6262L10.1995 40.535C10.3981 40.4202 10.6174 40.3457 10.8449 40.3158C11.0723 40.2858 11.3034 40.3009 11.525 40.3602C11.7468 40.4194 11.9546 40.5218 12.1367 40.6615C12.3188 40.8012 12.4715 40.9755 12.5861 41.1744L21.6004 56.7871C22.0825 57.6235 21.7971 58.6916 20.9609 59.1739Z"
                                        fill="#7DD5F4" />
                                </g>
                                <defs>
                                    <clipPath id="clip0_4199_4177">
                                        <rect width="64" height="64" fill="white" transform="translate(0 0.5)" />
                                    </clipPath>
                                </defs>
                            </svg>