 <svg xmlns="http://www.w3.org/2000/svg" width="64" height="65" viewBox="0 0 64 65"
                                fill="none">
                                <g clip-path="url(#clip0_4199_4122)">
                                    <path
                                        d="M63.657 24.409C63.4186 24.153 63.0751 24.021 62.7254 24.021H58.8864C57.3361 17.6058 53.7111 11.7921 48.5914 7.552C43.104 3.00787 36.1526 0.50375 29.0159 0.5C28.8984 0.5 28.7798 0.525125 28.6796 0.58675C28.4095 0.753125 28.3126 1.07187 28.4148 1.34438L31.8418 10.4902C31.8864 10.6094 31.9663 10.7122 32.0709 10.7847C32.1755 10.8572 32.2997 10.896 32.427 10.896C40.5311 10.896 47.632 16.3372 49.821 24.021H46.5248C46.1749 24.021 45.8315 24.153 45.5931 24.409C45.1439 24.8915 45.1461 25.5987 45.5398 26.0711L53.6648 35.8211C53.7821 35.9619 53.9289 36.0751 54.0949 36.1529C54.2609 36.2306 54.4419 36.2709 54.6251 36.2709C54.8084 36.2709 54.9894 36.2306 55.1554 36.1529C55.3213 36.0751 55.4682 35.9619 55.5855 35.8211L63.7105 26.0711C64.104 25.5987 64.1061 24.8915 63.657 24.409Z"
                                        fill="#507BE9" />
                                    <path
                                        d="M28.375 29.875C35.9689 29.875 42.125 23.7189 42.125 16.125C42.125 8.53108 35.9689 2.375 28.375 2.375C20.7811 2.375 14.625 8.53108 14.625 16.125C14.625 23.7189 20.7811 29.875 28.375 29.875Z"
                                        fill="#FFEE78" />
                                    <path
                                        d="M42.125 16.125C42.125 8.53113 35.9689 2.375 28.375 2.375V29.875C35.9689 29.875 42.125 23.7189 42.125 16.125Z"
                                        fill="#FCD232" />
                                    <path
                                        d="M28.375 31.75C19.7594 31.75 12.75 24.7406 12.75 16.125C12.75 7.50937 19.7594 0.5 28.375 0.5C36.9906 0.5 44 7.50937 44 16.125C44 24.7406 36.9906 31.75 28.375 31.75ZM28.375 4.25C21.8271 4.25 16.5 9.57713 16.5 16.125C16.5 22.6729 21.8271 28 28.375 28C34.9229 28 40.25 22.6729 40.25 16.125C40.25 9.57713 34.9229 4.25 28.375 4.25Z"
                                        fill="#FCD232" />
                                    <path
                                        d="M40.25 16.125C40.25 22.6729 34.9229 28 28.375 28V31.75C36.9906 31.75 44 24.7406 44 16.125C44 7.50937 36.9906 0.5 28.375 0.5V4.25C34.9229 4.25 40.25 9.57713 40.25 16.125Z"
                                        fill="#F7B90F" />
                                    <path
                                        d="M33.375 19.25C33.375 16.493 31.132 14.25 28.375 14.25C27.6858 14.25 27.125 13.6892 27.125 13C27.125 12.3108 27.6858 11.75 28.375 11.75C28.967 11.75 29.482 12.1698 29.5995 12.7481C29.8055 13.7629 30.7959 14.4185 31.8102 14.2125C32.825 14.0064 33.4806 13.0166 33.2746 12.0017C32.9345 10.3273 31.7653 8.98475 30.25 8.36775V8C30.25 6.9645 29.4105 6.125 28.375 6.125C27.3395 6.125 26.5 6.9645 26.5 8V8.36613C24.6696 9.1095 23.375 10.9059 23.375 13C23.375 15.757 25.618 18 28.375 18C29.0642 18 29.625 18.5608 29.625 19.25C29.625 19.9392 29.0642 20.5 28.375 20.5C27.783 20.5 27.268 20.0802 27.1505 19.5019C26.9445 18.4871 25.9549 17.8317 24.9398 18.0375C23.9249 18.2436 23.2694 19.2334 23.4754 20.2482C23.8155 21.9227 24.9847 23.2654 26.4999 23.8824V24.25C26.4999 25.2855 27.3394 26.125 28.3749 26.125C29.4104 26.125 30.2499 25.2855 30.2499 24.25V23.8839C32.0804 23.1405 33.375 21.344 33.375 19.25Z"
                                        fill="#FCD232" />
                                    <path
                                        d="M28.375 14.25V18C29.0642 18 29.625 18.5608 29.625 19.25C29.625 19.9392 29.0642 20.5 28.375 20.5V26.125C29.4105 26.125 30.25 25.2855 30.25 24.25V23.8839C32.0804 23.1405 33.375 21.3441 33.375 19.25C33.375 16.493 31.132 14.25 28.375 14.25ZM29.5995 12.7481C29.8055 13.7629 30.7959 14.4185 31.8102 14.2125C32.825 14.0064 33.4806 13.0166 33.2746 12.0017C32.9345 10.3273 31.7652 8.98475 30.25 8.36775V8C30.25 6.9645 29.4105 6.125 28.375 6.125V11.75C28.967 11.75 29.482 12.1698 29.5995 12.7481Z"
                                        fill="#F7B90F" />
                                    <path
                                        d="M63.2084 44.3699C61.8225 42.3906 59.0945 41.9096 57.1152 43.2955L43.7035 52.6865C43.1782 53.0543 42.5524 53.2516 41.9111 53.2516H32V62.0016H42.6992C44.6232 62.0016 46.5005 61.4097 48.0765 60.3061L62.1339 50.463C64.1133 49.0771 64.5944 46.3491 63.2084 44.3699Z"
                                        fill="#FABE8C" />
                                    <path
                                        d="M43.7035 52.6838C43.1782 53.0516 42.5524 53.2489 41.9111 53.2489L32 52.4804V56.9989H42.125C46.6051 56.9989 50.25 53.354 50.25 48.8739C50.25 48.6212 50.2368 48.3717 50.2141 48.125L43.7035 52.6838Z"
                                        fill="#E6A578" />
                                    <path
                                        d="M63.2084 44.3683C61.8225 42.389 59.0945 41.908 57.1152 43.2939L45.8356 51.192C46.2707 50.4976 46.501 49.6945 46.5 48.875C46.5 46.4587 44.5412 44.5 42.125 44.5H31.5L30.277 43.5827C27.8414 41.756 24.8234 40.75 21.7787 40.75C19.2117 40.7501 16.6929 41.4477 14.4916 42.7684L11.1601 44.7673C10.8825 44.9338 10.6528 45.1695 10.4933 45.4512C10.3338 45.733 10.25 46.0512 10.25 46.375V60.125C10.25 61.1605 11.0895 62 12.125 62H42.6992C44.6232 62 46.5005 61.4081 48.0765 60.3045L62.1339 50.4614C64.1132 49.0755 64.5944 46.3475 63.2084 44.3683Z"
                                        fill="#FFD2AA" />
                                    <path
                                        d="M32 62.0016H42.6992C44.6232 62.0016 46.5005 61.4097 48.0765 60.3061L62.1339 50.463C64.1131 49.0771 64.5941 46.3491 63.2082 44.3699C61.8224 42.3906 59.0944 41.9096 57.1151 43.2955L45.8355 51.1936C46.2707 50.4992 46.501 49.6961 46.5 48.8766C46.5 46.4604 44.5413 44.5016 42.125 44.5016H32V62.0016Z"
                                        fill="#FABE8C" />
                                    <path
                                        d="M50.2141 48.125L45.8356 51.1909C45.8085 51.2343 45.7814 51.2777 45.7528 51.32C44.9666 52.4837 43.6351 53.2489 42.125 53.2489H29C27.9645 53.2489 27.125 54.0884 27.125 55.1239C27.125 56.1594 27.9645 56.9989 29 56.9989H42.125C46.6051 56.9989 50.25 53.354 50.25 48.8739C50.25 48.6212 50.2368 48.3717 50.2141 48.125Z"
                                        fill="#FABE8C" />
                                    <path
                                        d="M12.125 64.5H1.875C0.8395 64.5 0 63.6605 0 62.625V41.375C0 40.3395 0.8395 39.5 1.875 39.5H12.125C13.1605 39.5 14 40.3395 14 41.375V62.625C14 63.6605 13.1605 64.5 12.125 64.5Z"
                                        fill="#6496F7" />
                                    <path
                                        d="M50.2141 48.125L45.8356 51.1909C45.8085 51.2343 45.7814 51.2777 45.7528 51.32C44.9666 52.4837 43.6351 53.2489 42.125 53.2489H32V56.9989H42.125C46.6051 56.9989 50.25 53.354 50.25 48.8739C50.25 48.6212 50.2368 48.3717 50.2141 48.125Z"
                                        fill="#E6A578" />
                                </g>
                                <defs>
                                    <clipPath id="clip0_4199_4122">
                                        <rect width="64" height="64" fill="white" transform="translate(0 0.5)" />
                                    </clipPath>
                                </defs>
                            </svg>