  <svg
                  xmlns="http://www.w3.org/2000/svg"
                  width="64"
                  height="65"
                  viewBox="0 0 64 65"
                  fill="none"
                >
                  <path
                    d="M62 2.5V15.5L49 19.5L43 10.5L57 2.5H62Z"
                    fill="#B4DD7F"
                  />
                  <path
                    d="M15.75 8.33L16 8.5L13 19.5L2 15.5V2.5H7L15.75 8.33Z"
                    fill="#FF826E"
                  />
                  <path
                    d="M26.38 21.12C26.76 21.5 27 22.04 27 22.62C27 23.18 26.78 23.72 26.38 24.12L23.62 26.88C23.2222 27.2778 22.6826 27.5013 22.12 27.5013C21.5574 27.5013 21.0178 27.2778 20.62 26.88C20.2222 26.4822 19.9987 25.9426 19.9987 25.38C19.9987 24.8174 20.2222 24.2778 20.62 23.88L23.38 21.12C23.78 20.72 24.32 20.5 24.88 20.5C25.46 20.5 26 20.74 26.38 21.12ZM43 10.5L49 19.5L44 22.5L43.82 22.58C43.7 22.32 43.53 22.08 43.31 21.88L34.86 14.28C34.31 13.78 33.59 13.5 32.84 13.5C32.29 13.5 31.75 13.65 31.28 13.93L27.56 16.17C27.19 16.38 26.78 16.5 26.35 16.5C25.7 16.5 25.11 16.24 24.69 15.81C24.4699 15.5935 24.2954 15.335 24.1769 15.0499C24.0584 14.7648 23.9982 14.4588 24 14.15V13.95C24 13.06 24.5 12.25 25.3 11.85L30.88 9.06C31.62 8.69 32.43 8.5 33.26 8.5C33.75 8.5 34.24 8.57 34.72 8.7L41 10.5H43Z"
                    fill="#F0D0B4"
                  />
                  <path
                    d="M32 62.5C40.8366 62.5 48 55.3366 48 46.5C48 37.6634 40.8366 30.5 32 30.5C23.1634 30.5 16 37.6634 16 46.5C16 55.3366 23.1634 62.5 32 62.5Z"
                    fill="#FFC729"
                  />
                  <path
                    d="M35.96 31.5007C35.34 31.5007 34.74 31.2807 34.26 30.8907L32.75 29.6207C32.91 29.3107 33 28.9707 33 28.6207C33 28.0407 32.76 27.5007 32.38 27.1207C32 26.7407 31.46 26.5007 30.88 26.5007C30.32 26.5007 29.78 26.7207 29.38 27.1207C29.78 26.7207 30 26.1807 30 25.6207C30 25.0407 29.76 24.5007 29.38 24.1207C29 23.7407 28.46 23.5007 27.88 23.5007C27.32 23.5007 26.78 23.7207 26.38 24.1207C26.78 23.7207 27 23.1807 27 22.6207C27 22.0407 26.76 21.5007 26.38 21.1207C26 20.7407 25.46 20.5007 24.88 20.5007C24.32 20.5007 23.78 20.7207 23.38 21.1207C23.78 20.7207 24 20.1807 24 19.6207C24 19.0407 23.76 18.5007 23.38 18.1207C23 17.7407 22.46 17.5007 21.88 17.5007C21.32 17.5007 20.78 17.7207 20.38 18.1207L17.62 20.8807C17.33 21.1707 17.13 21.5307 17.05 21.9307L13 19.5007L16 8.50074L15.75 8.33074L22.79 6.77074C24.7423 6.33383 26.7759 6.42705 28.68 7.04074L33.26 8.50074C32.43 8.50074 31.62 8.69074 30.88 9.06074L25.3 11.8507C24.5 12.2507 24 13.0607 24 13.9507V14.1507C24 14.8007 24.26 15.3907 24.69 15.8107C25.11 16.2407 25.7 16.5007 26.35 16.5007C26.78 16.5007 27.19 16.3807 27.56 16.1707L31.28 13.9307C31.75 13.6507 32.29 13.5007 32.84 13.5007C33.59 13.5007 34.31 13.7807 34.86 14.2807L43.31 21.8807C43.53 22.0807 43.7 22.3207 43.82 22.5807C43.94 22.8407 44 23.1307 44 23.4207C44 24.5707 43.07 25.5007 41.92 25.5007H41.75C41.27 25.5007 40.8 25.3307 40.42 25.0207L40.26 24.8907C40.4791 25.0712 40.658 25.2957 40.7851 25.5495C40.9121 25.8034 40.9846 26.0811 40.9978 26.3647C41.011 26.6483 40.9646 26.9315 40.8616 27.196C40.7587 27.4606 40.6014 27.7007 40.4 27.9007C40.04 28.2707 39.52 28.5007 38.96 28.5007H38.74C38.26 28.5007 37.8 28.3307 37.43 28.0307L37.26 27.8907C37.4791 28.0712 37.658 28.2957 37.7851 28.5495C37.9121 28.8034 37.9846 29.0811 37.9978 29.3647C38.011 29.6483 37.9646 29.9315 37.8616 30.196C37.7587 30.4606 37.6014 30.7007 37.4 30.9007C37.25 31.0507 37.08 31.1807 36.89 31.2707C36.61 31.4207 36.29 31.5007 35.96 31.5007Z"
                    fill="#F0D0B4"
                  />
                  <path
                    d="M32.75 29.62C32.65 29.8 32.53 29.97 32.38 30.12L29.88 32.62L29.62 32.88C29.3396 33.1597 28.9866 33.3553 28.6008 33.4446C28.215 33.5339 27.8119 33.5134 27.4372 33.3854C27.0625 33.2573 26.7311 33.0269 26.4806 32.7202C26.2301 32.4135 26.0706 32.0428 26.02 31.65C26.01 31.56 26 31.47 26 31.38C26 30.82 26.22 30.28 26.62 29.88L29.38 27.12C29.78 26.72 30.32 26.5 30.88 26.5C31.46 26.5 32 26.74 32.38 27.12C32.76 27.5 33 28.04 33 28.62C33 28.97 32.91 29.31 32.75 29.62ZM23.38 18.12C23.76 18.5 24 19.04 24 19.62C24 20.18 23.78 20.72 23.38 21.12L20.62 23.88C20.2222 24.2778 19.6826 24.5013 19.12 24.5013C18.5574 24.5013 18.0178 24.2778 17.62 23.88C17.2222 23.4822 16.9987 22.9426 16.9987 22.38C16.9987 21.8174 17.2222 21.2778 17.62 20.88L20.38 18.12C20.78 17.72 21.32 17.5 21.88 17.5C22.46 17.5 23 17.74 23.38 18.12Z"
                    fill="#F0D0B4"
                  />
                  <path
                    d="M29.38 24.12C29.76 24.5 30 25.04 30 25.62C30 26.18 29.78 26.72 29.38 27.12L26.62 29.88C26.2222 30.2778 25.6826 30.5013 25.12 30.5013C24.5574 30.5013 24.0178 30.2778 23.62 29.88C23.2222 29.4822 22.9987 28.9426 22.9987 28.38C22.9987 27.8174 23.2222 27.2778 23.62 26.88L26.38 24.12C26.78 23.72 27.32 23.5 27.88 23.5C28.46 23.5 29 23.74 29.38 24.12ZM34.26 30.89C34.4791 31.0705 34.658 31.2949 34.785 31.5488C34.9121 31.8027 34.9846 32.0803 34.9978 32.3639C35.011 32.6475 34.9646 32.9307 34.8616 33.1953C34.7587 33.4599 34.6014 33.6999 34.4 33.9C34.04 34.27 33.52 34.5 32.96 34.5H32.77C32.27 34.5 31.79 34.32 31.42 33.99L29.88 32.62L32.38 30.12C32.53 29.97 32.65 29.8 32.75 29.62L34.26 30.89Z"
                    fill="#F0D0B4"
                  />
                  <path
                    d="M32 58.5C38.6274 58.5 44 53.1274 44 46.5C44 39.8726 38.6274 34.5 32 34.5C25.3726 34.5 20 39.8726 20 46.5C20 53.1274 25.3726 58.5 32 58.5Z"
                    fill="#FCD770"
                  />
                  <path
                    d="M56.734 1.5L42.734 9.5H41.14L34.991 7.743C34.5064 7.61262 34.0078 7.54111 33.506 7.53L28.982 6.083C26.909 5.42268 24.6983 5.32228 22.574 5.792L15.95 7.265L7.303 1.5H1V16.2L12.568 20.407L16.01 22.472C16.0339 23.262 16.3574 24.0134 16.9149 24.5737C17.4724 25.1339 18.2221 25.4612 19.012 25.489C19.0401 26.2757 19.3652 27.0226 19.9218 27.5792C20.4784 28.1358 21.2253 28.4609 22.012 28.489C22.0361 29.1448 22.267 29.7761 22.6717 30.2927C23.0764 30.8093 23.6341 31.1846 24.265 31.365C21.4697 32.7813 19.1231 34.9466 17.487 37.6191C15.851 40.2917 14.9899 43.3664 15 46.5C15 55.874 22.626 63.5 32 63.5C41.374 63.5 49 55.874 49 46.5C49 39.568 44.903 33.495 38.643 30.856C38.858 30.446 38.99 29.988 38.996 29.496C39.7888 29.4851 40.546 29.1651 41.1063 28.6042C41.6667 28.0433 41.9859 27.2858 41.996 26.493C42.798 26.474 43.5608 26.1425 44.1219 25.5692C44.6831 24.9959 44.9981 24.2262 45 23.424C45 23.31 44.977 23.2 44.964 23.087L49.411 20.419L63 16.239V1.5H56.734ZM3 14.8V3.5H6.697L14.845 8.932L12.32 18.189L3 14.8ZM18 22.379C18 22.079 18.117 21.798 18.328 21.586L21.086 18.828C21.2984 18.6282 21.5803 18.519 21.8719 18.5235C22.1634 18.528 22.4418 18.6458 22.648 18.852C22.8542 19.0582 22.972 19.3366 22.9765 19.6281C22.981 19.9197 22.8718 20.2016 22.672 20.414L19.914 23.172C19.757 23.3284 19.5573 23.4349 19.3399 23.4779C19.1225 23.5209 18.8973 23.4986 18.6925 23.4138C18.4878 23.329 18.3128 23.1854 18.1895 23.0013C18.0663 22.8171 18.0003 22.6006 18 22.379ZM21 25.379C21 25.079 21.117 24.798 21.328 24.586L24.086 21.828C24.2984 21.6282 24.5803 21.519 24.8719 21.5235C25.1634 21.528 25.4418 21.6458 25.648 21.852C25.8542 22.0582 25.972 22.3366 25.9765 22.6281C25.981 22.9197 25.8718 23.2016 25.672 23.414L22.914 26.172C22.757 26.3284 22.5573 26.4349 22.3399 26.4779C22.1225 26.5209 21.8973 26.4986 21.6925 26.4138C21.4878 26.329 21.3128 26.1854 21.1895 26.0013C21.0663 25.8171 21.0003 25.6006 21 25.379ZM24.328 27.586L27.086 24.828C27.2984 24.6282 27.5803 24.519 27.8719 24.5235C28.1634 24.528 28.4418 24.6458 28.648 24.852C28.8542 25.0582 28.972 25.3366 28.9765 25.6281C28.981 25.9197 28.8718 26.2016 28.672 26.414L25.914 29.172C25.7016 29.3718 25.4197 29.481 25.1281 29.4765C24.8366 29.472 24.5582 29.3542 24.352 29.148C24.1458 28.9418 24.028 28.6634 24.0235 28.3719C24.019 28.0803 24.1282 27.7984 24.328 27.586ZM30.879 27.5C31.1006 27.5003 31.3171 27.5663 31.5013 27.6895C31.6854 27.8128 31.829 27.9878 31.9138 28.1925C31.9986 28.3973 32.0209 28.6225 31.9779 28.8399C31.9349 29.0573 31.8284 29.257 31.672 29.414L28.914 32.172C28.7016 32.3718 28.4197 32.481 28.1281 32.4765C27.8366 32.472 27.5582 32.3542 27.352 32.148C27.1458 31.9418 27.028 31.6634 27.0235 31.3719C27.019 31.0803 27.1282 30.7984 27.328 30.586L30.086 27.828C30.298 27.617 30.579 27.5 30.879 27.5ZM32.88 31.035L33.625 31.656C33.789 31.7935 33.9068 31.9781 33.9624 32.1848C34.018 32.3915 34.0087 32.6103 33.9358 32.8116C33.8629 33.0128 33.7299 33.1868 33.5548 33.3099C33.3797 33.4331 33.171 33.4994 32.957 33.5H32.772C32.518 33.5 32.273 33.407 32.082 33.239L31.334 32.579L32.88 31.035ZM32 35.5C38.065 35.5 43 40.435 43 46.5C43 52.565 38.065 57.5 32 57.5C25.935 57.5 21 52.565 21 46.5C21 40.435 25.935 35.5 32 35.5ZM47 46.5C47 54.771 40.271 61.5 32 61.5C23.729 61.5 17 54.771 17 46.5C17 40.682 20.29 35.493 25.465 32.996C25.883 33.6806 26.5488 34.1778 27.324 34.384C22.462 36.267 19 40.981 19 46.5C19 53.668 24.832 59.5 32 59.5C39.168 59.5 45 53.668 45 46.5C45 40.567 41.001 35.561 35.561 34.008C35.827 33.563 35.989 33.05 35.996 32.496C36.315 32.492 36.618 32.429 36.907 32.333C42.964 34.422 47 40.037 47 46.5ZM41.924 24.5H41.751C41.5 24.5 41.255 24.412 41.063 24.251L40.905 24.119L35.64 19.732L34.36 21.268L39.625 25.655C39.7894 25.7924 39.9075 25.9771 39.9634 26.184C40.0192 26.3909 40.01 26.6099 39.9371 26.8114C39.8641 27.0129 39.7309 27.187 39.5556 27.3102C39.3803 27.4334 39.1713 27.4997 38.957 27.5H38.74C38.496 27.5 38.259 27.414 38.072 27.258L37.905 27.119L32.64 22.732L31.36 24.268L36.625 28.655C36.79 28.7922 36.9086 28.9769 36.9648 29.1839C37.021 29.391 37.0119 29.6103 36.9389 29.8121C36.8658 30.0138 36.7324 30.1881 36.5567 30.3112C36.3809 30.4343 36.1715 30.5002 35.957 30.5C35.573 30.5 35.2 30.365 34.905 30.119L33.921 29.299C33.969 29.078 34 28.853 34 28.621C33.9984 27.8136 33.6837 27.0384 33.1221 26.4583C32.5606 25.8783 31.7959 25.5387 30.989 25.511C30.9609 24.7243 30.6358 23.9774 30.0792 23.4208C29.5226 22.8642 28.7757 22.5391 27.989 22.511C27.9609 21.7243 27.6358 20.9774 27.0792 20.4208C26.5226 19.8642 25.7757 19.5391 24.989 19.511C24.9611 18.7042 24.6214 17.9397 24.0414 17.3781C23.4614 16.8166 22.6863 16.5018 21.879 16.5C21.045 16.5 20.261 16.825 19.672 17.414L16.914 20.172C16.808 20.278 16.721 20.396 16.633 20.514L14.164 19.033L16.87 9.109L23.007 7.745C24.7856 7.35238 26.6364 7.43655 28.372 7.989L29.844 8.46L24.851 10.956C24.2933 11.2325 23.8242 11.6597 23.497 12.1893C23.1699 12.7189 22.9977 13.3295 23 13.952V14.151C23.001 14.7434 23.1589 15.3249 23.4577 15.8364C23.7565 16.3478 24.1855 16.771 24.701 17.0628C25.2166 17.3545 25.8002 17.5045 26.3925 17.4973C26.9848 17.4901 27.5647 17.3261 28.073 17.022L31.796 14.788C32.1697 14.571 32.602 14.4766 33.0321 14.518C33.4623 14.5595 33.8686 14.7347 34.194 15.019L42.644 22.624C42.8059 22.7696 42.9198 22.9608 42.9706 23.1725C43.0215 23.3842 43.007 23.6063 42.929 23.8095C42.851 24.0128 42.7132 24.1876 42.5337 24.3109C42.3543 24.4341 42.1417 24.5001 41.924 24.5ZM43.982 21.139L35.532 13.534C34.249 12.379 32.246 12.186 30.766 13.074L27.043 15.308C26.8382 15.4305 26.6046 15.4965 26.366 15.4993C26.1275 15.5022 25.8924 15.4417 25.6847 15.3241C25.4771 15.2066 25.3044 15.036 25.1841 14.83C25.0638 14.6239 25.0003 14.3896 25 14.151V13.952C25 13.437 25.286 12.975 25.746 12.745L31.325 9.956C32.2924 9.47727 33.4029 9.37396 34.442 9.666L40.726 11.461L42.46 11.49L47.587 19.181L44.103 21.271C44.06 21.23 44.027 21.179 43.982 21.139ZM61 14.761L49.418 18.325L44.426 10.837L57.266 3.5H61V14.761Z"
                    fill="black"
                  />
                  <path
                    d="M31 53.499V55.499H33V53.499C35.206 53.499 37 51.705 37 49.499C37 47.293 35.206 45.499 33 45.499H31C29.8969 45.499 29 44.602 29 43.499C29 42.396 29.8969 41.499 31 41.499H33C34.103 41.499 35 42.396 35 43.499H37C37 41.293 35.206 39.499 33 39.499V37.499H31V39.499C28.794 39.499 27 41.293 27 43.499C27 45.705 28.794 47.499 31 47.499H33C34.103 47.499 35 48.396 35 49.499C35 50.602 34.103 51.499 33 51.499H31C29.8969 51.499 29 50.602 29 49.499V48.499H27V49.499C27 51.704 28.794 53.499 31 53.499ZM48.2 37.899L49.7999 39.099L54 33.499V54.499H56V33.499L60.2 39.099L61.7999 37.899L55 28.832L48.2 37.899ZM54 56.499H56V58.499H54V56.499ZM15.8 37.899L8.99995 28.832L2.19995 37.899L3.79995 39.099L7.99995 33.499V54.499H9.99995V33.499L14.2 39.099L15.8 37.899ZM7.99995 56.499H9.99995V58.499H7.99995V56.499Z"
                    fill="black"
                  />
                </svg>