 <svg xmlns="http://www.w3.org/2000/svg" width="64" height="65" viewBox="0 0 64 65"
                                    fill="none">
                                    <path d="M7 20.5V14.5H15L19 18.5V20.5H7Z" fill="#B3B1B3" />
                                    <path d="M7 40.5H22V61.5H7V40.5Z" fill="#E4E4E3" />
                                    <path d="M3 18.5H33V42.5H3V18.5Z" fill="#E4E4E3" />
                                    <path d="M7 22.5H33V38.5H7V22.5Z" fill="#0093B9" />
                                    <path d="M9 24.5H15V36.5H9V24.5ZM17 24.5H31V36.5H17V24.5Z" fill="#2DA4C4" />
                                    <path d="M7 42.5H22V44.5H7V42.5Z" fill="#CACAC9" />
                                    <path d="M10 46.5H12V48.5H10V46.5Z" fill="#FBBE1F" />
                                    <path d="M14 42.5H17V61.5H14V42.5Z" fill="#CACAC9" />
                                    <path d="M29 9.5H57V61.5H29V9.5Z" fill="#0093B9" />
                                    <path
                                        d="M34 16.5H40V22.5H34V16.5ZM46 16.5H52V22.5H46V16.5ZM46 27.5H52V33.5H46V27.5ZM46 38.5H52V44.5H46V38.5Z"
                                        fill="#5DB9D2" />
                                    <path d="M60 11.5H26V7.5L60 4.5V11.5Z" fill="#FBBE1F" />
                                    <path d="M34 27.5H40V33.5H34V27.5Z" fill="#5DB9D2" />
                                    <path d="M42 40.5V61.5H16V40.5L29 35.5L42 40.5Z" fill="#E4E4E3" />
                                    <path d="M42 40.5V44.1875L29 38.5L16 44.1875V40.5L29 35.5L42 40.5Z"
                                        fill="#CACAC9" />
                                    <path d="M21 47.5H27V61.5H21V47.5ZM31 49.5H37V54.5H31V49.5Z" fill="#0093B9" />
                                    <path d="M23 42.5H25V44.5H23V42.5Z" fill="#FBBE1F" />
                                    <path
                                        d="M13 38.5L29 31.5L45 38.5V43.5L29 36.5L13 43.5V38.5ZM44 50.5C42 50.5 41 52.5 41 54.5C41 56.5 39 56.5 39 58.529C39 60.558 41 61.5 42 61.5H46C47 61.5 49 60.5579 49 58.529C49 56.5001 47 56.5 47 54.5C47 52.5 46 50.5 44 50.5Z"
                                        fill="#85BB40" />
                                    <path d="M2 60.5H62V62.5H2V60.5Z" fill="#CACAC9" />
                                </svg>