<svg
                  xmlns="http://www.w3.org/2000/svg"
                  width="65"
                  height="64"
                  viewBox="0 0 65 64"
                  fill="none"
                >
                  <path
                    fill-rule="evenodd"
                    clip-rule="evenodd"
                    d="M21.2314 15.9699L32.0005 6.40625L42.7695 15.9699V27.7179H21.2314V15.9699Z"
                    fill="#FFE177"
                  />
                  <path
                    fill-rule="evenodd"
                    clip-rule="evenodd"
                    d="M17.0414 18.7725C16.2935 18.1333 16.2935 17.0871 17.0414 16.4479L28.5112 6.64475C30.4232 5.01058 33.5409 5.00879 35.4552 6.64091L46.9592 16.448C47.7071 17.0872 47.7071 18.1334 46.9592 18.7726C46.2113 19.4119 44.9874 19.4119 44.2393 18.7726L33.0107 9.17557C32.4541 8.69992 31.5464 8.69992 30.9898 9.17557L19.7611 18.7726C19.0132 19.4117 17.7894 19.4117 17.0414 18.7725Z"
                    fill="#C89D8D"
                  />
                  <path
                    fill-rule="evenodd"
                    clip-rule="evenodd"
                    d="M29.7427 16.457H34.2586C35.8658 16.457 37.1807 17.772 37.1807 19.3791V25.0905C37.1807 26.6977 35.8658 28.0126 34.2586 28.0126H29.7427C28.1355 28.0126 26.8206 26.6977 26.8206 25.0905V19.3791C26.8206 17.772 28.1355 16.457 29.7427 16.457Z"
                    fill="#C89D8D"
                  />
                  <path
                    fill-rule="evenodd"
                    clip-rule="evenodd"
                    d="M15.8836 24.8438H48.1173C48.9208 24.8438 49.5781 25.501 49.5781 26.3045V39.4189C49.5781 40.2223 48.9208 40.8796 48.1173 40.8796H15.8836C15.0801 40.8796 14.4229 40.2223 14.4229 39.4189V26.3045C14.4229 25.501 15.0801 24.8438 15.8836 24.8438Z"
                    fill="#E6E6E6"
                  />
                  <path
                    fill-rule="evenodd"
                    clip-rule="evenodd"
                    d="M19.3569 24.8438C19.3569 27.5687 17.1478 29.7778 14.4229 29.7778V26.3045C14.4229 25.501 15.0801 24.8438 15.8836 24.8438H19.3569ZM14.4229 35.9454C17.1478 35.9454 19.3569 38.1545 19.3569 40.8795H15.8836C15.0801 40.8795 14.4229 40.2222 14.4229 39.4187V35.9454ZM49.5781 29.7779C46.8531 29.7779 44.6439 27.5689 44.6439 24.8439H48.1172C48.9206 24.8439 49.5779 25.5012 49.5779 26.3046V29.7779H49.5781ZM44.644 40.8795C44.644 38.1545 46.8531 35.9454 49.5782 35.9454V39.4187C49.5782 40.2222 48.9209 40.8795 48.1174 40.8795H44.644Z"
                    fill="#847784"
                  />
                  <path
                    fill-rule="evenodd"
                    clip-rule="evenodd"
                    d="M55.4571 42.9567C56.252 44.1489 55.6266 45.6258 54.5036 46.5155L47.2673 52.2485C45.5834 53.5825 44.3327 54.3682 42.4323 55.3166C39.6262 56.717 36.4716 57.9738 33.6796 58.3856C29.7965 58.9583 24.8906 57.6208 20.9825 57.1828C18.6058 56.9164 16.4499 56.7357 14.0566 56.6113V46.0513C18.2509 45.5278 21.4045 44.0531 25.8018 45.2289H34.6645C36.5942 45.2289 37.8938 47.2044 37.1645 48.9626C37.6072 49.102 38.0477 49.1749 38.4857 49.1755C39.6753 49.1773 40.2415 48.7334 41.2147 48.1716L51.8984 42.0033C53.1394 41.2869 54.7407 41.7159 55.4571 42.9567Z"
                    fill="#FCD4A9"
                  />
                  <path
                    fill-rule="evenodd"
                    clip-rule="evenodd"
                    d="M10.6235 44.2617H13.9873C14.7777 44.2617 15.4244 44.9084 15.4244 45.6988V57.1353C15.4244 57.9257 14.7777 58.5724 13.9873 58.5724H10.6235C9.83306 58.5724 9.18628 57.9257 9.18628 57.1353V45.6988C9.18641 44.9084 9.83306 44.2617 10.6235 44.2617Z"
                    fill="#88C8FE"
                  />
                  <path
                    fill-rule="evenodd"
                    clip-rule="evenodd"
                    d="M53.9883 45.8649L46.7528 51.5972C45.132 52.8815 43.9478 53.6327 42.0619 54.5736C38.831 56.1859 35.8911 57.2205 33.5589 57.5647C30.9554 57.9487 27.8286 57.4241 24.8047 56.917C23.4945 56.6982 22.2557 56.4897 21.075 56.3582C19.3794 56.1679 17.8273 56.0251 16.2542 55.914V46.538C19.4918 45.9265 22.0845 45.1079 25.5874 46.0309C25.6576 46.0492 25.7297 46.0586 25.8022 46.0588H34.6648C36.0056 46.0588 36.9031 47.4291 36.3982 48.6442C36.1044 49.352 35.4251 49.8081 34.6648 49.8081H25.8022C25.5821 49.8081 25.371 49.8955 25.2154 50.0511C25.0597 50.2068 24.9723 50.4179 24.9723 50.638C24.9723 50.8581 25.0597 51.0692 25.2154 51.2249C25.371 51.3805 25.5821 51.468 25.8022 51.468H34.6648C35.2409 51.4686 35.8084 51.3279 36.3175 51.0582C36.8265 50.7884 37.2616 50.3978 37.5845 49.9207L38.4932 50.0061C39.9219 50.0061 40.6354 49.4651 41.6297 48.8904L52.3145 42.7216C53.157 42.2346 54.242 42.5238 54.7382 43.3715C54.7472 43.3868 54.7571 43.4022 54.7676 43.4169C55.3161 44.2399 54.7488 45.2626 53.9883 45.8649ZM14.5944 57.135C14.5942 57.2959 14.5303 57.4501 14.4166 57.5639C14.303 57.6777 14.1488 57.7418 13.9879 57.7421H10.6241C10.463 57.7422 10.3085 57.6783 10.1945 57.5644C10.0805 57.4506 10.0164 57.2961 10.0162 57.135V45.699C10.0162 45.6192 10.032 45.5401 10.0625 45.4664C10.0931 45.3926 10.1378 45.3256 10.1943 45.2692C10.2507 45.2127 10.3177 45.1679 10.3915 45.1374C10.4652 45.1069 10.5443 45.0911 10.6241 45.0911H13.9879C14.1489 45.0915 14.3031 45.1558 14.4168 45.2697C14.5305 45.3837 14.5944 45.538 14.5944 45.699V57.135ZM56.1631 42.5192C55.2107 40.8966 53.114 40.3422 51.4841 41.2839L40.8001 47.452C39.8308 48.0139 39.3261 48.4355 38.1778 48.3298C38.412 46.2312 36.7679 44.3987 34.6649 44.3987H25.9094C22.6322 43.5481 20.0357 44.0783 17.288 44.6385C16.892 44.7206 16.4953 44.7998 16.0982 44.8763C15.7687 44.0321 14.9476 43.4312 13.9878 43.4312H10.624C9.37329 43.4312 8.3562 44.4483 8.3562 45.699V57.135C8.3562 58.3857 9.37329 59.4028 10.624 59.4028H13.9878C15.0867 59.4028 16.0059 58.6159 16.2114 57.575C17.7363 57.6834 19.2444 57.8233 20.8897 58.0072C24.9968 58.467 29.7127 59.8091 33.8016 59.2068C36.3407 58.8312 39.3688 57.7722 42.8033 56.0592C44.78 55.073 46.0825 54.2461 47.783 52.8989L55.0192 47.1651C56.3918 46.0783 57.2221 44.1364 56.1631 42.5192ZM33.8003 34.5932C33.733 33.9953 32.7142 33.6953 32.0235 33.693C30.3589 33.6872 28.6304 32.7889 28.5778 31.1559C28.5769 31.1335 28.5774 31.111 28.5792 31.0887C28.6127 30.4108 28.9276 29.4855 30.2391 28.9273C30.5294 28.7987 30.8407 28.7042 31.1702 28.6433V28.3348C31.1701 28.2257 31.1915 28.1177 31.2333 28.017C31.275 27.9162 31.3361 27.8246 31.4132 27.7475C31.4904 27.6704 31.5819 27.6093 31.6827 27.5675C31.7834 27.5258 31.8914 27.5044 32.0005 27.5044C32.1096 27.5043 32.2176 27.5256 32.3184 27.5673C32.4193 27.609 32.5109 27.6701 32.588 27.7473C32.6651 27.8244 32.7263 27.916 32.768 28.0168C32.8096 28.1176 32.831 28.2257 32.8308 28.3348V28.6251C33.6164 28.7195 34.3264 28.9231 34.9831 29.2441C35.181 29.3405 35.3324 29.5115 35.4043 29.7195C35.4762 29.9275 35.4626 30.1555 35.3665 30.3535C35.3189 30.4516 35.2524 30.5394 35.1708 30.6119C35.0892 30.6843 34.9941 30.7399 34.891 30.7755C34.7879 30.8111 34.6787 30.826 34.5698 30.8194C34.4609 30.8128 34.3544 30.7847 34.2564 30.7368C33.6065 30.4199 32.8728 30.2541 32.0124 30.2275C30.8286 30.2041 29.3552 31.0916 30.9121 31.8154C31.8273 32.2283 32.4553 31.8054 33.8171 32.4001C36.3511 33.5069 35.8977 36.552 32.8308 37.0873V37.3915C32.8309 37.5006 32.8094 37.6086 32.7677 37.7094C32.726 37.8101 32.6649 37.9017 32.5877 37.9788C32.5106 38.0559 32.4191 38.1171 32.3183 38.1588C32.2175 38.2005 32.1095 38.2219 32.0005 38.2219C31.7803 38.2217 31.5692 38.1342 31.4135 37.9785C31.2578 37.8228 31.1703 37.6117 31.1702 37.3915V37.1041C30.4251 37.0131 29.6989 36.8053 29.0185 36.4885C28.9195 36.4425 28.8306 36.3775 28.7568 36.2971C28.683 36.2167 28.6258 36.1226 28.5884 36.0201C28.5509 35.9176 28.5341 35.8087 28.5387 35.6997C28.5434 35.5907 28.5695 35.4837 28.6155 35.3848C28.7088 35.1853 28.8774 35.0309 29.0844 34.9556C29.2914 34.8803 29.5197 34.8903 29.7194 34.9832C30.6772 35.4288 32.1144 35.7255 33.1406 35.2756C33.6996 35.0276 33.7815 34.7492 33.8003 34.5932ZM15.8835 25.6747H18.443C18.1129 27.273 16.8509 28.535 15.2526 28.8651V26.3056C15.2529 26.1384 15.3195 25.9781 15.4377 25.8598C15.556 25.7416 15.7163 25.675 15.8835 25.6747ZM22.0622 17.9006L31.5305 9.80895C31.776 9.59839 32.225 9.59698 32.4719 9.80895L41.9402 17.9006V24.0149H38.0105V19.3794C38.0105 17.311 36.3282 15.6273 34.2584 15.6273H29.7424C27.6741 15.6273 25.9904 17.311 25.9904 19.3794V24.0149H22.0621V17.9006H22.0622ZM19.2223 18.1433L30.4512 8.54687C31.3223 7.80217 32.6813 7.80294 33.5513 8.54687L44.7789 18.1433C45.216 18.5176 45.9833 18.5176 46.4206 18.1433C46.7801 17.8357 46.7803 17.3885 46.4206 17.0808L34.9167 7.27455C33.3268 5.9175 30.64 5.92031 29.0507 7.27801L17.5818 17.0806C17.407 17.2296 17.3118 17.4178 17.3118 17.6116C17.3118 18.3387 18.5462 18.7221 19.2223 18.1433ZM48.7478 26.3056V28.8651C47.1502 28.535 45.889 27.273 45.5595 25.6747H48.1176C48.2848 25.6749 48.4451 25.7415 48.5632 25.8598C48.6813 25.9781 48.7477 26.1384 48.7478 26.3056ZM48.1175 40.0507H45.5594C45.8889 38.4524 47.1501 37.1906 48.7476 36.8618V39.4198C48.7477 39.5026 48.7315 39.5847 48.6998 39.6612C48.6682 39.7377 48.6218 39.8073 48.5633 39.8659C48.5048 39.9245 48.4353 39.9709 48.3588 40.0027C48.2823 40.0344 48.2003 40.0507 48.1175 40.0507ZM36.3507 24.0148V19.3793C36.3507 18.2257 35.4119 17.2871 34.2585 17.2871H29.7426C28.589 17.2871 27.6511 18.2259 27.6511 19.3793V24.0148H36.3507ZM20.1267 25.6747C19.7623 28.1908 17.7687 30.1844 15.2526 30.5488V35.1774C17.7687 35.5412 19.7623 37.5361 20.1267 40.0507H43.8745C44.239 37.5361 46.234 35.541 48.7479 35.1774V30.5488C46.234 30.1844 44.239 28.1908 43.8745 25.6747H20.1267ZM15.2526 39.4197V36.8616C16.8509 37.1905 18.1127 38.4523 18.443 40.0506H15.8835C15.7162 40.0505 15.5558 39.984 15.4375 39.8657C15.3192 39.7474 15.2527 39.587 15.2526 39.4197ZM15.8835 41.7113C14.6209 41.7113 13.5927 40.6837 13.5927 39.4197V26.3056C13.5927 25.043 14.6209 24.0148 15.8835 24.0148H20.4022V19.3191L20.3014 19.4059C19.2361 20.316 17.5671 20.316 16.5025 19.4059C15.3697 18.4373 15.3683 16.7879 16.5025 15.8189L27.9727 6.01491C30.183 4.12703 33.7812 4.12486 35.9938 6.01068L47.4983 15.8189C48.0412 16.2813 48.3511 16.9354 48.3511 17.6117C48.3511 19.0577 47.0369 20.0879 45.6 20.0879C44.8166 20.0879 44.1929 19.8296 43.6001 19.3191V24.0148H48.1175C49.3815 24.0148 50.4083 25.043 50.4083 26.3056V39.4197C50.4083 40.6837 49.3815 41.7113 48.1175 41.7113H15.8835Z"
                    fill="#1E2F3F"
                  />
                </svg>