<svg
                  xmlns="http://www.w3.org/2000/svg"
                  width="64"
                  height="64"
                  viewBox="0 0 64 64"
                  fill="none"
                >
                  <g clip-path="url(#clip0_4199_4232)">
                    <path
                      fill-rule="evenodd"
                      clip-rule="evenodd"
                      d="M12.5031 1.375L44.0332 1.37512L50.8737 8.2155V51.3461H12.5031V1.375Z"
                      fill="#CFE8FF"
                    />
                    <path
                      fill-rule="evenodd"
                      clip-rule="evenodd"
                      d="M49.3928 6.73438L50.8737 8.21525V51.3459H49.3928V6.73438Z"
                      fill="#B6DBFF"
                    />
                    <path
                      d="M1.38062 43.0234H40.8806V62.6214H1.38062V43.0234Z"
                      fill="#2DD62D"
                    />
                    <path
                      fill-rule="evenodd"
                      clip-rule="evenodd"
                      d="M36.4126 45.0742C36.2106 46.5416 37.173 47.5241 38.1626 47.5241V50.7843H4.09863V47.5241C5.08826 47.5241 6.05063 46.5416 5.84863 45.0742H36.4126Z"
                      fill="#29B933"
                    />
                    <path
                      fill-rule="evenodd"
                      clip-rule="evenodd"
                      d="M6.54851 45.7422H35.7129C35.7129 47.0952 36.8098 48.1921 38.1628 48.1921V57.4544C36.8098 57.4544 35.7129 58.5513 35.7129 59.9043H6.54851C6.54851 58.5513 5.45163 57.4544 4.09863 57.4544V48.1921C5.45163 48.1921 6.54851 47.0952 6.54851 45.7422Z"
                      fill="#96FF96"
                    />
                    <path
                      d="M28.1572 53.3646C28.4338 49.4767 25.5064 46.1007 21.6185 45.8241C17.7307 45.5475 14.3547 48.4749 14.078 52.3628C13.8014 56.2506 16.7289 59.6266 20.6167 59.9032C24.5046 60.1799 27.8806 57.2524 28.1572 53.3646Z"
                      fill="#29B933"
                    />
                    <path
                      fill-rule="evenodd"
                      clip-rule="evenodd"
                      d="M21.1307 45.7656C24.8837 45.7656 27.9519 48.6953 28.1745 52.3923C27.9519 56.0894 24.8837 59.019 21.1307 59.019C17.3777 59.019 14.3094 56.0894 14.0868 52.3923C14.3094 48.6953 17.3777 45.7656 21.1307 45.7656Z"
                      fill="#2DD62D"
                    />
                    <path
                      d="M39.9655 43.0234H40.8806V62.6214H39.9655V43.0234Z"
                      fill="#29B933"
                    />
                    <path
                      fill-rule="evenodd"
                      clip-rule="evenodd"
                      d="M44.0332 1.375L50.8737 8.21562H44.0332V1.375Z"
                      fill="#4EB1FC"
                    />
                    <path
                      d="M18.1946 21.8125H22.743V38.9078H18.1946V21.8125Z"
                      fill="#4EB1FC"
                    />
                    <path
                      d="M10.229 29.8164H14.7773V38.9093H10.229V29.8164Z"
                      fill="#FDC72E"
                    />
                    <path
                      d="M26.1603 23.1289H30.7085V38.9093H26.1603V23.1289Z"
                      fill="#2DD62D"
                    />
                    <path
                      d="M34.1259 16.9727H38.6742V38.9073H34.1259V16.9727Z"
                      fill="#F89B00"
                    />
                    <path
                      d="M2.26318 33.7734H6.81143V38.9098H2.26318V33.7734Z"
                      fill="#FB545C"
                    />
                    <path
                      d="M37.3251 16.9727H38.6742V38.9073H37.3251V16.9727Z"
                      fill="#E68207"
                    />
                    <path
                      d="M29.3594 23.1289H30.7085V38.9093H29.3594V23.1289Z"
                      fill="#29B933"
                    />
                    <path
                      d="M21.3937 21.8125H22.7428V38.9078H21.3937V21.8125Z"
                      fill="#2A92FA"
                    />
                    <path
                      d="M13.428 29.8164H14.7771V38.9093H13.428V29.8164Z"
                      fill="#F9AC00"
                    />
                    <path
                      d="M5.46228 33.7734H6.81141V38.9098H5.46228V33.7734Z"
                      fill="#E8333C"
                    />
                    <path
                      fill-rule="evenodd"
                      clip-rule="evenodd"
                      d="M52.4533 38.3438C56.9049 40.099 60.6961 46.3583 62.0701 51.6871C64.3748 60.6263 59.2598 62.4805 50.8737 62.6269C42.4876 62.4805 37.3727 60.6263 39.6773 51.6871C41.0513 46.3581 44.8424 40.099 49.2941 38.3438H52.4533Z"
                      fill="#D19458"
                    />
                    <path
                      fill-rule="evenodd"
                      clip-rule="evenodd"
                      d="M49.5096 62.5855C41.9436 62.2526 37.5005 60.1304 39.6773 51.6871C41.0513 46.3581 44.8424 40.099 49.294 38.3438H49.7253C54.1769 40.099 57.968 46.3583 59.342 51.6871C61.5189 60.1304 57.0758 62.2526 49.5096 62.5855Z"
                      fill="#E6B17C"
                    />
                    <path
                      fill-rule="evenodd"
                      clip-rule="evenodd"
                      d="M49.6103 39.4198L47.3284 39.4264C42.1662 32.3563 43.3828 29.8388 45.7806 30.5847C46.4893 30.8052 46.9314 31.1811 47.3047 31.4884C47.9731 32.0388 48.5058 32.2953 49.0763 31.4856C50.3178 29.7236 51.4297 29.7236 52.6712 31.4856C53.2417 32.2953 53.7744 32.0388 54.4428 31.4884C54.8161 31.1812 55.2582 30.8052 55.9669 30.5847C58.3647 29.8388 59.5812 32.3563 54.4191 39.4264L52.1372 39.4198C51.6606 39.4227 51.2672 39.4241 50.8738 39.4241C50.4804 39.4241 50.0871 39.4227 49.6104 39.4198H49.6103Z"
                      fill="#D19458"
                    />
                    <path
                      fill-rule="evenodd"
                      clip-rule="evenodd"
                      d="M49.6104 39.4197L49.5096 39.4201L49.4089 39.4197L49.1906 39.4209L48.1455 39.4241C47.8806 39.4241 47.6156 39.4234 47.3253 39.4221C42.1668 32.3553 43.3833 29.8389 45.7805 30.5847C46.4893 30.8051 46.9314 31.1811 47.3046 31.4883C47.973 32.0388 48.5058 32.2952 49.0763 31.4856C50.3178 29.7236 51.4296 29.7236 52.6711 31.4856C53.2416 32.2952 53.7744 32.0388 54.4428 31.4883C54.6275 31.3362 54.8291 31.1673 55.0715 31.0088C55.725 32.0806 55.096 34.7616 51.694 39.4219C51.4036 39.4233 51.1386 39.4239 50.8738 39.4239L49.8286 39.4208L49.6104 39.4197Z"
                      fill="#E6B17C"
                    />
                    <path
                      d="M55.4645 38.1133H46.283C45.5595 38.1133 44.9729 38.6998 44.9729 39.4234C44.9729 40.147 45.5595 40.7335 46.283 40.7335H55.4645C56.1881 40.7335 56.7747 40.147 56.7747 39.4234C56.7747 38.6998 56.1881 38.1133 55.4645 38.1133Z"
                      fill="#96602A"
                    />
                    <path
                      fill-rule="evenodd"
                      clip-rule="evenodd"
                      d="M53.2481 38.1133H46.2829C45.5623 38.1133 44.9728 38.7028 44.9728 39.4234C44.9728 40.144 45.5623 40.7337 46.2829 40.7337H53.2481C53.9686 40.7337 54.5582 40.1442 54.5582 39.4235C54.5582 38.7029 53.9688 38.1133 53.2481 38.1133Z"
                      fill="#AB733A"
                    />
                    <path
                      fill-rule="evenodd"
                      clip-rule="evenodd"
                      d="M3.01123 38.1595H6.05898V34.5226H3.01123V38.1595ZM1.51148 38.9094V33.7726C1.51148 33.3587 1.84873 33.0228 2.26436 33.0228H6.81198C7.22761 33.0228 7.55886 33.3589 7.55886 33.7726V38.9094C7.55886 39.3237 7.22761 39.6592 6.81198 39.6592H2.26436C1.84873 39.6592 1.51148 39.3237 1.51148 38.9094ZM37.9226 17.7246H34.8749V38.1594H37.9226V17.7246ZM38.6755 16.2249C39.0911 16.2249 39.4224 16.5604 39.4224 16.9748V38.9094C39.4224 39.3237 39.0911 39.6592 38.6755 39.6592H34.1279C33.7122 39.6592 33.375 39.3237 33.375 38.9094V16.9748C33.375 16.5604 33.7124 16.2249 34.1279 16.2249H38.6755ZM29.9597 23.8787H26.912V38.1595H29.9597V23.8787ZM30.7066 22.379C31.1222 22.379 31.4595 22.7145 31.4595 23.1289V38.9095C31.4595 39.3239 31.1222 39.6594 30.7066 39.6594H26.159C25.7434 39.6594 25.4121 39.3239 25.4121 38.9095V23.1289C25.4121 22.7145 25.7434 22.379 26.159 22.379H30.7066ZM14.028 30.5665H10.9802V38.1595H14.028V30.5665ZM14.7749 29.0667C15.1905 29.0667 15.5277 29.4023 15.5277 29.8166V38.9095C15.5277 39.3239 15.1904 39.6594 14.7749 39.6594H10.2272C9.81761 39.6594 9.48036 39.3239 9.48036 38.9095V29.8166C9.48036 29.4023 9.81773 29.0667 10.2272 29.0667H14.7749ZM21.9909 22.5639H18.943V38.1595H21.9909V22.5639ZM22.7437 21.0641C23.1594 21.0641 23.4906 21.4002 23.4906 21.814V38.9095C23.4906 39.3239 23.1594 39.6594 22.7437 39.6594H18.1961C17.7805 39.6594 17.4432 39.3239 17.4432 38.9095V21.8139C17.4432 21.4001 17.7805 21.064 18.1961 21.064H22.7437V21.0641ZM4.89048 31.8585C4.79197 31.8588 4.69438 31.8396 4.60339 31.8018C4.5124 31.7641 4.42983 31.7086 4.36048 31.6386C4.29036 31.5692 4.23469 31.4866 4.1967 31.3956C4.15871 31.3046 4.13915 31.2069 4.13915 31.1082C4.13915 31.0096 4.15871 30.9119 4.1967 30.8209C4.23469 30.7299 4.29036 30.6473 4.36048 30.5779L19.5032 15.4321C19.6093 15.3265 19.7445 15.2549 19.8915 15.2263C20.0384 15.1978 20.1906 15.2136 20.3285 15.2719L27.7191 18.4046L36.6337 9.49075L36.2121 9.55225C35.8025 9.6125 35.4231 9.32875 35.3629 8.9185C35.3485 8.82112 35.3535 8.72188 35.3776 8.62643C35.4016 8.53099 35.4442 8.44121 35.5029 8.36223C35.5617 8.28325 35.6354 8.21662 35.7199 8.16613C35.8044 8.11565 35.898 8.0823 35.9954 8.068L38.6576 7.67825C38.7732 7.66146 38.8911 7.67188 39.0019 7.70868C39.1128 7.74549 39.2135 7.80766 39.2961 7.89025C39.3768 7.97422 39.4377 8.07523 39.4742 8.18584C39.5107 8.29646 39.5219 8.41385 39.507 8.52938L39.1155 11.1881C39.1014 11.2855 39.0682 11.3792 39.0179 11.4637C38.9676 11.5483 38.9011 11.6221 38.8222 11.681C38.7433 11.7398 38.6536 11.7826 38.5582 11.8067C38.4628 11.8309 38.3636 11.836 38.2662 11.8217C38.1688 11.8074 38.0752 11.774 37.9906 11.7235C37.9061 11.673 37.8324 11.6063 37.7736 11.5272C37.7149 11.4482 37.6723 11.3584 37.6483 11.2628C37.6243 11.1673 37.6194 11.068 37.6337 10.9706L37.694 10.5514L28.4241 19.8225C28.3181 19.9283 28.1829 20 28.0359 20.0285C27.8889 20.0571 27.7368 20.0411 27.5989 19.9827L20.2082 16.85L5.42061 31.6386C5.35123 31.7086 5.26863 31.764 5.17762 31.8018C5.08662 31.8395 4.98901 31.8588 4.89048 31.8585ZM53.6254 53.981C53.3664 53.513 52.6556 53.092 51.6256 52.792V55.9837C52.6797 55.873 53.517 55.4405 53.6796 54.8736C53.782 54.5206 53.77 54.2376 53.6254 53.981ZM50.1259 50.867V47.5849C49.4692 47.6902 48.8971 47.933 48.5537 48.289C48.2766 48.58 48.1381 48.9292 48.1622 49.2733C48.1864 49.6419 48.3971 49.9894 48.7706 50.278C49.108 50.5381 49.5897 50.7176 50.1259 50.8671V50.867ZM54.9385 53.2559C55.2757 53.8679 55.336 54.5539 55.1252 55.2941C54.7156 56.6753 53.1737 57.3595 51.6257 57.489V58.513C51.6257 58.9274 51.2884 59.2629 50.8729 59.2629C50.4574 59.2629 50.126 58.9274 50.126 58.513V57.4456C48.2406 57.1806 46.8614 56.147 46.518 54.6894C46.4276 54.2859 46.6746 53.8829 47.0782 53.7882C47.4817 53.6942 47.8854 53.9455 47.9817 54.349C48.1865 55.2169 49.1081 55.7271 50.1261 55.9211V52.4185C49.313 52.2142 48.4817 51.9505 47.8554 51.4632C47.1446 50.9145 46.723 50.1755 46.6627 49.3823C46.6085 48.6089 46.8976 47.8517 47.4759 47.25C48.1324 46.5645 49.1082 46.1965 50.1261 46.0766V45.0274C50.1261 44.613 50.4574 44.2775 50.873 44.2775C51.2886 44.2775 51.6259 44.613 51.6259 45.0274V46.0724C51.9451 46.1085 52.2584 46.1675 52.5475 46.2482C53.981 46.6451 54.9509 47.5289 55.2097 48.6726C55.3001 49.0761 55.0471 49.4785 54.6436 49.5701C54.24 49.6623 53.8365 49.4087 53.7461 49.0051C53.5534 48.1691 52.5656 47.8095 52.1439 47.6932C51.9737 47.6456 51.8007 47.6086 51.6259 47.5824V51.2391C51.7464 51.2705 51.8729 51.3024 51.9932 51.3368C53.475 51.759 54.4689 52.4048 54.9387 53.2559H54.9385ZM61.3412 51.8729C62.1845 55.1424 62.0279 57.4787 60.8594 59.016C59.4259 60.8965 56.3479 61.7783 50.8727 61.8753C45.3975 61.7783 42.3196 60.8964 40.886 59.016C39.7175 57.4789 39.5609 55.1424 40.4041 51.8729C41.398 48.0191 43.6085 43.9878 46.0901 41.4748C46.1564 41.4808 46.2166 41.4844 46.2829 41.4844H55.4625C55.5287 41.4844 55.595 41.4808 55.6552 41.4748C58.1369 43.9878 60.3534 48.0191 61.3412 51.8729ZM25.6951 59.1562H35.0554C35.3385 57.9926 36.254 57.0746 37.4165 56.7945V48.8515C36.254 48.5708 35.3385 47.6529 35.0554 46.4891H25.6951C27.6587 47.9089 28.9417 50.2181 28.9417 52.8226C28.9417 55.4271 27.6587 57.7365 25.6951 59.1561V59.1562ZM16.5697 46.4891H7.20348C6.92648 47.6529 6.00486 48.5708 4.84236 48.8515V56.7945C6.00486 57.0746 6.92648 57.9925 7.20348 59.1562H16.5697C14.6061 57.7365 13.3232 55.4277 13.3232 52.8228C13.3232 50.2178 14.6062 47.9089 16.5697 46.4893V46.4891ZM27.4419 52.8226C27.4419 56.3018 24.6109 59.1326 21.1294 59.1326C17.6479 59.1326 14.8229 56.3016 14.8229 52.8226C14.8229 49.3436 17.6479 46.5131 21.1294 46.5131C24.6109 46.5131 27.4419 49.3435 27.4419 52.8226ZM40.1391 61.8751V60.4404C39.9809 60.2771 39.832 60.1049 39.6934 59.9248C39.2597 59.3495 38.9284 58.7003 38.7116 57.9738C38.6414 58.0468 38.5572 58.1049 38.4641 58.1448C38.371 58.1846 38.2708 58.2053 38.1695 58.2056C37.2299 58.2056 36.4649 58.9681 36.4649 59.906C36.4649 60.3204 36.1336 60.6559 35.718 60.6559H6.54086C6.13123 60.6559 5.79398 60.3204 5.79398 59.906C5.79398 58.9681 5.02898 58.2056 4.08936 58.2056C3.67973 58.2056 3.34248 57.8695 3.34248 57.4557V48.19C3.34248 47.7756 3.67973 47.4401 4.08936 47.4401C5.02898 47.4401 5.79398 46.677 5.79398 45.7391C5.79398 45.3247 6.13136 44.9893 6.54086 44.9893H35.718C36.1336 44.9893 36.4649 45.3247 36.4649 45.7391C36.4649 46.677 37.2299 47.4401 38.1695 47.4401C38.5851 47.4401 38.9164 47.7756 38.9164 48.19V51.6281C38.9284 51.5848 38.9405 51.542 38.9525 51.498C39.2537 50.3235 39.6572 49.1453 40.1391 47.9985V43.7701H2.12586V61.8751H40.1391ZM46.807 37.3643H54.9385C57.396 33.6124 57.4862 31.83 57.137 31.3656C56.9322 31.0951 56.36 31.2481 56.1914 31.3011C55.6432 31.471 55.2939 31.7601 54.9566 32.039L54.9205 32.0679C54.4326 32.4678 53.8965 32.825 53.252 32.7389C52.8002 32.678 52.3966 32.4015 52.0594 31.9179C51.6016 31.2704 51.18 30.9144 50.8727 30.9144C50.5655 30.9144 50.1439 31.2704 49.6921 31.9179C49.3487 32.4015 48.9452 32.678 48.4935 32.7389C47.855 32.8256 47.3129 32.4679 46.825 32.0679L46.7949 32.039C46.4575 31.7601 46.1022 31.471 45.5601 31.3011C45.3855 31.2481 44.8132 31.0951 44.6085 31.3656C44.2651 31.8294 44.3495 33.6118 46.807 37.3643ZM44.7831 7.4655H49.0657L44.7831 3.18588V7.4655ZM55.4625 39.9844C55.7756 39.9844 56.0226 39.7331 56.0226 39.4243C56.0226 39.1154 55.7756 38.864 55.4625 38.864H46.2829C45.9756 38.864 45.7226 39.1153 45.7226 39.4243C45.7226 39.7332 45.9756 39.9844 46.2829 39.9844H55.4625ZM62.052 59.9246C59.8415 62.8321 55.1674 63.3001 50.8847 63.3749H50.8606C47.59 63.3182 44.0964 63.0297 41.6389 61.6016V62.6256C41.6389 63.0394 41.3016 63.3749 40.886 63.3749H1.37286C1.27455 63.375 1.17719 63.3556 1.08637 63.318C0.995559 63.2803 0.913079 63.2251 0.843675 63.1555C0.77427 63.0859 0.719309 63.0032 0.68195 62.9123C0.644591 62.8214 0.625571 62.7239 0.625983 62.6256V43.0202C0.625983 42.6064 0.957233 42.2704 1.37286 42.2704H40.8861C41.3017 42.2704 41.639 42.6065 41.639 43.0202V44.9627C42.5425 43.3829 43.5906 41.9409 44.7049 40.7489C44.3928 40.3781 44.2221 39.9089 44.223 39.4244C44.223 38.678 44.6266 38.0245 45.2169 37.6637C43.0665 34.2412 42.4401 31.7621 43.4099 30.467C43.952 29.7424 44.8976 29.5249 46.006 29.8689C46.8312 30.126 47.3612 30.5627 47.7467 30.882L47.7829 30.9097C48.0961 31.1706 48.2346 31.2332 48.2889 31.2476C48.319 31.229 48.3792 31.1777 48.4635 31.0536C49.0056 30.2833 49.5537 29.7905 50.126 29.5629V8.96612H44.0364C43.6207 8.96612 43.2835 8.63 43.2835 8.21563V2.12538H13.251V19.1395C13.251 19.5539 12.9197 19.8894 12.5041 19.8894C12.0885 19.8894 11.7512 19.5539 11.7512 19.1395V1.3755C11.7512 1.17675 11.8295 0.98575 11.9741 0.844875C12.0436 0.775097 12.1262 0.719749 12.2172 0.682015C12.3082 0.64428 12.4057 0.624904 12.5042 0.625L44.0365 0.625625C44.2352 0.625625 44.422 0.7045 44.5666 0.844875L51.4031 7.68563C51.4739 7.75449 51.5302 7.8369 51.5685 7.92796C51.6067 8.01901 51.6263 8.11685 51.626 8.21563V29.5624C52.1922 29.7906 52.7402 30.2834 53.2824 31.0537C53.3727 31.1779 53.4329 31.229 53.457 31.2477C53.5112 31.2332 53.6497 31.1706 53.969 30.9099L53.9991 30.8821C54.3846 30.5629 54.9147 30.1262 55.7459 29.869C56.8541 29.525 57.7937 29.7431 58.3359 30.4678C59.3056 31.7628 58.6792 34.242 56.5289 37.6632C57.1252 38.0246 57.5227 38.6781 57.5227 39.4245C57.5227 39.9286 57.342 40.3906 57.0409 40.749C59.5947 43.4734 61.7692 47.506 62.7991 51.4982C63.7629 55.2417 63.5159 57.998 62.0522 59.9249L62.052 59.9246ZM22.9122 54.509C22.7797 54.2669 22.4124 54.032 21.8822 53.8459V55.5939C22.4665 55.4873 22.864 55.2336 22.9362 54.9849C23.0085 54.7325 22.9604 54.5975 22.9121 54.509H22.9122ZM20.3825 51.8876V50.0884C20.0632 50.1691 19.7922 50.301 19.6236 50.4775C19.467 50.642 19.3887 50.8341 19.4007 51.019C19.4189 51.2208 19.5392 51.4171 19.7561 51.5858C19.9127 51.7069 20.1296 51.8044 20.3826 51.8875L20.3825 51.8876ZM24.2254 53.7831C23.864 53.1224 23.111 52.6261 21.9907 52.3074C21.9546 52.2971 21.9185 52.2887 21.8824 52.279V50.0835C21.9125 50.0914 21.9486 50.0991 21.9847 50.1087C22.2497 50.1816 22.8701 50.4032 22.9786 50.89C23.069 51.2941 23.4725 51.5465 23.8761 51.455C24.2797 51.3635 24.5326 50.9611 24.4424 50.5575C24.2376 49.66 23.4907 48.9697 22.3884 48.6637C22.222 48.6181 22.053 48.5825 21.8824 48.5571V47.9945C21.8824 47.5801 21.545 47.2446 21.1295 47.2446C20.714 47.2446 20.3826 47.5801 20.3826 47.9945V48.5625C19.6779 48.6758 19.0092 48.9546 18.5395 49.4383C18.0877 49.9135 17.8589 50.5134 17.907 51.1278C17.9491 51.7571 18.2804 52.3402 18.8346 52.7709C19.2742 53.1111 19.8285 53.3045 20.3826 53.4509V55.5283C19.8345 55.3776 19.3707 55.0801 19.2682 54.6199C19.1719 54.2169 18.7684 53.9657 18.3647 54.0597C17.9612 54.1538 17.7142 54.5573 17.8046 54.9609C18.0576 56.0439 19.0394 56.8226 20.3826 57.0649V57.6504C20.3826 58.0643 20.7139 58.4002 21.1295 58.4002C21.5451 58.4002 21.8824 58.0641 21.8824 57.6504V57.1071C23.0027 56.9668 24.0749 56.4319 24.376 55.4055C24.5446 54.8266 24.4965 54.2659 24.2255 53.7827L24.2254 53.7831ZM8.34173 53.5723C7.92611 53.5723 7.58886 53.2368 7.58886 52.8224C7.58886 52.408 7.92611 52.0725 8.34173 52.0725H9.82348C10.2391 52.0725 10.5704 52.408 10.5704 52.8224C10.5704 53.2368 10.2391 53.5723 9.82348 53.5723H8.34173ZM34.6697 52.8224C34.6697 53.2368 34.3325 53.5723 33.9229 53.5723H32.4351C32.0256 53.5723 31.6882 53.2368 31.6882 52.8224C31.6882 52.408 32.0256 52.0725 32.4351 52.0725H33.9229C34.3325 52.0725 34.6697 52.408 34.6697 52.8224Z"
                      fill="#021047"
                    />
                  </g>
                  <defs>
                    <clipPath id="clip0_4199_4232">
                      <rect width="64" height="64" fill="white" />
                    </clipPath>
                  </defs>
                </svg>