<svg xmlns="http://www.w3.org/2000/svg" width="64" height="65" viewBox="0 0 64 65"
                                    fill="none">
                                    <path fill-rule="evenodd" clip-rule="evenodd"
                                        d="M27.9606 41.043H36.0429C38.6793 41.8331 40.9648 43.378 40.9648 45.1567V55.7122H23.0389V45.1567C23.0389 43.378 25.3208 41.8331 27.9606 41.043Z"
                                        fill="#EBD2FF" />
                                    <path fill-rule="evenodd" clip-rule="evenodd"
                                        d="M37.9316 45.1567V55.7122H40.9648V45.1567C40.9648 43.378 38.6793 41.8331 36.0429 41.043H33.0099C35.6461 41.8331 37.9316 43.378 37.9316 45.1567Z"
                                        fill="#D7BEF0" />
                                    <path fill-rule="evenodd" clip-rule="evenodd"
                                        d="M11.7852 55.2282H16.5617L20.4664 54.6826L24.3393 55.2282H39.6644L43.4734 54.4805L47.4384 55.2282H52.2184V62.5416H11.7852V55.2282Z"
                                        fill="#D09080" />
                                    <path fill-rule="evenodd" clip-rule="evenodd"
                                        d="M0.939026 61.208V45.6528C0.939026 43.7395 2.50515 42.1733 4.41865 42.1733H10.166C10.2653 42.1733 10.3645 42.1768 10.4602 42.184C11.353 42.099 12.2673 42.4638 12.8483 43.2292L17.5257 49.423C17.7594 49.7347 18.0145 49.8977 18.4823 49.8977H24.3393C25.8098 49.8977 27.0039 51.0918 27.0039 52.5623C27.0039 54.0363 25.8097 55.2268 24.3393 55.2268H16.5617C16.15 55.2267 15.7439 55.131 15.3756 54.9471C15.0073 54.7632 14.6867 54.4963 14.4392 54.1673L13.6454 53.1185V62.5401H2.26778C1.5909 62.4198 1.0559 61.8847 0.939026 61.208Z"
                                        fill="#FF6978" />
                                    <path fill-rule="evenodd" clip-rule="evenodd"
                                        d="M63.0646 61.208V45.6528C63.0646 43.7395 61.4985 42.1733 59.5816 42.1733H53.8378C53.7385 42.1733 53.6394 42.1768 53.5401 42.184C52.6472 42.099 51.733 42.4638 51.152 43.2292L46.4781 49.423C46.2621 49.7065 46.0105 49.8977 45.5215 49.8977H39.6645C38.1905 49.8977 36.9964 51.0918 36.9964 52.5623C36.9964 54.0363 38.1905 55.2268 39.6645 55.2268H47.4385C47.8507 55.2268 48.2573 55.131 48.6262 54.9472C48.9951 54.7633 49.3164 54.4964 49.5646 54.1673L50.3548 53.1185V62.5401H61.7324C62.409 62.4198 62.9441 61.8847 63.0646 61.208Z"
                                        fill="#CCF49F" />
                                    <path fill-rule="evenodd" clip-rule="evenodd"
                                        d="M28.6019 26.0575H43.8666L47.7288 29.9198C48.0371 30.2245 48.3879 30.0474 48.3879 29.6434V26.0574C50.3544 26.0574 51.9631 24.4453 51.9631 22.4786V13.4503C51.9631 11.4838 50.3545 9.875 48.3879 9.875H28.6019C26.6354 9.875 25.023 11.4836 25.023 13.4503V22.4786C25.0231 24.4454 26.6354 26.0575 28.6019 26.0575Z"
                                        fill="#ECF4FF" />
                                    <path fill-rule="evenodd" clip-rule="evenodd"
                                        d="M10.7221 22.4519H26.7808C29.3921 22.4519 31.5286 20.3153 31.5286 17.7039V7.20153C31.5286 4.59366 29.392 2.45703 26.7808 2.45703H6.20088C3.58926 2.45703 1.45276 4.59366 1.45276 7.20153V17.7039C1.45276 20.3154 3.58938 22.4519 6.20088 22.4519V26.0413C6.20088 26.424 6.57651 26.5975 6.86001 26.3142L10.7221 22.4519Z"
                                        fill="#ECF4FF" />
                                    <path fill-rule="evenodd" clip-rule="evenodd"
                                        d="M37.0599 38.3421C37.0599 41.1236 34.7815 43.4018 32 43.4018C29.2185 43.4018 26.9401 41.1235 26.9401 38.3421V32.9208C26.9401 31.3618 28.2156 30.0898 29.7747 30.0898H36.305C36.826 30.0898 37.0599 30.3875 37.0599 30.8411V38.3421Z"
                                        fill="#FFCBBE" />
                                    <path fill-rule="evenodd" clip-rule="evenodd"
                                        d="M26.9401 32.921V34.5545H37.0599V30.8411C37.0599 30.3875 36.826 30.0898 36.305 30.0898H29.7747C28.2157 30.09 26.9401 31.3621 26.9401 32.921Z"
                                        fill="#FFE5A0" />
                                    <path fill-rule="evenodd" clip-rule="evenodd"
                                        d="M2.2323 38.3421C2.2323 41.1236 4.51068 43.4018 7.29218 43.4018C10.0737 43.4018 12.352 41.1235 12.352 38.3421V32.9208C12.352 31.3618 11.0764 30.0898 9.5173 30.0898H5.06355C3.50805 30.0898 2.23242 31.362 2.23242 32.9208L2.2323 38.3421Z"
                                        fill="#FFCBBE" />
                                    <path fill-rule="evenodd" clip-rule="evenodd"
                                        d="M61.7678 38.3421C61.7678 41.1236 59.493 43.4018 56.7114 43.4018C53.9264 43.4018 51.6517 41.1235 51.6517 38.3421V32.9208C51.6517 31.3618 52.9237 30.0898 54.4827 30.0898H58.9367C60.4958 30.0898 61.7678 31.362 61.7678 32.9208V38.3421Z"
                                        fill="#C68B87" />
                                    <path fill-rule="evenodd" clip-rule="evenodd"
                                        d="M61.7678 38.3431C61.7678 41.1246 59.493 43.4029 56.7114 43.4029C56.1834 43.4029 55.6732 43.3179 55.1913 43.1691C57.0905 42.5667 58.5114 40.873 58.7099 38.8356C59.5037 38.9702 60.5028 38.8994 61.7643 38.5204L61.7678 32.9219V38.3431Z"
                                        fill="#BD7D79" />
                                    <path fill-rule="evenodd" clip-rule="evenodd"
                                        d="M12.3522 32.9208V34.891C10.9242 35.419 9.75492 34.9867 9.07105 34.5968C8.53955 34.2957 8.44742 34.2921 8.38367 34.7811C8.1993 36.202 7.55805 40.1245 2.23942 38.5193L2.2323 32.9208C2.2323 31.3618 3.50792 30.0898 5.06342 30.0898H9.51755C11.0765 30.0898 12.3522 31.362 12.3522 32.9208Z"
                                        fill="#C68B87" />
                                    <path fill-rule="evenodd" clip-rule="evenodd"
                                        d="M51.6516 32.9208V34.891C53.0759 35.419 54.2452 34.9867 54.9291 34.5968C55.4641 34.2957 55.5527 34.2921 55.6164 34.7811C55.8008 36.202 56.4421 40.1245 61.7643 38.5193L61.7678 32.9208C61.7713 31.3618 60.4957 30.0898 58.9367 30.0898H54.4825C52.9235 30.0898 51.6516 31.362 51.6516 32.9208Z"
                                        fill="#477B9E" />
                                    <path fill-rule="evenodd" clip-rule="evenodd"
                                        d="M58.7345 32.921V38.3422C58.7345 38.5087 58.7274 38.6718 58.7099 38.8347C59.5036 38.9693 60.5028 38.8985 61.7643 38.5195L61.7678 32.921C61.7678 31.4292 60.602 30.1997 59.1351 30.097C59.0678 30.0898 59.004 30.0898 58.9366 30.0898H55.9035C57.4624 30.09 58.7345 31.3621 58.7345 32.921Z"
                                        fill="#365E7D" />
                                    <path fill-rule="evenodd" clip-rule="evenodd"
                                        d="M9.31913 38.3446C9.31913 40.5981 7.82376 42.5222 5.77576 43.1706C6.25401 43.3193 6.76426 43.4043 7.29226 43.4043C10.0738 43.4043 12.3521 41.126 12.3521 38.3446V34.8935C11.0836 35.3647 10.0206 35.0741 9.31901 34.7305L9.31913 38.3446Z"
                                        fill="#F7BEAF" />
                                    <path fill-rule="evenodd" clip-rule="evenodd"
                                        d="M6.48438 30.0898C8.0435 30.0898 9.31913 31.362 9.31913 32.9208V34.728C10.0206 35.0716 11.0836 35.3622 12.3523 34.891V32.9208C12.3523 31.3618 11.0766 30.0898 9.5175 30.0898H6.48438Z"
                                        fill="#BD7D79" />
                                    <path fill-rule="evenodd" clip-rule="evenodd"
                                        d="M34.0268 38.3424C34.0268 40.5959 32.5315 42.5201 30.4835 43.1684C30.9618 43.3172 31.472 43.4022 32 43.4022C34.7815 43.4022 37.0599 41.1238 37.0599 38.3424V34.5547H34.0266L34.0268 38.3424Z"
                                        fill="#F7BEAF" />
                                    <path fill-rule="evenodd" clip-rule="evenodd"
                                        d="M34.0268 30.8411V34.5545H37.06V30.8411C37.06 30.3875 36.8262 30.0898 36.3052 30.0898H33.2722C33.7929 30.0898 34.0268 30.3875 34.0268 30.8411Z"
                                        fill="#F2CE7E" />
                                    <path fill-rule="evenodd" clip-rule="evenodd"
                                        d="M10.9809 49.5905C10.8604 49.4275 10.6125 49.5091 10.6125 49.7145V62.5414H13.6455V53.1197L10.9809 49.5905Z"
                                        fill="#CF4351" />
                                    <path fill-rule="evenodd" clip-rule="evenodd"
                                        d="M60.0315 45.6536V61.2087C59.911 61.8854 59.376 62.4204 58.6992 62.5409H61.7324C62.4092 62.4204 62.9442 61.8854 63.0647 61.2087V45.6536C63.0647 43.8749 61.7077 42.3938 59.9784 42.1953C59.6103 42.5105 59.1985 42.7706 58.7559 42.9678C59.5319 43.6056 60.0315 44.5764 60.0315 45.6536Z"
                                        fill="#B3E59F" />
                                    <path fill-rule="evenodd" clip-rule="evenodd"
                                        d="M25.0621 22.9852C25.31 24.7143 26.8055 26.0572 28.6019 26.0572H43.8666L47.7288 29.9194C48.0371 30.2242 48.3879 30.047 48.3879 29.643V26.057C50.3544 26.057 51.9631 24.4449 51.9631 22.4783V13.4499C51.9631 11.6535 50.6238 10.1582 48.8946 9.91016C48.9194 10.0768 48.93 10.2433 48.93 10.4169V19.4454C48.93 21.4119 47.3213 23.0207 45.3546 23.0207H25.5689C25.3993 23.0215 25.2299 23.0096 25.0621 22.9852Z"
                                        fill="#DDEAFB" />
                                    <path fill-rule="evenodd" clip-rule="evenodd"
                                        d="M28.4957 14.6713C28.4957 16.8399 27.0216 18.6824 25.0231 19.2422C24.608 19.3592 24.1789 19.4188 23.7476 19.4193H3.16775C2.65037 19.4193 2.15437 19.3343 1.69025 19.1819C2.31387 21.0742 4.10325 22.4524 6.201 22.4524V26.0418C6.201 26.4245 6.57662 26.598 6.86012 26.3147L10.7222 22.4524H26.7807C29.3921 22.4524 31.5286 20.3158 31.5286 17.7044V7.20203C31.5286 5.10791 30.1504 3.31866 28.2582 2.69141C28.4148 3.16831 28.4949 3.66697 28.4956 4.16891V14.6713H28.4957Z"
                                        fill="#DDEAFB" />
                                    <path fill-rule="evenodd" clip-rule="evenodd"
                                        d="M47.3214 55.2266H50.3547V62.5399H47.3214V55.2266Z" fill="#BE694F" />
                                    <path
                                        d="M3.42287 39.7589C3.63008 40.3214 3.95783 40.8317 4.38312 41.2542C5.13075 42.0018 6.1585 42.4659 7.29225 42.4659C8.42263 42.4659 9.45375 42.0018 10.2013 41.2542C10.9489 40.5067 11.4131 39.4755 11.4131 38.3452V36.0527C10.545 36.1272 9.78312 35.9393 9.18787 35.6912C9.13462 35.9498 9.0745 36.2014 8.9965 36.4494C8.70238 37.406 8.20988 38.2778 7.43038 38.9049C6.64025 39.5428 5.59137 39.9113 4.20237 39.8404C3.95438 39.8297 3.69562 39.8014 3.42287 39.7589ZM27.7091 33.6183H35.9509V31.0282H29.6047C29.0839 31.0282 28.609 31.2444 28.2654 31.588C27.9216 31.9318 27.7091 32.403 27.7091 32.9239V33.6183ZM35.9507 35.4928H27.709V38.345C27.709 39.4754 28.1731 40.5065 28.9207 41.254C29.6682 42.0017 30.6994 42.4658 31.8298 42.4658C32.9635 42.4658 33.9946 42.0017 34.7389 41.254C35.4864 40.5065 35.9506 39.4754 35.9506 38.345L35.9507 35.4928ZM61.6401 41.7503C62.1432 42.016 62.5861 42.3775 62.9511 42.8062C63.6066 43.5787 64 44.5743 64 45.6549V51.9762C64.0001 52.099 63.976 52.2207 63.929 52.3342C63.8821 52.4478 63.8132 52.5509 63.7263 52.6378C63.6394 52.7247 63.5363 52.7936 63.4227 52.8406C63.3092 52.8875 63.1875 52.9116 63.0646 52.9115C62.5472 52.9115 62.1255 52.4934 62.1255 51.9762V45.6549C62.1255 45.0314 61.8988 44.4573 61.5233 44.0144C61.1846 43.6149 60.7322 43.3281 60.2264 43.1924C59.2068 43.9396 57.9754 44.3418 56.7114 44.3405C55.3543 44.3405 54.0999 43.8869 53.09 43.118C52.8988 43.1393 52.7145 43.1925 52.5373 43.2739C52.2962 43.3873 52.0766 43.561 51.8994 43.7948L46.8643 50.4634C46.6871 50.6973 46.4107 50.839 46.1167 50.839H39.6644C39.186 50.839 38.7537 51.0303 38.442 51.342C38.1301 51.6574 37.9352 52.0897 37.9352 52.5645C37.9352 53.0428 38.1301 53.475 38.442 53.7869C38.6024 53.9477 38.7929 54.0752 39.0026 54.1622C39.2124 54.2492 39.4373 54.2938 39.6644 54.2937H47.371C47.6794 54.2937 47.9166 54.2617 48.2109 54.1129C48.7566 53.84 49.2668 53.011 49.6389 52.5149L52.9731 48.1035C53.0469 48.0051 53.1395 47.9223 53.2454 47.8597C53.3513 47.7971 53.4685 47.7561 53.5903 47.739C53.7122 47.7219 53.8362 47.729 53.9552 47.7599C54.0743 47.7909 54.1861 47.845 54.2841 47.9193C54.6953 48.231 54.7766 48.8192 54.4649 49.2302L51.2936 53.4325V61.6034H62.1255V56.221C62.1255 55.7037 62.5472 55.2857 63.0646 55.2857C63.1875 55.2855 63.3092 55.3097 63.4227 55.3566C63.5363 55.4036 63.6394 55.4725 63.7263 55.5594C63.8132 55.6462 63.8821 55.7494 63.929 55.8629C63.976 55.9765 64.0001 56.0982 64 56.221V62.5423C64.0001 62.6651 63.976 62.7868 63.929 62.9004C63.8821 63.0139 63.8132 63.1171 63.7263 63.2039C63.6394 63.2908 63.5363 63.3597 63.4227 63.4067C63.3092 63.4537 63.1875 63.4778 63.0646 63.4777H0.939C0.421625 63.4777 0 63.0595 0 62.5423V56.221C0 55.7037 0.421625 55.2857 0.939 55.2857C1.45638 55.2857 1.87437 55.7038 1.87437 56.221V61.6034H12.71V53.4325L9.53525 49.2302C9.2235 48.8192 9.30488 48.231 9.71963 47.9193C10.1306 47.6074 10.7188 47.6889 11.0306 48.1035L14.2904 52.4193C14.5881 52.8125 14.8858 53.2094 15.1833 53.6062C15.3533 53.8294 15.5624 53.9994 15.7928 54.1129C16.0515 54.244 16.2924 54.2937 16.576 54.2937H24.3393C24.8141 54.2937 25.2464 54.0987 25.5616 53.7869C25.7219 53.6264 25.8489 53.4357 25.9352 53.2259C26.0216 53.0162 26.0656 52.7914 26.0648 52.5645C26.0651 52.1066 25.8842 51.6671 25.5616 51.342C25.2366 51.0195 24.7971 50.8387 24.3393 50.839H17.8834C17.7382 50.8387 17.595 50.8046 17.4653 50.7394C17.3356 50.6742 17.2228 50.5797 17.1359 50.4634L12.1007 43.7948C11.9587 43.607 11.7798 43.4502 11.5752 43.3339C11.3705 43.2175 11.1442 43.1441 10.9102 43.118C9.90387 43.8834 8.64962 44.3405 7.2925 44.3405C6.02804 44.3414 4.79598 43.9406 3.774 43.196C3.27087 43.3272 2.82438 43.6142 2.49125 43.9968C2.1085 44.4432 1.87462 45.0208 1.87462 45.655V51.9763C1.87462 52.4937 1.4565 52.9117 0.93925 52.9117C0.422 52.9117 0 52.4935 0 51.9762V45.6549C0 44.56 0.4075 43.5503 1.07712 42.7743C1.43862 42.3598 1.87437 42.0089 2.36337 41.7503C1.66762 40.7512 1.29535 39.5626 1.29688 38.3452V32.9239C1.29688 31.8857 1.7185 30.9432 2.40237 30.2594C3.08637 29.5792 4.02525 29.1539 5.0635 29.1539H9.5175C10.5557 29.1539 11.4983 29.579 12.182 30.2594C12.8659 30.9433 13.2876 31.8858 13.2876 32.9239V38.3452C13.2884 39.5043 12.951 40.6384 12.3166 41.6085C12.8234 41.8637 13.252 42.2145 13.5957 42.668L18.3475 48.9609H22.0998V45.159C22.0998 44.0819 22.6702 43.1074 23.5951 42.2818C24.3109 41.644 25.2534 41.0877 26.2951 40.6484C25.9901 39.9189 25.8334 39.1359 25.8344 38.3452V32.9239C25.8344 31.8857 26.2596 30.9432 26.9401 30.2594C27.624 29.5792 28.5665 29.1539 29.6046 29.1539H36.8896C37.407 29.1539 37.8288 29.5755 37.8288 30.0929V38.3453C37.8288 39.1142 37.68 39.8513 37.4141 40.5315C38.5339 40.9709 39.5473 41.5378 40.3128 42.1968C41.2941 43.0402 41.9001 44.0464 41.9001 45.159V48.9609H45.6524L50.4041 42.668C50.7432 42.2206 51.1826 41.8589 51.6869 41.6122C51.0504 40.6415 50.7116 39.5059 50.7124 38.3452V32.9239C50.7124 31.8857 51.1376 30.9432 51.818 30.2594C52.5019 29.5792 53.4444 29.1539 54.4825 29.1539H58.9365C59.9749 29.1539 60.9172 29.579 61.6011 30.2594C62.2814 30.9433 62.7066 31.8858 62.7066 32.9239V38.3452C62.7066 39.5639 62.3346 40.7474 61.6401 41.7503ZM60.5771 39.7589C60.3079 39.8014 60.0456 39.8297 59.7976 39.8404C58.412 39.9112 57.3633 39.5427 56.5731 38.9049C55.79 38.2778 55.2975 37.4062 55.0034 36.4494C54.9279 36.2 54.8652 35.9469 54.8155 35.6912C54.2167 35.9392 53.4585 36.127 52.5868 36.0527V38.3452C52.5868 39.4755 53.051 40.5067 53.7986 41.2542C54.5461 42.0018 55.5774 42.4659 56.7113 42.4659C57.8415 42.4659 58.8726 42.0018 59.6204 41.2542C60.0435 40.8307 60.3699 40.3206 60.5771 39.7589ZM52.5868 34.1747C53.8376 34.3518 54.7518 33.6254 54.9147 33.4838C55.099 33.3278 55.2726 33.2322 55.5243 33.2215C55.6469 33.2154 55.7696 33.2336 55.8852 33.275C56.0008 33.3165 56.1071 33.3803 56.198 33.4629C56.2888 33.5456 56.3625 33.6453 56.4147 33.7565C56.4669 33.8677 56.4966 33.9881 56.5021 34.1108C56.534 34.7203 56.619 35.3368 56.7926 35.9002C56.984 36.5274 57.2851 37.08 57.7422 37.4485C58.1924 37.81 58.8267 38.0155 59.7089 37.9729C60.0491 37.9552 60.4211 37.9022 60.8321 37.8099V32.9237C60.8321 32.4028 60.616 31.9315 60.2723 31.5878C59.9285 31.2442 59.4572 31.0279 58.9362 31.0279H54.4825C53.9616 31.0279 53.4902 31.2442 53.1466 31.5878C52.8029 31.9315 52.5868 32.4028 52.5868 32.9237V34.1747ZM11.4132 34.1747V32.9238C11.4132 32.4029 11.2006 31.9317 10.8569 31.5879C10.5133 31.2443 10.0384 31.028 9.5175 31.028H5.0635C4.54612 31.028 4.07125 31.2443 3.7275 31.5879C3.38387 31.9317 3.17125 32.4029 3.17125 32.9238V37.81C3.57875 37.9022 3.95075 37.9553 4.291 37.973C5.17325 38.0157 5.80763 37.81 6.25763 37.4487C6.71462 37.0803 7.01575 36.5275 7.21075 35.9003C7.38438 35.3368 7.46937 34.7204 7.49775 34.1109C7.50355 33.9883 7.53345 33.868 7.58574 33.757C7.63803 33.646 7.71168 33.5463 7.80249 33.4637C7.89329 33.3811 7.99948 33.3173 8.11498 33.2757C8.23048 33.2342 8.35302 33.2158 8.47563 33.2217C8.71663 33.2323 8.90088 33.3208 9.078 33.4767C9.20925 33.5935 10.1376 34.3553 11.4132 34.1747ZM27.298 42.2605C26.32 42.6397 25.4555 43.1215 24.8389 43.6743C24.3039 44.1492 23.9743 44.6594 23.9743 45.159V48.9609H24.3393C25.3315 48.9609 26.2349 49.3649 26.887 50.0168C27.539 50.6688 27.9429 51.5688 27.9429 52.5645C27.9429 53.1917 27.7799 53.7799 27.5 54.2937H36.5C36.2108 53.7633 36.0597 53.1686 36.0606 52.5645C36.0606 51.5688 36.4645 50.6688 37.1165 50.0168C37.7686 49.3649 38.6685 48.9609 39.6642 48.9609H40.0257V45.159C40.0257 44.6417 39.6714 44.1102 39.0974 43.6177C38.424 43.0402 37.4886 42.5405 36.4469 42.1614C36.327 42.3065 36.2005 42.4461 36.0677 42.5795C34.9799 43.6673 33.4811 44.3407 31.83 44.3407C30.1822 44.3407 28.68 43.6673 27.5958 42.5795C27.4929 42.4766 27.3936 42.3702 27.298 42.2605ZM7.81313 8.46078C7.29575 8.46078 6.87775 8.03916 6.87775 7.52178C6.87775 7.00441 7.29588 6.58641 7.81313 6.58641H25.1684C25.2912 6.58629 25.4129 6.61041 25.5265 6.65737C25.64 6.70434 25.7432 6.77323 25.83 6.86011C25.9169 6.947 25.9858 7.05016 26.0328 7.16369C26.0798 7.27723 26.1039 7.39891 26.1038 7.52178C26.1038 8.03916 25.6856 8.46078 25.1684 8.46078H7.81313ZM7.81313 18.3254C7.29575 18.3254 6.87775 17.9038 6.87775 17.3864C6.87775 16.869 7.29588 16.4474 7.81313 16.4474H16.4909C17.0083 16.4474 17.4299 16.869 17.4299 17.3864C17.4299 17.9038 17.0083 18.3254 16.4909 18.3254H7.81313ZM7.81313 13.3932C7.29575 13.3932 6.87775 12.9715 6.87775 12.4542C6.87775 11.9368 7.29588 11.5187 7.81313 11.5187H25.1684C25.2913 11.5185 25.4129 11.5427 25.5265 11.5896C25.64 11.6366 25.7432 11.7055 25.8301 11.7924C25.917 11.8793 25.9859 11.9825 26.0328 12.096C26.0798 12.2096 26.1039 12.3313 26.1038 12.4542C26.1038 12.9715 25.6856 13.3932 25.1684 13.3932H7.81313ZM26.1286 23.3888C26.2576 23.7484 26.4646 24.0751 26.7346 24.3454C26.9789 24.592 27.2698 24.7876 27.5904 24.9208C27.9109 25.054 28.2547 25.1222 28.6019 25.1214H34.1118C34.6291 25.1214 35.0471 25.5397 35.0471 26.0604C35.0473 26.1833 35.0232 26.305 34.9762 26.4185C34.9292 26.5321 34.8603 26.6353 34.7735 26.7222C34.6866 26.809 34.5834 26.878 34.4699 26.9249C34.3563 26.9719 34.2346 26.996 34.1118 26.9959H28.6019C27.3511 26.9959 26.2243 26.4857 25.4093 25.6635C24.7896 25.0395 24.3638 24.2495 24.1833 23.3888H11.112L6.86713 27.6337C6.77987 27.7215 6.67608 27.7911 6.56174 27.8385C6.4474 27.886 6.32479 27.9103 6.201 27.91C5.68363 27.91 5.26188 27.4919 5.26188 26.9747V23.3109C4.07137 23.1124 3.00475 22.542 2.18637 21.7199C1.15525 20.6923 0.5175 19.2714 0.5175 17.7053V7.20303C0.5175 5.64041 1.15537 4.21953 2.18637 3.18853C3.214 2.16091 4.63475 1.51953 6.201 1.51953H26.7809C28.3469 1.51953 29.7679 2.16091 30.7954 3.18853C31.8265 4.21953 32.4644 5.64041 32.4644 7.20303V8.93928H48.3882C49.6319 8.93928 50.7588 9.44603 51.5773 10.2645C52.3958 11.083 52.9025 12.2098 52.9025 13.4535V22.4819C52.9025 23.7257 52.3958 24.8524 51.5773 25.6709C50.9603 26.2887 50.1776 26.7146 49.3237 26.897V30.582C49.3241 30.705 49.3002 30.8269 49.2534 30.9406C49.2066 31.0543 49.1378 31.1576 49.0509 31.2447C48.6859 31.6095 48.0906 31.6095 47.7256 31.2447L43.4771 26.9963H38.357C37.8396 26.9963 37.418 26.578 37.418 26.0608C37.4179 25.9374 37.4422 25.8153 37.4893 25.7013C37.5365 25.5874 37.6056 25.4838 37.6928 25.3966C37.7801 25.3094 37.8836 25.2403 37.9976 25.1931C38.1115 25.1459 38.2337 25.1217 38.357 25.1218H43.8669C44.1291 25.1218 44.363 25.2282 44.533 25.4017L47.4491 28.3178V26.0607C47.4491 25.9373 47.4733 25.8152 47.5205 25.7012C47.5677 25.5872 47.6368 25.4837 47.724 25.3965C47.8113 25.3093 47.9148 25.2401 48.0288 25.193C48.1428 25.1458 48.2649 25.1216 48.3882 25.1217C49.111 25.1217 49.7736 24.824 50.252 24.3457C50.7302 23.8674 51.028 23.2083 51.028 22.4819V13.4535C51.028 12.7272 50.7302 12.0682 50.252 11.5898C49.7736 11.1114 49.111 10.8138 48.3882 10.8138H32.4642V17.7055C32.4642 19.2717 31.8264 20.6925 30.7952 21.7202C29.7676 22.7512 28.3468 23.389 26.7808 23.389H26.1286V23.3888ZM10.7221 21.5144H26.7808C27.8295 21.5144 28.7791 21.0857 29.4701 20.3948C30.161 19.7038 30.5898 18.7507 30.5898 17.7053V7.20303C30.5898 6.15778 30.161 5.20466 29.4701 4.51366C28.7793 3.82266 27.8295 3.39391 26.7808 3.39391H6.20087C5.15187 3.39391 4.20237 3.82266 3.51137 4.51366C2.8205 5.20453 2.39162 6.15766 2.39162 7.20303V17.7054C2.39162 18.7507 2.8205 19.7038 3.51137 20.3949C4.20225 21.0858 5.15187 21.5145 6.20087 21.5145C6.71825 21.5145 7.13625 21.9362 7.13625 22.4535V24.7107L10.0595 21.791C10.1461 21.7033 10.2493 21.6337 10.3631 21.5863C10.4768 21.5388 10.5989 21.5143 10.7221 21.5144ZM49.4191 56.1679H14.5844V61.6033H49.4193V56.1679H49.4191Z"
                                        fill="black" />
                                </svg>