<svg xmlns="http://www.w3.org/2000/svg"
                                    width="18" height="18" viewBox="0 0 18 18"
                                    fill="none">
                                    <path
                                        d="M4.34227 2.17562C4.34227 3.37718 3.37022 4.35124 2.17113 4.35124C0.97205 4.35124 0 3.37718 0 2.17562C0 0.974058 0.97205 0 2.17113 0C3.37022 0 4.34227 0.974058 4.34227 2.17562Z"
                                        fill="white" />
                                    <path
                                        d="M0.296907 5.95041H4.00825V18H0.296907V5.95041Z"
                                        fill="white" />
                                    <path
                                        d="M9.98351 5.95041H6.27217V18H9.98351C9.98351 18 9.98351 14.2066 9.98351 11.8348C9.98351 10.4112 10.4372 8.9814 12.2474 8.9814C14.2932 8.9814 14.2809 10.8444 14.2714 12.2877C14.2589 14.1743 14.2887 16.0995 14.2887 18H18V11.6405C17.9686 7.57977 16.981 5.70868 13.732 5.70868C11.8025 5.70868 10.6065 6.64722 9.98351 7.49635V5.95041Z"
                                        fill="white" />
                                </svg>