<svg xmlns="http://www.w3.org/2000/svg" width="48" height="48" viewBox="0 0 48 48"
                                    fill="none">
                                    <path fill-rule="evenodd" clip-rule="evenodd"
                                        d="M13.0429 16.941C12.9513 15.6707 13.059 14.4736 13.059 14.4736C12.8244 14.2587 12.4132 13.8744 11.9562 13.5431C11.2167 13.0068 10.3575 12.6089 9.93403 13.2914C9.55331 13.9052 10.1207 15.306 10.2264 15.9668C10.5377 17.9131 10.8076 19.6513 13.0429 16.941Z"
                                        fill="#F9C795" />
                                    <path fill-rule="evenodd" clip-rule="evenodd"
                                        d="M12.0409 14.432C12.0209 14.3509 11.9849 14.2746 11.9351 14.2076C11.8853 14.1405 11.8227 14.084 11.7509 14.0414C11.679 13.9987 11.5994 13.9708 11.5167 13.9592C11.434 13.9476 11.3498 13.9526 11.269 13.9739C11.1882 13.9951 11.1125 14.0322 11.0461 14.083C10.9798 14.1338 10.9243 14.1973 10.8828 14.2698C10.8412 14.3423 10.8145 14.4223 10.8042 14.5052C10.7938 14.5881 10.8001 14.6722 10.8226 14.7526C10.9155 15.1021 10.9802 15.3963 11.0328 15.6925C11.0853 15.9884 11.1245 16.2819 11.1666 16.6321C11.1763 16.7144 11.2021 16.7939 11.2426 16.8662C11.2831 16.9385 11.3374 17.0021 11.4024 17.0534C11.4674 17.1047 11.5419 17.1427 11.6217 17.1652C11.7014 17.1877 11.7848 17.1943 11.867 17.1846C11.9493 17.1749 12.0288 17.1491 12.1011 17.1086C12.1734 17.0682 12.237 17.0139 12.2883 16.9488C12.3396 16.8838 12.3776 16.8093 12.4001 16.7296C12.4226 16.6498 12.4292 16.5665 12.4195 16.4842C12.3744 16.1086 12.3324 15.7937 12.2759 15.4754C12.2194 15.1575 12.1471 14.8318 12.0409 14.432Z"
                                        fill="#EDB47C" />
                                    <path fill-rule="evenodd" clip-rule="evenodd"
                                        d="M27.1572 16.941C27.2488 15.6707 27.1411 14.4736 27.1411 14.4736C27.3757 14.2587 27.787 13.8744 28.2438 13.5431C28.9833 13.0068 29.8426 12.6089 30.266 13.2914C30.6467 13.9052 30.0792 15.306 29.9736 15.9668C29.6623 17.9131 29.3925 19.6513 27.1572 16.941Z"
                                        fill="#F9C795" />
                                    <path fill-rule="evenodd" clip-rule="evenodd"
                                        d="M28.1593 14.432C28.1793 14.3509 28.2153 14.2746 28.2651 14.2076C28.3149 14.1405 28.3775 14.084 28.4494 14.0414C28.5212 13.9987 28.6008 13.9708 28.6835 13.9592C28.7662 13.9476 28.8504 13.9526 28.9312 13.9739C29.012 13.9951 29.0878 14.0322 29.1541 14.083C29.2204 14.1338 29.2759 14.1973 29.3175 14.2698C29.359 14.3423 29.3857 14.4223 29.3961 14.5052C29.4064 14.5881 29.4001 14.6722 29.3777 14.7526C29.2848 15.1021 29.22 15.3963 29.1674 15.6925C29.1149 15.9884 29.0757 16.2819 29.0336 16.6321C29.014 16.7983 28.9292 16.9498 28.7978 17.0534C28.6665 17.157 28.4993 17.2042 28.3332 17.1846C28.167 17.165 28.0155 17.0802 27.9119 16.9488C27.8083 16.8175 27.7611 16.6503 27.7807 16.4842C27.8258 16.1086 27.8678 15.7937 27.9243 15.4754C27.9808 15.1575 28.0531 14.8318 28.1593 14.432Z"
                                        fill="#EDB47C" />
                                    <path fill-rule="evenodd" clip-rule="evenodd"
                                        d="M20.1002 32.2505L15.0967 27.7893C15.6058 26.5919 15.8655 24.1231 15.8759 20.3828H24.3245C24.3349 24.123 24.5946 26.5918 25.1037 27.7893L20.1002 32.2505Z"
                                        fill="#EDBB8A" />
                                    <path fill-rule="evenodd" clip-rule="evenodd"
                                        d="M20.1004 32.2493L16.7861 29.2943C17.1634 27.9579 17.3564 25.6827 17.3653 22.4688H24.3608C24.4488 25.0564 24.6965 26.8297 25.104 27.7882L20.1005 32.2494L20.1004 32.2493Z"
                                        fill="#F9C795" />
                                    <path fill-rule="evenodd" clip-rule="evenodd"
                                        d="M11.9565 13.5439C12.195 16.2131 12.9427 20.5734 14.7296 22.5474C15.4221 23.3125 17.4525 25.5012 18.4954 25.9112C19.1564 26.1709 19.3994 25.9364 20.1003 25.9289C20.8013 25.9365 21.0444 26.171 21.7053 25.9112C22.7483 25.5011 24.7786 23.3125 25.4712 22.5474C27.258 20.5733 28.0057 16.213 28.2442 13.5439C28.2442 7.69412 24.1697 5.09941 20.1003 5.06641C16.031 5.09941 11.9565 7.69403 11.9565 13.5439Z"
                                        fill="#F2CB9F" />
                                    <path fill-rule="evenodd" clip-rule="evenodd"
                                        d="M16.2027 24.091C17.0027 24.8802 17.9065 25.6788 18.4953 25.9104C19.1562 26.1702 19.3993 25.9356 20.1002 25.9281C20.8012 25.9357 21.0443 26.1702 21.7052 25.9104C22.7482 25.5003 24.7785 23.3117 25.4711 22.5466C27.2579 20.5725 28.0056 16.2122 28.2441 13.5432C28.2441 9.66369 26.4519 7.21634 24.0579 5.99788C23.2893 5.7755 22.4903 5.66319 21.6912 5.65625C17.6218 5.69122 13.5474 8.44897 13.5474 14.6664C13.7806 17.4399 14.5006 21.9313 16.2026 24.091H16.2027Z"
                                        fill="#FDD7AD" />
                                    <path fill-rule="evenodd" clip-rule="evenodd"
                                        d="M39.1355 41.2137V37.8269C39.1355 32.5811 34.63 31.6617 28.0889 28.9564L25.4541 26.8672L20.1002 31.6407L14.7464 26.8672L12.1115 28.9564C5.57047 31.6617 1.06494 32.5811 1.06494 37.8269V41.2137H39.1355Z"
                                        fill="#4F5D99" />
                                    <path fill-rule="evenodd" clip-rule="evenodd"
                                        d="M31.6954 30.3933C31.3993 30.276 31.1031 30.1593 30.8066 30.043L26.1538 41.2142H27.1884L31.6953 30.3932L31.6954 30.3933Z"
                                        fill="#45518A" />
                                    <path fill-rule="evenodd" clip-rule="evenodd"
                                        d="M14.0464 41.2137L9.39355 30.0425L12.1113 28.9565L14.7461 26.8672L20.1 31.6407L25.454 26.8672L28.0888 28.9565L30.8065 30.0425L26.1538 41.2137H20.1H14.0464Z"
                                        fill="#E7EBF5" />
                                    <path fill-rule="evenodd" clip-rule="evenodd"
                                        d="M20.1004 31.6406L22.6441 34.2536L21.5015 35.9874L22.1282 41.2136H18.0725L18.6993 35.9874L17.5566 34.2536L20.1004 31.6406Z"
                                        fill="#6A75AD" />
                                    <path fill-rule="evenodd" clip-rule="evenodd"
                                        d="M20.1 31.6406L22.6438 34.2536L21.5011 35.9874L22.1279 41.2136H19.1158L19.6123 35.9874L18.4697 34.2536L20.1 31.6406Z"
                                        fill="#7986BF" />
                                    <path fill-rule="evenodd" clip-rule="evenodd"
                                        d="M20.1004 31.6406L22.6442 34.2536L21.5015 35.9874H18.6993L17.5566 34.2536L20.1004 31.6406Z"
                                        fill="#45518A" />
                                    <path fill-rule="evenodd" clip-rule="evenodd"
                                        d="M20.5567 32.1094L22.6438 34.2533L21.5011 35.9871H19.6123L18.4697 34.2533L20.5567 32.1094Z"
                                        fill="#4F5D99" />
                                    <path fill-rule="evenodd" clip-rule="evenodd"
                                        d="M20.3744 31.9228L16.2553 36.154L12.1113 28.957L16.319 35.5253L20.1001 31.6413L20.3744 31.9228Z"
                                        fill="#D6DBE8" />
                                    <path fill-rule="evenodd" clip-rule="evenodd"
                                        d="M20.1 31.6407L16.3189 35.5248L12.1113 28.9565L14.7463 26.8672L20.1 31.6407ZM20.1 31.6407L23.8814 35.5248L28.0889 28.9565L25.454 26.8672L20.1 31.6407Z"
                                        fill="white" />
                                    <path fill-rule="evenodd" clip-rule="evenodd"
                                        d="M8.50488 30.3933C8.79466 30.2784 9.09101 30.1618 9.39363 30.043L14.0464 41.2142H13.0117L8.50488 30.3933Z"
                                        fill="#45518A" />
                                    <path fill-rule="evenodd" clip-rule="evenodd"
                                        d="M20.1001 32.2043L23.9451 36.154L28.0889 28.957L23.8812 35.5253L20.1001 31.6413V32.2043Z"
                                        fill="#C7CEE0" />
                                    <path fill-rule="evenodd" clip-rule="evenodd"
                                        d="M11.9453 13.5516C7.20738 1.70855 22.8368 -0.102513 24.9363 4.34414C26.4135 4.1138 32.9263 2.54105 28.2472 13.5516C28.2224 12.7752 27.8813 11.3746 27.116 10.4065C27.0982 10.592 26.9664 11.1734 26.2187 11.8739C25.9841 10.5357 25.2907 9.17574 24.3492 8.98824C23.0141 12.3593 15.3615 7.07264 11.9455 13.5516H11.9453Z"
                                        fill="#2C3033" />
                                    <path fill-rule="evenodd" clip-rule="evenodd"
                                        d="M42.0574 33.6758L42.6552 45.876L39.3742 43.1403L36.0933 45.876L36.6912 33.6758H42.0574Z"
                                        fill="#E68207" />
                                    <path fill-rule="evenodd" clip-rule="evenodd"
                                        d="M42.0575 33.6758L42.5962 44.6668L40.0699 42.5605L39.3745 43.1403L37.0811 45.0525L37.6387 33.6758H42.0575Z"
                                        fill="#FDA02F" />
                                    <path fill-rule="evenodd" clip-rule="evenodd"
                                        d="M41.0258 23.6291C41.47 24.2546 42.1867 24.5514 42.943 24.4233C43.6462 24.304 44.2342 24.4326 44.7517 24.9501C45.2694 25.4677 45.3976 26.0554 45.2785 26.7588C45.1504 27.5152 45.4472 28.2317 46.0727 28.676C46.6543 29.089 46.9792 29.5955 46.9792 30.3275C46.9792 31.0595 46.6542 31.5659 46.0727 31.979C45.4472 32.4233 45.1504 33.1398 45.2785 33.8962C45.3978 34.5994 45.2692 35.1874 44.7517 35.7049C44.2342 36.2226 43.6464 36.3507 42.943 36.2318C42.1867 36.1036 41.47 36.4004 41.0258 37.0258C40.6128 37.6073 40.1063 37.9323 39.3743 37.9323C38.6423 37.9323 38.1359 37.6073 37.7228 37.0258C37.2786 36.4003 36.562 36.1035 35.8057 36.2317C35.1024 36.3509 34.5144 36.2224 33.9969 35.7049C33.4793 35.1873 33.3511 34.5996 33.4701 33.8962C33.5982 33.1398 33.3014 32.4233 32.676 31.979C32.0945 31.5659 31.7695 31.0595 31.7695 30.3275C31.7695 29.5955 32.0945 29.089 32.676 28.676C33.3015 28.2318 33.5983 27.5152 33.4702 26.7588C33.3509 26.0556 33.4794 25.4676 33.9969 24.9501C34.5145 24.4324 35.1023 24.3042 35.8057 24.4233C36.562 24.5514 37.2786 24.2546 37.7228 23.6291C38.1359 23.0476 38.6423 22.7227 39.3743 22.7227C40.1063 22.7227 40.6128 23.0476 41.0258 23.6291Z"
                                        fill="#F9AC00" />
                                    <path fill-rule="evenodd" clip-rule="evenodd"
                                        d="M41.0259 23.6268C41.4702 24.2523 42.1867 24.5492 42.9432 24.421C43.6464 24.3018 44.2344 24.4303 44.7519 24.9478C45.2696 25.4654 45.3977 26.0531 45.2787 26.7565C45.1505 27.5129 45.4473 28.2294 46.0728 28.6737C46.6544 29.0868 46.9793 29.5932 46.9793 30.3252C46.9793 31.0572 46.6544 31.5636 46.0728 31.9767C45.4473 32.421 45.1505 33.1375 45.2787 33.8939C45.3979 34.5971 45.2694 35.1851 44.7519 35.7026C44.2343 36.2203 43.6466 36.3484 42.9432 36.2294C42.1868 36.1012 41.4702 36.398 41.0259 37.0235C40.6984 37.4845 40.3123 37.7842 39.8016 37.8887C39.291 37.7843 38.9048 37.4846 38.5773 37.0235C38.1331 36.398 37.4165 36.1012 36.6601 36.2294C36.6277 36.2349 36.5955 36.2398 36.5636 36.2443C36.322 36.1915 36.0662 36.1853 35.8057 36.2294L35.7959 36.231C35.4537 36.1605 35.1415 35.9926 34.8514 35.7026C34.3337 35.185 34.2055 34.5973 34.3246 33.8939C34.4527 33.1374 34.1559 32.4209 33.5305 31.9767C32.949 31.5636 32.624 31.0572 32.624 30.3252C32.624 29.5932 32.949 29.0868 33.5305 28.6737C34.156 28.2294 34.4528 27.5129 34.3246 26.7565C34.2054 26.0533 34.3339 25.4653 34.8514 24.9478C35.1416 24.6576 35.4538 24.4899 35.7961 24.4194L35.8057 24.421C36.0662 24.4651 36.322 24.4589 36.5635 24.4061C36.5955 24.4105 36.6277 24.4155 36.6601 24.421C37.4165 24.5492 38.1331 24.2523 38.5773 23.6268C38.9048 23.1659 39.291 22.8662 39.8016 22.7617C40.3123 22.8662 40.6984 23.1659 41.0259 23.6268Z"
                                        fill="#FDC72E" />
                                    <path
                                        d="M40.0539 32.8003C41.4205 32.8003 42.5283 31.6924 42.5283 30.3259C42.5283 28.9594 41.4205 27.8516 40.0539 27.8516C38.6874 27.8516 37.5796 28.9594 37.5796 30.3259C37.5796 31.6924 38.6874 32.8003 40.0539 32.8003Z"
                                        fill="#F9AC00" />
                                    <path
                                        d="M39.3742 32.8003C40.7408 32.8003 41.8486 31.6924 41.8486 30.3259C41.8486 28.9594 40.7408 27.8516 39.3742 27.8516C38.0077 27.8516 36.8999 28.9594 36.8999 30.3259C36.8999 31.6924 38.0077 32.8003 39.3742 32.8003Z"
                                        fill="white" />
                                    <path fill-rule="evenodd" clip-rule="evenodd"
                                        d="M39.3531 32.3408C38.2462 32.3408 37.3488 31.4418 37.3488 30.3374C37.3488 29.2329 38.2462 28.3331 39.3531 28.3331C40.46 28.3331 41.3557 29.232 41.3557 30.3374C41.3557 31.4427 40.4565 32.3408 39.3531 32.3408ZM39.3531 27.3955C37.7311 27.3955 36.4112 28.7156 36.4112 30.3374C36.4112 31.9591 37.7311 33.2783 39.3531 33.2783C40.975 33.2783 42.2932 31.9593 42.2932 30.3374C42.2932 28.7154 40.975 27.3955 39.3531 27.3955ZM45.7746 31.6058C46.2704 31.2524 46.4834 30.8737 46.4834 30.3374C46.4834 29.801 46.2704 29.4214 45.7746 29.0689C44.9994 28.5186 44.631 27.63 44.7898 26.6924C44.8929 26.0923 44.7724 25.6741 44.3935 25.2945C44.0147 24.9158 43.5974 24.7978 42.9968 24.8988C42.0593 25.0582 41.1705 24.6899 40.6206 23.9146C40.2679 23.4186 39.889 23.2066 39.353 23.2066C38.8169 23.2066 38.4364 23.4186 38.0837 23.9146C37.5338 24.6899 36.6451 25.0582 35.7075 24.8988C35.1072 24.7978 34.6891 24.9158 34.3094 25.2945C33.9308 25.6741 33.8125 26.0924 33.9138 26.6924C34.0732 27.63 33.7048 28.5186 32.9294 29.0689C32.4325 29.4214 32.2208 29.8011 32.2208 30.3374C32.2208 30.8736 32.4325 31.2524 32.9294 31.6058C33.7047 32.1561 34.0732 33.0439 33.9138 33.9814C33.8125 34.5824 33.9308 35.0005 34.3094 35.3791C34.6891 35.7589 35.1073 35.877 35.7075 35.7749C35.8488 35.751 35.9919 35.739 36.1353 35.7391C36.9087 35.7391 37.6176 36.103 38.0837 36.7591C38.4364 37.2562 38.8152 37.468 39.353 37.468C39.8907 37.468 40.2679 37.2562 40.6206 36.7591C41.1705 35.9839 42.0592 35.6164 42.9968 35.7749C43.5973 35.877 44.0146 35.758 44.3935 35.3791C44.7724 35.0005 44.8929 34.5824 44.7898 33.9814C44.6309 33.0438 44.9994 32.1561 45.7746 31.6058ZM39.6517 42.7836C39.4788 42.6392 39.2257 42.6392 39.0511 42.7836L36.5929 44.834L36.9788 36.9534C37.1063 37.0471 37.2215 37.1634 37.3192 37.302C37.8464 38.0447 38.5117 38.4057 39.3532 38.4057C40.1947 38.4057 40.8563 38.0447 41.3854 37.302C41.4792 37.1687 41.5935 37.051 41.7241 36.9534L42.11 44.834L39.6517 42.7836ZM26.8348 40.7465L31.0397 30.6506C31.1334 30.6871 31.2252 30.7237 31.3171 30.7603C31.4222 31.4052 31.7737 31.934 32.3868 32.37C32.8687 32.7122 33.089 33.2428 32.9897 33.825C32.8378 34.7232 33.0523 35.4478 33.6469 36.0422C34.2412 36.6365 34.9668 36.8513 35.8631 36.6994C35.9295 36.6891 35.9923 36.6824 36.0552 36.6788L35.8562 40.7466H26.8349L26.8348 40.7465ZM1.51688 37.8288C1.51688 33.7846 4.36585 32.5216 9.11888 30.6505L13.3236 40.7464H1.51688V37.8288ZM14.7093 27.4836L12.7162 29.0641L16.3752 34.7773L19.4025 31.6685L14.7093 27.4836ZM12.4151 13.6255C14.2705 10.273 17.3548 10.4652 20.0802 10.6358C21.9487 10.7529 23.7243 10.8636 24.5445 9.58495C25.0612 9.93642 25.5411 10.8656 25.7314 11.9529C25.746 12.0362 25.7829 12.1141 25.8382 12.1782C25.8935 12.2422 25.9651 12.2901 26.0454 12.3167C26.2087 12.372 26.3886 12.3326 26.5142 12.2144C26.8133 11.9342 27.028 11.668 27.1808 11.4289C27.5622 12.1977 27.7311 13.0414 27.7517 13.5392C27.612 15.0833 27.0177 20.1204 25.1014 22.2365C23.4908 24.0158 22.1492 25.228 21.5127 25.4783C21.2015 25.6012 21.0532 25.5767 20.7571 25.5298C20.5818 25.5016 20.3634 25.466 20.0849 25.4632H20.0746C19.7953 25.466 19.5777 25.5016 19.4024 25.5298C19.1062 25.5767 18.9579 25.6012 18.6466 25.4783C18.01 25.2279 16.6676 24.0157 15.057 22.2365C13.1754 20.158 12.5689 15.2642 12.4151 13.6255ZM11.2321 17.8725C11.2311 17.8714 11.1074 17.8293 10.9659 17.3728C10.844 16.9836 10.7614 16.4653 10.6733 15.9168L10.6704 15.899C10.6395 15.701 10.5749 15.4592 10.5063 15.2024C10.3788 14.7213 10.1398 13.8252 10.3142 13.5448C10.376 13.4445 10.4342 13.421 10.4829 13.4117C10.5841 13.3911 10.8757 13.3967 11.4908 13.8102C11.574 14.681 11.7354 15.972 12.0289 17.3474C11.4476 17.9135 11.2338 17.8732 11.2321 17.8724V17.8725ZM15.6486 3.43036C13.8758 4.20276 10.1201 6.59151 12.0298 12.4705C14.2115 9.32995 17.6061 9.54173 20.1384 9.70026C22.257 9.83245 23.4759 9.85692 23.8882 8.81526C23.9286 8.7131 24.0036 8.62836 24.1001 8.57579C24.1965 8.52321 24.3084 8.50614 24.4162 8.52754C25.408 8.72536 26.069 9.7762 26.4251 10.8674C26.5968 10.5816 26.6211 10.3921 26.6239 10.3602C26.633 10.2671 26.6698 10.1789 26.7294 10.107C26.789 10.035 26.8689 9.98246 26.9586 9.9562C27.0481 9.92957 27.1436 9.93042 27.2327 9.95865C27.3218 9.98688 27.4004 10.0412 27.4583 10.1145C27.8689 10.6339 28.1736 11.2705 28.3771 11.895C29.8498 7.91995 29.5 6.17442 28.8946 5.40745C28.0133 4.29286 26.1195 4.61536 25.2102 4.76995C25.1259 4.78392 25.0498 4.79714 24.9833 4.80745C24.8832 4.82298 24.7809 4.80571 24.6915 4.75823C24.6021 4.71074 24.5305 4.63559 24.4874 4.54401C23.894 3.28683 21.9701 2.5912 19.782 2.5912C18.4208 2.5912 16.9573 2.86036 15.6486 3.43036ZM29.6755 13.4118C29.727 13.4211 29.7824 13.4446 29.845 13.5449C30.0186 13.8253 29.7804 14.7214 29.6519 15.2033C29.5845 15.4592 29.5197 15.701 29.4879 15.899L29.4849 15.9168C29.3979 16.4652 29.3144 16.9836 29.1934 17.3728C29.0519 17.8293 28.9282 17.8714 28.9271 17.8725C28.9243 17.8733 28.7107 17.9136 28.1304 17.3475C28.4238 15.972 28.5841 14.6811 28.6685 13.8103C29.2836 13.3968 29.5743 13.3912 29.6755 13.4118ZM25.4501 27.4837L20.7572 31.6686L23.7844 34.7774L27.4433 29.0642L25.4501 27.4837ZM21.9665 36.1049L22.5224 40.7465H25.8195L30.1676 30.3074C29.5479 30.0646 28.9123 29.8124 28.2504 29.5424L24.2547 35.7806C24.2163 35.8399 24.1652 35.8898 24.105 35.9268C24.0448 35.9638 23.9772 35.9869 23.9069 35.9943C23.8366 36.0012 23.7657 35.9922 23.6993 35.968C23.633 35.9439 23.5729 35.9051 23.5235 35.8546L22.6928 35.0014L21.9663 36.1049H21.9665ZM19.0948 36.4593H21.0645L21.5782 40.7466H18.5801L19.0948 36.4593ZM20.0794 32.3166L22.0237 34.3134L21.2277 35.5219H18.9309L18.1351 34.3134L20.0794 32.3166ZM18.3036 26.3512C18.6037 26.4694 18.8455 26.5059 19.0592 26.5059C19.2364 26.5059 19.3949 26.4806 19.5505 26.4553C19.7089 26.4299 19.8721 26.4038 20.0794 26.401C20.2865 26.4038 20.4505 26.4299 20.608 26.4553C20.9511 26.5106 21.3064 26.5668 21.8559 26.3512C22.423 26.1281 23.2068 25.4868 24.0037 24.7256C24.0954 25.7203 24.224 26.5406 24.3879 27.1753L20.0794 31.0163L15.7716 27.1753C15.9357 26.5406 16.064 25.7193 16.155 24.7247C16.9527 25.4868 17.7355 26.1281 18.3037 26.3512H18.3036ZM15.9045 35.7807L11.9079 29.5425C11.271 29.802 10.6322 30.057 9.9916 30.3074L14.3398 40.7466H17.6361L18.193 36.1049L17.4655 35.0015L16.6348 35.8547C16.5911 35.8995 16.539 35.935 16.4813 35.9594C16.4237 35.9837 16.3618 35.9962 16.2993 35.9963C16.2833 35.9963 16.2673 35.9953 16.2515 35.9944C16.1099 35.9794 15.9813 35.9007 15.9045 35.7807ZM46.3175 28.305C45.8356 27.9629 45.6156 27.4321 45.7134 26.8491C45.8652 25.9519 45.6505 25.2263 45.0569 24.6318C44.4633 24.0375 43.737 23.8228 42.8396 23.9746C42.2582 24.074 41.7275 23.8536 41.3853 23.3719C40.8563 22.6303 40.1929 22.2694 39.3531 22.2694C38.5133 22.2694 37.8463 22.6303 37.3191 23.3719C36.9769 23.8536 36.4462 24.0739 35.8629 23.9746C34.9666 23.8228 34.241 24.0384 33.6467 24.6318C33.0522 25.2263 32.8376 25.9519 32.9895 26.8491C33.0889 27.432 32.8685 27.9629 32.3866 28.305C31.8221 28.7063 31.4791 29.1872 31.3459 29.7638C31.1809 29.699 31.0131 29.6336 30.8434 29.566C30.0307 29.2472 29.1896 28.9172 28.3066 28.5525L25.7237 26.5051C25.6486 26.4456 25.557 26.4104 25.4613 26.4044C25.3656 26.3984 25.2704 26.4218 25.1884 26.4715C25.0495 25.7823 24.9455 24.9058 24.8762 23.8538C25.1879 23.5293 25.4949 23.2003 25.7968 22.8667C26.7822 21.7784 27.4431 20.0795 27.8857 18.3808C28.2017 18.6245 28.555 18.812 28.9131 18.812C29.0096 18.812 29.1072 18.798 29.2036 18.768C30.0193 18.5158 30.2004 17.3795 30.4112 16.0643L30.414 16.0474C30.4374 15.8966 30.4966 15.6771 30.5584 15.4445C30.7674 14.6561 31.0281 13.6754 30.6418 13.0511C30.4543 12.7492 30.1824 12.5561 29.8562 12.4915C29.6367 12.4492 29.3978 12.4651 29.1362 12.5393C30.5846 8.7667 30.745 6.23723 29.6292 4.82639C28.4462 3.32929 26.216 3.64983 25.1603 3.82786C24.4824 2.75723 23.0669 2.00826 21.206 1.74951C19.256 1.47942 17.0932 1.77848 15.2736 2.57076C13.3056 3.42848 11.8761 4.78879 11.1391 6.50451C10.3918 8.24358 10.3713 10.2751 11.0735 12.5551C10.7922 12.4669 10.5363 12.4454 10.3019 12.4914C9.97557 12.556 9.70463 12.7491 9.51732 13.051C9.13004 13.6744 9.39076 14.656 9.60057 15.4436C9.66254 15.677 9.72066 15.8965 9.74495 16.0473L9.74776 16.0651C9.95776 17.3805 10.1397 18.5157 10.9543 18.768C11.0517 18.798 11.1485 18.8119 11.2459 18.8119C11.604 18.8119 11.9567 18.6244 12.2725 18.3807C12.7151 20.0794 13.377 21.7782 14.3622 22.8666C14.6491 23.1835 14.9613 23.52 15.2829 23.8537C15.2135 24.9056 15.1084 25.7822 14.9707 26.4714C14.8887 26.4217 14.7934 26.3983 14.6977 26.4043C14.602 26.4103 14.5105 26.4455 14.4354 26.505L11.8524 28.5524C10.9674 28.9181 10.1266 29.2482 9.31285 29.5677C4.24276 31.558 0.579102 32.9963 0.579102 37.8289V41.2153C0.579126 41.3395 0.628498 41.4587 0.716362 41.5466C0.804227 41.6345 0.923393 41.6839 1.04766 41.6839H35.8089L35.6051 45.8549C35.6006 45.9457 35.6225 46.0359 35.6683 46.1145C35.714 46.193 35.7817 46.2566 35.8629 46.2974C35.9449 46.338 36.0368 46.3539 36.1277 46.3432C36.2185 46.3326 36.3042 46.2958 36.3745 46.2374L39.3531 43.754L42.3316 46.2374C42.4152 46.3077 42.5209 46.3463 42.6302 46.3461C42.7029 46.3463 42.7746 46.3296 42.8397 46.2974C42.9214 46.257 42.9895 46.1936 43.0355 46.1149C43.0814 46.0362 43.1032 45.9457 43.0981 45.8548L42.6494 36.6786C42.7123 36.6823 42.7751 36.6889 42.8397 36.6992C43.7371 36.8511 44.4634 36.6363 45.057 36.042C45.6506 35.4476 45.8653 34.723 45.7134 33.8248C45.6157 33.2427 45.8357 32.712 46.3176 32.3699C47.0596 31.8419 47.421 31.1772 47.421 30.3373C47.421 29.4974 47.0596 28.8317 46.3176 28.3049L46.3175 28.305Z"
                                        fill="black" />
                                </svg>