 <svg xmlns="http://www.w3.org/2000/svg" width="48" height="48" viewBox="0 0 48 48"
                                    fill="none">
                                    <path d="M3 45.75H9V30.75H3V45.75Z" fill="#006DF0" />
                                    <path
                                        d="M29.25 30.75C33.8063 30.75 37.5 27.0563 37.5 22.5C37.5 17.9437 33.8063 14.25 29.25 14.25C24.6937 14.25 21 17.9437 21 22.5C21 27.0563 24.6937 30.75 29.25 30.75Z"
                                        fill="#EE8700" />
                                    <path
                                        d="M29.25 29.25C32.9779 29.25 36 26.2279 36 22.5C36 18.7721 32.9779 15.75 29.25 15.75C25.5221 15.75 22.5 18.7721 22.5 22.5C22.5 26.2279 25.5221 29.25 29.25 29.25Z"
                                        fill="#FF9811" />
                                    <path
                                        d="M13.5 15.75C17.2279 15.75 20.25 12.7279 20.25 9C20.25 5.27208 17.2279 2.25 13.5 2.25C9.77208 2.25 6.75 5.27208 6.75 9C6.75 12.7279 9.77208 15.75 13.5 15.75Z"
                                        fill="#FFA733" />
                                    <path
                                        d="M13.5 14.25C16.3995 14.25 18.75 11.8995 18.75 9C18.75 6.10051 16.3995 3.75 13.5 3.75C10.6005 3.75 8.25 6.10051 8.25 9C8.25 11.8995 10.6005 14.25 13.5 14.25Z"
                                        fill="#FFB655" />
                                    <path
                                        d="M40.5 12.75C43.3995 12.75 45.75 10.3995 45.75 7.5C45.75 4.60051 43.3995 2.25 40.5 2.25C37.6005 2.25 35.25 4.60051 35.25 7.5C35.25 10.3995 37.6005 12.75 40.5 12.75Z"
                                        fill="#FF6243" />
                                    <path
                                        d="M40.5 11.25C42.5711 11.25 44.25 9.57107 44.25 7.5C44.25 5.42893 42.5711 3.75 40.5 3.75C38.4289 3.75 36.75 5.42893 36.75 7.5C36.75 9.57107 38.4289 11.25 40.5 11.25Z"
                                        fill="#FF7956" />
                                    <path
                                        d="M20.3137 35.8808L26.901 37.6493C27.4773 37.8037 28.0914 37.7228 28.6082 37.4245C29.1249 37.1262 29.502 36.6348 29.6565 36.0585C29.7335 35.7729 29.7534 35.4749 29.7152 35.1815C29.6769 34.8882 29.5811 34.6053 29.4333 34.349C29.2856 34.0927 29.0887 33.8681 28.8541 33.6879C28.6194 33.5078 28.3515 33.3757 28.0658 33.2993L18.0945 30.6278C16.5907 30.2249 14.9892 30.4223 13.6282 31.1783L9 33.7493V41.9993L9.49275 42.492C10.0499 43.0491 10.7114 43.4911 11.4394 43.7926C12.1673 44.0941 12.9476 44.2493 13.7355 44.2493H20.9062C21.9506 44.2494 22.977 43.9769 23.8837 43.4588L41.3925 33.3743C41.7337 33.1761 42.0166 32.8915 42.2128 32.5491C42.409 32.2068 42.5115 31.8188 42.51 31.4243C42.509 31.0296 42.4057 30.642 42.21 30.2993C41.9119 29.7839 41.4217 29.4076 40.8467 29.253C40.2717 29.0984 39.6589 29.1779 39.1425 29.4743L29.67 34.9418"
                                        fill="#FFBCAB" />
                                    <path d="M6.75 30.75H9V45.75H6.75V30.75Z" fill="#005ECE" />
                                    <path
                                        d="M38.7675 28.8273L30.012 33.88C29.6138 33.2398 28.9878 32.7743 28.26 32.5773L18.2887 29.9058C16.5971 29.4482 14.7936 29.6706 13.2638 30.5253L9.75 32.4768V30.7518C9.75 30.5529 9.67098 30.3621 9.53033 30.2215C9.38968 30.0808 9.19891 30.0018 9 30.0018H3C2.80109 30.0018 2.61032 30.0808 2.46967 30.2215C2.32902 30.3621 2.25 30.5529 2.25 30.7518V45.7518C2.25 45.9507 2.32902 46.1415 2.46967 46.2821C2.61032 46.4228 2.80109 46.5018 3 46.5018H9C9.19891 46.5018 9.38968 46.4228 9.53033 46.2821C9.67098 46.1415 9.75 45.9507 9.75 45.7518V43.6915C10.9035 44.544 12.3004 45.0034 13.7347 45.0018H20.9062C22.082 45.0012 23.2372 44.6941 24.258 44.1108L41.7705 34.0248C42.2261 33.7619 42.604 33.383 42.8656 32.9267C43.1273 32.4703 43.2633 31.9528 43.26 31.4268C43.2595 30.9012 43.1209 30.3849 42.8581 29.9297C42.5953 29.4745 42.2175 29.0963 41.7625 28.8331C41.3075 28.5698 40.7914 28.4307 40.2658 28.4297C39.7401 28.4287 39.2235 28.5658 38.7675 28.8273ZM8.25 45.0018H3.75V31.5018H8.25V45.0018ZM41.0182 32.7265L23.5118 42.8103C22.718 43.2631 21.8201 43.5014 20.9062 43.5018H13.7347C13.0451 43.5037 12.3619 43.3687 11.7247 43.1046C11.0876 42.8406 10.5092 42.4527 10.023 41.9635L9.75 41.6905V34.1905L13.992 31.834C15.1819 31.1693 16.5846 30.9964 17.9003 31.3525L27.8715 34.024C28.0651 34.0719 28.2472 34.1579 28.4072 34.277C28.5671 34.3961 28.7018 34.5459 28.8031 34.7176C28.9045 34.8893 28.9707 35.0796 28.9976 35.2772C29.0246 35.4748 29.012 35.6758 28.9603 35.8684C28.9087 36.061 28.8192 36.2414 28.6971 36.3991C28.5749 36.5567 28.4225 36.6884 28.2489 36.7864C28.0752 36.8845 27.8837 36.9469 27.6856 36.97C27.4876 36.9932 27.2868 36.9766 27.0952 36.9213L20.508 35.1565C20.4129 35.131 20.3136 35.1245 20.216 35.1374C20.1183 35.1502 20.0241 35.1822 19.9388 35.2314C19.8535 35.2806 19.7787 35.3462 19.7187 35.4243C19.6588 35.5025 19.6148 35.5917 19.5892 35.6868C19.5637 35.7819 19.5572 35.8812 19.5701 35.9788C19.5829 36.0765 19.6149 36.1707 19.6641 36.256C19.7133 36.3413 19.7789 36.4161 19.857 36.4761C19.9352 36.536 20.0244 36.58 20.1195 36.6055C20.1195 36.6055 27.225 38.4768 27.4883 38.4768C27.8932 38.4813 28.2947 38.4024 28.6679 38.245C29.041 38.0877 29.3778 37.8551 29.6571 37.562C29.9365 37.2688 30.1526 36.9212 30.2918 36.541C30.431 36.1607 30.4905 35.7558 30.4665 35.3515L39.5153 30.1278C39.8582 29.9309 40.265 29.8775 40.6472 29.979C41.0294 30.0806 41.356 30.3289 41.556 30.67C41.689 30.9004 41.7593 31.1616 41.76 31.4275C41.7621 31.6903 41.6945 31.9489 41.5642 32.177C41.4339 32.4052 41.2456 32.5948 41.0182 32.7265Z"
                                        fill="black" />
                                    <path
                                        d="M29.25 31.5C31.03 31.5 32.7701 30.9722 34.2501 29.9832C35.7302 28.9943 36.8837 27.5887 37.5649 25.9442C38.2461 24.2996 38.4243 22.49 38.0771 20.7442C37.7298 18.9984 36.8726 17.3947 35.614 16.136C34.3553 14.8774 32.7516 14.0202 31.0058 13.6729C29.26 13.3257 27.4504 13.5039 25.8058 14.1851C24.1613 14.8663 22.7557 16.0198 21.7668 17.4999C20.7778 18.9799 20.25 20.72 20.25 22.5C20.2526 24.8862 21.2016 27.1738 22.8889 28.8611C24.5762 30.5484 26.8638 31.4974 29.25 31.5ZM29.25 15C30.7334 15 32.1834 15.4399 33.4168 16.264C34.6501 17.0881 35.6114 18.2594 36.1791 19.6299C36.7468 21.0003 36.8953 22.5083 36.6059 23.9632C36.3165 25.418 35.6022 26.7544 34.5533 27.8033C33.5044 28.8522 32.168 29.5665 30.7132 29.8559C29.2583 30.1453 27.7503 29.9968 26.3799 29.4291C25.0094 28.8614 23.8381 27.9001 23.014 26.6668C22.1899 25.4334 21.75 23.9834 21.75 22.5C21.7522 20.5115 22.5431 18.6052 23.9491 17.1991C25.3552 15.7931 27.2615 15.0022 29.25 15ZM13.5 11.25C13.3011 11.25 13.1103 11.171 12.9697 11.0303C12.829 10.8897 12.75 10.6989 12.75 10.5C12.75 10.3011 12.671 10.1103 12.5303 9.96967C12.3897 9.82902 12.1989 9.75 12 9.75C11.8011 9.75 11.6103 9.82902 11.4697 9.96967C11.329 10.1103 11.25 10.3011 11.25 10.5C11.2519 10.9637 11.3971 11.4155 11.6656 11.7935C11.9341 12.1716 12.3128 12.4574 12.75 12.612V13.5C12.75 13.6989 12.829 13.8897 12.9697 14.0303C13.1103 14.171 13.3011 14.25 13.5 14.25C13.6989 14.25 13.8897 14.171 14.0303 14.0303C14.171 13.8897 14.25 13.6989 14.25 13.5V12.612C14.75 12.4359 15.1716 12.0885 15.44 11.6314C15.7084 11.1742 15.8064 10.6368 15.7165 10.1144C15.6267 9.59191 15.3549 9.11811 14.9492 8.77687C14.5435 8.43564 14.0301 8.249 13.5 8.25C13.3517 8.25 13.2067 8.20601 13.0833 8.1236C12.96 8.04119 12.8639 7.92406 12.8071 7.78701C12.7503 7.64997 12.7355 7.49917 12.7644 7.35368C12.7933 7.2082 12.8648 7.07456 12.9697 6.96967C13.0746 6.86478 13.2082 6.79335 13.3537 6.76441C13.4992 6.73547 13.65 6.75032 13.787 6.80709C13.9241 6.86386 14.0412 6.95999 14.1236 7.08332C14.206 7.20666 14.25 7.35166 14.25 7.5C14.25 7.69891 14.329 7.88968 14.4697 8.03033C14.6103 8.17098 14.8011 8.25 15 8.25C15.1989 8.25 15.3897 8.17098 15.5303 8.03033C15.671 7.88968 15.75 7.69891 15.75 7.5C15.7481 7.0363 15.6029 6.58453 15.3344 6.20648C15.0659 5.82842 14.6872 5.54256 14.25 5.388V4.5C14.25 4.30109 14.171 4.11032 14.0303 3.96967C13.8897 3.82902 13.6989 3.75 13.5 3.75C13.3011 3.75 13.1103 3.82902 12.9697 3.96967C12.829 4.11032 12.75 4.30109 12.75 4.5V5.388C12.25 5.56412 11.8284 5.91151 11.56 6.36865C11.2916 6.82579 11.1936 7.36318 11.2835 7.88563C11.3733 8.40809 11.6451 8.88189 12.0508 9.22313C12.4565 9.56436 12.9699 9.751 13.5 9.75C13.6989 9.75 13.8897 9.82902 14.0303 9.96967C14.171 10.1103 14.25 10.3011 14.25 10.5C14.25 10.6989 14.171 10.8897 14.0303 11.0303C13.8897 11.171 13.6989 11.25 13.5 11.25Z"
                                        fill="black" />
                                    <path
                                        d="M13.5 16.5C14.9834 16.5 16.4334 16.0601 17.6668 15.236C18.9001 14.4119 19.8614 13.2406 20.4291 11.8701C20.9968 10.4997 21.1453 8.99168 20.8559 7.53683C20.5665 6.08197 19.8522 4.7456 18.8033 3.6967C17.7544 2.64781 16.418 1.9335 14.9632 1.64411C13.5083 1.35472 12.0003 1.50325 10.6299 2.07091C9.25943 2.63856 8.08809 3.59986 7.26398 4.83323C6.43987 6.0666 6 7.51664 6 9C6.00218 10.9885 6.79306 12.8948 8.19911 14.3009C9.60516 15.7069 11.5115 16.4978 13.5 16.5ZM13.5 3C14.6867 3 15.8467 3.3519 16.8334 4.01119C17.8201 4.67047 18.5892 5.60755 19.0433 6.7039C19.4974 7.80026 19.6162 9.00666 19.3847 10.1705C19.1532 11.3344 18.5818 12.4035 17.7426 13.2426C16.9035 14.0818 15.8344 14.6532 14.6705 14.8847C13.5067 15.1162 12.3003 14.9974 11.2039 14.5433C10.1075 14.0892 9.17047 13.3201 8.51118 12.3334C7.85189 11.3467 7.5 10.1867 7.5 9C7.50179 7.40925 8.1345 5.88417 9.25933 4.75934C10.3842 3.6345 11.9092 3.00179 13.5 3ZM29.25 26.25C28.8522 26.25 28.4706 26.092 28.1893 25.8107C27.908 25.5294 27.75 25.1478 27.75 24.75C27.75 24.5511 27.671 24.3603 27.5303 24.2197C27.3897 24.079 27.1989 24 27 24C26.8011 24 26.6103 24.079 26.4697 24.2197C26.329 24.3603 26.25 24.5511 26.25 24.75C26.2525 25.4132 26.4746 26.0568 26.8817 26.5803C27.2888 27.1038 27.8579 27.4777 28.5 27.6435V28.5C28.5 28.6989 28.579 28.8897 28.7197 29.0303C28.8603 29.171 29.0511 29.25 29.25 29.25C29.4489 29.25 29.6397 29.171 29.7803 29.0303C29.921 28.8897 30 28.6989 30 28.5V27.6435C30.7062 27.4617 31.3218 27.0285 31.7313 26.425C32.1407 25.8216 32.3158 25.0894 32.2238 24.366C32.1317 23.6426 31.7788 22.9777 31.2313 22.496C30.6837 22.0144 29.9792 21.7491 29.25 21.75C28.9533 21.75 28.6633 21.662 28.4166 21.4972C28.17 21.3324 27.9777 21.0981 27.8642 20.824C27.7506 20.5499 27.7209 20.2483 27.7788 19.9574C27.8367 19.6664 27.9796 19.3991 28.1893 19.1893C28.3991 18.9796 28.6664 18.8367 28.9574 18.7788C29.2483 18.7209 29.5499 18.7507 29.824 18.8642C30.0981 18.9777 30.3324 19.17 30.4972 19.4166C30.662 19.6633 30.75 19.9533 30.75 20.25C30.75 20.4489 30.829 20.6397 30.9697 20.7803C31.1103 20.921 31.3011 21 31.5 21C31.6989 21 31.8897 20.921 32.0303 20.7803C32.171 20.6397 32.25 20.4489 32.25 20.25C32.2475 19.5868 32.0254 18.9432 31.6183 18.4197C31.2112 17.8962 30.6421 17.5223 30 17.3565V16.5C30 16.3011 29.921 16.1103 29.7803 15.9697C29.6397 15.829 29.4489 15.75 29.25 15.75C29.0511 15.75 28.8603 15.829 28.7197 15.9697C28.579 16.1103 28.5 16.3011 28.5 16.5V17.3565C27.7938 17.5383 27.1782 17.9715 26.7687 18.575C26.3593 19.1784 26.1842 19.9106 26.2762 20.634C26.3683 21.3574 26.7212 22.0223 27.2687 22.504C27.8163 22.9856 28.5208 23.2509 29.25 23.25C29.6478 23.25 30.0294 23.408 30.3107 23.6893C30.592 23.9706 30.75 24.3522 30.75 24.75C30.75 25.1478 30.592 25.5294 30.3107 25.8107C30.0294 26.092 29.6478 26.25 29.25 26.25ZM40.5 1.5C39.3133 1.5 38.1533 1.8519 37.1666 2.51119C36.1799 3.17047 35.4108 4.10755 34.9567 5.2039C34.5026 6.30026 34.3838 7.50666 34.6153 8.67055C34.8468 9.83443 35.4182 10.9035 36.2574 11.7426C37.0965 12.5818 38.1656 13.1532 39.3295 13.3847C40.4933 13.6162 41.6997 13.4974 42.7961 13.0433C43.8925 12.5892 44.8295 11.8201 45.4888 10.8334C46.1481 9.84673 46.5 8.68669 46.5 7.5C46.4982 5.90925 45.8655 4.38417 44.7407 3.25934C43.6158 2.1345 42.0908 1.50179 40.5 1.5ZM40.5 9.75C40.3011 9.75 40.1103 9.67099 39.9697 9.53033C39.829 9.38968 39.75 9.19892 39.75 9C39.75 8.80109 39.671 8.61033 39.5303 8.46967C39.3897 8.32902 39.1989 8.25 39 8.25C38.8011 8.25 38.6103 8.32902 38.4697 8.46967C38.329 8.61033 38.25 8.80109 38.25 9C38.2519 9.4637 38.3971 9.91548 38.6656 10.2935C38.9341 10.6716 39.3128 10.9574 39.75 11.112V11.9325C38.7019 11.7562 37.7501 11.2142 37.0637 10.4028C36.3773 9.5913 36.0007 8.56284 36.0007 7.5C36.0007 6.43717 36.3773 5.40871 37.0637 4.59724C37.7501 3.78577 38.7019 3.24378 39.75 3.0675V3.888C39.25 4.06412 38.8284 4.41151 38.56 4.86865C38.2916 5.32579 38.1936 5.86318 38.2835 6.38564C38.3733 6.90809 38.6451 7.3819 39.0508 7.72313C39.4565 8.06436 39.9699 8.25101 40.5 8.25C40.6989 8.25 40.8897 8.32902 41.0303 8.46967C41.171 8.61033 41.25 8.80109 41.25 9C41.25 9.19892 41.171 9.38968 41.0303 9.53033C40.8897 9.67099 40.6989 9.75 40.5 9.75ZM41.25 11.9325V11.112C41.75 10.9359 42.1716 10.5885 42.44 10.1314C42.7084 9.67421 42.8064 9.13682 42.7165 8.61437C42.6267 8.09192 42.3549 7.61811 41.9492 7.27688C41.5435 6.93564 41.0301 6.749 40.5 6.75C40.3517 6.75 40.2067 6.70602 40.0833 6.62361C39.96 6.54119 39.8639 6.42406 39.8071 6.28702C39.7503 6.14997 39.7355 5.99917 39.7644 5.85369C39.7934 5.7082 39.8648 5.57456 39.9697 5.46967C40.0746 5.36478 40.2082 5.29335 40.3537 5.26441C40.4992 5.23548 40.65 5.25033 40.787 5.30709C40.9241 5.36386 41.0412 5.45999 41.1236 5.58333C41.206 5.70666 41.25 5.85167 41.25 6C41.25 6.19892 41.329 6.38968 41.4697 6.53033C41.6103 6.67099 41.8011 6.75 42 6.75C42.1989 6.75 42.3897 6.67099 42.5303 6.53033C42.671 6.38968 42.75 6.19892 42.75 6C42.7481 5.53631 42.6029 5.08453 42.3344 4.70648C42.0659 4.32843 41.6872 4.04257 41.25 3.888V3.0675C42.2981 3.24378 43.2499 3.78577 43.9363 4.59724C44.6227 5.40871 44.9993 6.43717 44.9993 7.5C44.9993 8.56284 44.6227 9.5913 43.9363 10.4028C43.2499 11.2142 42.2981 11.7562 41.25 11.9325Z"
                                        fill="black" />
                                </svg>