 <svg xmlns="http://www.w3.org/2000/svg" width="48" height="48" viewBox="0 0 48 48"
                                    fill="none">
                                    <path fill-rule="evenodd" clip-rule="evenodd"
                                        d="M8.97217 27.1445H17.5891C21.0577 29.8196 24.5236 32.4974 27.9922 35.1724C29.3911 36.2522 29.7729 38.1775 28.9793 39.6936L39.2842 34.698C41.0649 33.8363 43.23 34.5862 44.0917 36.3668C44.956 38.1475 44.2034 40.3154 42.4228 41.177C23.9919 50.113 27.5531 50.4512 8.97217 40.7598V27.1445Z"
                                        fill="#FFCEBF" />
                                    <path
                                        d="M18.5081 34.786L17.81 34.2461L16.7329 35.6422L24.2209 41.4205C25.1971 42.1758 26.3942 42.4594 27.5313 42.3149C28.6711 42.1677 29.7565 41.5868 30.5091 40.6106C30.637 40.4456 30.7527 40.2715 30.8554 40.0897C30.9589 39.9089 31.05 39.7212 31.1281 39.528L31.5726 38.4345L28.9793 39.6916C28.5348 40.1879 27.9349 40.4851 27.3104 40.5642C26.6178 40.6542 25.8925 40.4823 25.3007 40.0243L18.5081 34.786Z"
                                        fill="#FFB09E" />
                                    <path fill-rule="evenodd" clip-rule="evenodd"
                                        d="M1.41309 24.6719H8.97206V43.2283H1.41309V24.6719Z" fill="#435469" />
                                    <path fill-rule="evenodd" clip-rule="evenodd"
                                        d="M11.1238 24.6733H15.4459V19.225H18.8953L13.2835 11.6852L7.67432 19.225H11.1238V24.6733ZM24.041 24.6733H28.3604V13.5449H31.8126L26.2007 6.00516L20.5916 13.5449H24.041V24.6733ZM36.9583 24.6733H41.2777V7.58672H44.7298L39.118 0.046875L33.506 7.58672H36.9583V24.6733Z"
                                        fill="#00C963" />
                                    <path
                                        d="M39.1179 16.4727C41.1795 16.4727 43.0473 17.3097 44.3999 18.6624C45.7497 20.0122 46.5869 21.8801 46.5869 23.9416C46.5869 26.0059 45.7497 27.8738 44.3999 29.2236C43.0473 30.5761 41.1794 31.4106 39.1179 31.4106C37.0564 31.4106 35.1885 30.5761 33.8359 29.2236C32.4861 27.8711 31.6489 26.0059 31.6489 23.9416C31.6489 21.8801 32.4834 20.0122 33.8359 18.6624C35.1885 17.3097 37.0563 16.4727 39.1179 16.4727Z"
                                        fill="#FEDB41" />
                                    <path
                                        d="M43.2679 19.7883C42.2044 18.7275 40.7374 18.0703 39.1176 18.0703C37.4951 18.0703 36.0281 18.7275 34.9673 19.7883C33.9038 20.8518 33.2466 22.3188 33.2466 23.9386C33.2466 25.5611 33.9038 27.0281 34.9673 28.0889C36.0281 29.1524 37.4951 29.8096 39.1176 29.8096C40.7374 29.8096 42.2044 29.1524 43.2679 28.0889C44.3287 27.0281 44.9859 25.5611 44.9859 23.9386C44.9859 22.3188 44.3287 20.8518 43.2679 19.7883Z"
                                        fill="#FEA832" />
                                    <path
                                        d="M41.4794 22.9423V22.2687C41.4794 21.3132 40.7325 20.5304 39.7914 20.467V19.1328H38.4442V20.4981C37.4843 20.6813 36.7563 21.5264 36.7563 22.5388C36.7563 23.5516 37.2824 24.0481 37.7235 24.2863C38.2675 24.5799 38.9417 24.6139 39.4014 24.6139C39.8044 24.6139 40.1322 24.9417 40.1322 25.3446C40.1322 25.7476 39.8044 26.0754 39.4014 26.0754H38.567C38.3157 26.0754 38.1035 25.8643 38.1035 25.6146V24.941H36.7563V25.6146C36.7563 26.5702 37.5032 27.3528 38.4442 27.4164V28.7478H39.7914V27.3853C40.7513 27.2023 41.4794 26.357 41.4794 25.3446C41.4794 24.1989 40.5471 23.2667 39.4014 23.2667C38.1034 23.2667 38.1034 22.8966 38.1034 22.5387C38.1034 22.1356 38.4312 21.8079 38.8342 21.8079H39.6686C39.9199 21.8079 40.1321 22.0189 40.1321 22.2687V22.9423H41.4794V22.9423Z"
                                        fill="#FEDB41" />
                                </svg>